<mxfile host="app.diagrams.net" agent="Mozilla/5.0 (Windows NT 10.0; Win64; x64) AppleWebKit/537.36 (KHTML, like Gecko) Chrome/128.0.0.0 Safari/537.36" version="24.7.8">
  <diagram id="C5RBs43oDa-KdzZeNtuy" name="Page-1">
    <mxGraphModel dx="1434" dy="738" grid="1" gridSize="10" guides="1" tooltips="1" connect="1" arrows="1" fold="1" page="1" pageScale="1" pageWidth="827" pageHeight="1169" math="0" shadow="0">
      <root>
        <mxCell id="WIyWlLk6GJQsqaUBKTNV-0" />
        <mxCell id="WIyWlLk6GJQsqaUBKTNV-1" parent="WIyWlLk6GJQsqaUBKTNV-0" />
        <mxCell id="juqxSS0tAxhvBvfeZQ4b-3" value="Api com AKUMA no MI" style="swimlane;fontStyle=0;childLayout=stackLayout;horizontal=1;startSize=30;horizontalStack=0;resizeParent=1;resizeParentMax=0;resizeLast=0;collapsible=1;marginBottom=0;whiteSpace=wrap;html=1;" vertex="1" parent="WIyWlLk6GJQsqaUBKTNV-1">
          <mxGeometry x="270" width="250" height="120" as="geometry" />
        </mxCell>
        <mxCell id="juqxSS0tAxhvBvfeZQ4b-4" value="Nome da Akuma no mi" style="text;strokeColor=none;fillColor=none;align=left;verticalAlign=middle;spacingLeft=4;spacingRight=4;overflow=hidden;points=[[0,0.5],[1,0.5]];portConstraint=eastwest;rotatable=0;whiteSpace=wrap;html=1;" vertex="1" parent="juqxSS0tAxhvBvfeZQ4b-3">
          <mxGeometry y="30" width="250" height="30" as="geometry" />
        </mxCell>
        <mxCell id="juqxSS0tAxhvBvfeZQ4b-5" value="Tipo da Akuma no mi" style="text;strokeColor=none;fillColor=none;align=left;verticalAlign=middle;spacingLeft=4;spacingRight=4;overflow=hidden;points=[[0,0.5],[1,0.5]];portConstraint=eastwest;rotatable=0;whiteSpace=wrap;html=1;" vertex="1" parent="juqxSS0tAxhvBvfeZQ4b-3">
          <mxGeometry y="60" width="250" height="30" as="geometry" />
        </mxCell>
        <mxCell id="juqxSS0tAxhvBvfeZQ4b-6" value="Quem a possui no momento" style="text;strokeColor=none;fillColor=none;align=left;verticalAlign=middle;spacingLeft=4;spacingRight=4;overflow=hidden;points=[[0,0.5],[1,0.5]];portConstraint=eastwest;rotatable=0;whiteSpace=wrap;html=1;" vertex="1" parent="juqxSS0tAxhvBvfeZQ4b-3">
          <mxGeometry y="90" width="250" height="30" as="geometry" />
        </mxCell>
        <mxCell id="juqxSS0tAxhvBvfeZQ4b-9" value="BD" style="shape=cylinder3;whiteSpace=wrap;html=1;boundedLbl=1;backgroundOutline=1;size=15;" vertex="1" parent="WIyWlLk6GJQsqaUBKTNV-1">
          <mxGeometry x="140" y="220" width="60" height="80" as="geometry" />
        </mxCell>
        <mxCell id="juqxSS0tAxhvBvfeZQ4b-12" value="" style="edgeStyle=orthogonalEdgeStyle;rounded=0;orthogonalLoop=1;jettySize=auto;html=1;" edge="1" parent="WIyWlLk6GJQsqaUBKTNV-1" source="juqxSS0tAxhvBvfeZQ4b-3" target="juqxSS0tAxhvBvfeZQ4b-11">
          <mxGeometry relative="1" as="geometry">
            <mxPoint x="650" y="210" as="targetPoint" />
            <mxPoint x="520" y="60" as="sourcePoint" />
          </mxGeometry>
        </mxCell>
        <mxCell id="juqxSS0tAxhvBvfeZQ4b-14" style="edgeStyle=orthogonalEdgeStyle;rounded=0;orthogonalLoop=1;jettySize=auto;html=1;" edge="1" parent="WIyWlLk6GJQsqaUBKTNV-1" source="juqxSS0tAxhvBvfeZQ4b-11" target="juqxSS0tAxhvBvfeZQ4b-9">
          <mxGeometry relative="1" as="geometry" />
        </mxCell>
        <mxCell id="juqxSS0tAxhvBvfeZQ4b-11" value="Back-End&amp;nbsp;" style="html=1;whiteSpace=wrap;shape=isoCube2;backgroundOutline=1;isoAngle=15;" vertex="1" parent="WIyWlLk6GJQsqaUBKTNV-1">
          <mxGeometry x="350" y="180" width="90" height="100" as="geometry" />
        </mxCell>
        <mxCell id="juqxSS0tAxhvBvfeZQ4b-21" value="" style="edgeStyle=orthogonalEdgeStyle;rounded=0;orthogonalLoop=1;jettySize=auto;html=1;" edge="1" parent="WIyWlLk6GJQsqaUBKTNV-1" source="juqxSS0tAxhvBvfeZQ4b-11" target="juqxSS0tAxhvBvfeZQ4b-20">
          <mxGeometry relative="1" as="geometry">
            <mxPoint x="690" y="250" as="targetPoint" />
            <mxPoint x="440" y="230" as="sourcePoint" />
          </mxGeometry>
        </mxCell>
        <mxCell id="juqxSS0tAxhvBvfeZQ4b-20" value="Front-End" style="swimlane;whiteSpace=wrap;html=1;" vertex="1" parent="WIyWlLk6GJQsqaUBKTNV-1">
          <mxGeometry x="295" y="320" width="200" height="200" as="geometry" />
        </mxCell>
        <mxCell id="juqxSS0tAxhvBvfeZQ4b-23" value="" style="shape=image;verticalLabelPosition=bottom;labelBackgroundColor=default;verticalAlign=top;aspect=fixed;imageAspect=0;image=data:image/webp,UklGRrTQAQBXRUJQVlA4IKjQAQCwFgidASp4BbwCPkkijkSioiEhKTRqqFAJCU2M1dvf7HeT1+MGnBTqp24G2nlCyFMO7KwTnGPixKQoZoc4D+F/8niN+bf3T0X/Q9/nu6G65/vfYJ/qnoDZrjg/oAf8vlE7Cx3pKY5+Pf5fzY/yXvScj9/Xxv8f/nv+L/iv3I+8f+r/8vDj43/q/tt+Wnwu+uf0P/k/z35cfJ3/qf/T/af674tfyj/T/+v/Qfv5/yPsX/kf9l/5H+I/0X/x/0H0W/83s7/x//m9Zn7hfuH/2fhe/8n7c/Cv+u/9L9r/hJ/qf/L//ft4+tR/2/VY82D/y/u58UH7j/ut/5vlX/Z3/56ln8n/837uesz5v/deAv5t9w/u/8X/pv+//kvmp/fv+ryzfC/5f/x/3Xql/Qfzn/P/yP+l/9H+f+Ev/V/svLv89/n//N/o/y6+Q78s/pH+0/w37v/5v5C5W/Z39f0Nfhb8p/6f9J6sP7XHW/zHrT4+f9j1Gv9F6NX+7/+/+J6//rz/6/7f3RP75/2f8aJp/7siDzkLptNemj0+HNM56lpuEctmwvfQZmO2Xc+jS35QG2NCcuod4VmwT7xwT1qHKF4+hWz/+nu9/a9gYXDRgbKVC85hEOAiDFXPS8CVW8Lc57goKxMmbsMmoLSyeTK5lCoEsDHK+Mas4x5+2E6EZoJ9GyUeEobyysmd/I27PMmqBWJg/4P5So+tFVBNDL9hIP2A3sEeIEatPQibjwPysRk7jZN3yJeX/dEF62DpKzPVRJ7ei5siMQYNoHZ9b6p9zQkqou7E6RkU0tgSQP+mtYNbP0V5MVcWkAj3vSPBhtrqJmSumDebdHsKAv4Qd4vRbP8R/RipmkhzJr/p05Zj8w5AOhnybzepgo9G0tUmw++pBqGZR18kuLeV9c0UUl7wCC39x6WeFRgigAyNJHVy5bNQt4leRShTjjVW38Fpdp5jJoway4mhN9fKZSfFKvKgfNK9LTSaY5EddKI4JjiWCInOqSSVUIhp+8EerRd4k4QH25z+zvsH7rw0YFtWUG654HCbR5VFCRRwCbP7uuCtu+rmZROj3Of4Wtq7wStGkUxj9By63JURa80Sn5bLoBmmdLtjFq1r6edhmERfr+JO1baxwAXQyoCAJioWKFpWMQmaVZY5jMHACLx3VhrHS1BsRe+7eEv+KCYImuQhCCaesh1vqXpwNhzCZ1NiMz/gTxZK1wsOYJx5ahA6Hhy31L06JwMVRxLp3Bub0ijbe6BZYskBL7jVYWDLL+pGbLrl3ly2/XB2W9RuX9U+1mXHQXAzi2GE0ZsbZ2GoVXA8sEwvgWV/PPprILMEA9c9dLsrrMuQP63DkSKQGzSfGv7SYvngBCVkU8oIgOPghB2U3oMfCdb8UU7++LkPopE0xQy7HXWWHHb4aP0ZyHS7duCYMCW4/9Nn8bBZFlkOYocbR9nYBl4tpuooItIh5SOCtOQhElpsRtd99lX5EHCXLdL144fxgQ4GWjNiUx+P18D36cpUvvhtCRk5JCIyMiyI8e4jtLW/VnDpVczlVyRaMw6SQ3h8xXebhceW1hCJSayyqxBUtCrxjUAEvf0jrjeWvilEX13Cbl5zeUSinHbGLLWaIAs+lDVT4AfcLlGC+rRngr6EhnATE4JgIk9T3ulreTJ09Cza4TIxmI73TfCQN0+PrRq+bQ0EEInsB1rxLfPu+2jJjTiUXnuE5rHbQest2p9a+lLm8ZoX0RPT5X86SxLRWWy9ZIfolIyUmDjLihWRkDhubzjLO3ILzUHZsw5vO1yfaVm/83j4q+Y4OHH9Kg81ELPFhBjld8azsDmoZEM90BELUjZLe1dlJU1vfeBwNTbqcGXdlmPRsH1pWh0jI50gpMomhQyhfiHh24hXIuevKpjw9OG0q2ogaZHl8PXsTnDioZLMPFnPuKqtR+sQyrWFxv3ZFWvHjoLZsgzpQwiw+LnWcNsewrM4hJrlFDDW5/4CtFTAnYFMMl+NBgPqJ4tctFPXL4NP6kvaPf7KkE9ARN2v4ZdNf0QTvALggUScWNu0Een1giIn/mIl4BGj0JKKX8w9VM5yXVqb/M+X7TocfuQKZXKXaIAhwYv2ApYBkkTI3ea4jhECno3642JQNebOGlTnY8pRHh4o7Xk1Eb4B/a77XOCWzfVtpZ2O7tFtuSHddGop/Tb61ZO6HXO6d/tSFHY9/I7K7p8xlksFh3KDHG4FtImsSN6TrL0hUQQGv4A6qYaH/ydgPnajTp0MuJoaAHhIzSua6pLN2UdIA6MOWL5suI2MxoDIc7jjry1ej9C/Uk2Rv+iczgWF4nMU13B3PUI+/boBTXu+I6QrA3OMKQ3hnRl9AOjesDAj0pqaILMT8vQ6MYwrVG9qeChqetgMeIVlKy3FO1S5MYUSp2A9Fje1asv31yPSlCuv6v7l7aM3YKRx6zvJJ5RpGZKMehF4/bnf7rPR5ZxhfeeifIHFoavLiGrZOK9P4HezUHzOt9uJksrc9kynJ/kJebHNpbEj7vroei0HN7gRqKpKSehSn4Wy9Ad9ov1RG9P1u7/cFCXDQNcbI5aY+8/it30vacGmi9N1CpvsJnVFJhXoZv1Gmf+emOK/h/Rk7fQIGC+l/CNZHobssUiWSs/N0g3D5QHavRjTOfhaYo9IuPbKuClcsuLACn/gkcdCD9ft9zUMmjcphHOoHEAszEd6dnFii5UDgCuA1kzepRxTwFZ5665TVKZWEuoPu0ePFgGzezFQBWq764P4Lc6CRr3zt+PUMKslY+76fmkV5ov2sviSd4dXS+VMgRulC0w3GPHAI/2xYsT8apPjzn5O1XVVFwagpk9c0XnPPauU/9Zr7ZxCCpedyQQBEqUqv75+FhpnXx47xehruqOsG9Pm447RkK7elnupMbySZkFNhsd4nylMgXKqPHVGgR7R6ExdU+SnYlEXq+M27Gb1QqETIm5qSx/WRO5F3F0rDn9hE7Ite2pQ5VrcE9HaOtORO1VSj8s1XO+0FV1HZLy9mFdicrqi835qArYXGoyZ1UKlyoAYosnopKcNph7DqOsXwVPW2K5WVkgkdqtBlsn9ljpJvIrmlcqC9G30jELagHi0Zm1sPU/7jQupi4rLE3ZDieHAE+ySuk/whXSWitwZkIjWI1jiJ5oeowNJ+6NWURYwbakXHq1XJcKZyBZF1XxNB9TdEaV6x6arib8MaKtvPsp86pWhO47OgPW3VgwIpJCl8WXM/KnC7pRL+H23ZJ1bXPfh3/JL6JJ/Sa9BMLBFjxeuILALl5GqfzLBNiI5b1psomP1+oIrqofBYKH280l2eGxjycxVyIRiY/tljML7+RavekPtnTFQuFZBhAm2qx23bcQYQYvnNmWoRUhtheqMob4wMs475NP6Vo88yARQXv6ORqC1+M/CXoNsIUo8BoN9RjV4bvL/s8BCCHynlgOjGEhhoALDaqEvs8grrbu+F4wzMyCk83zfkAkosMvnioiG+bGgPFa//nR0Z2w0Py7Vu6zgw+Qg/kb3MUKS0q1zPxYcrygRfumds9WINEBXAwbpxAoFImG9D860q0BI7S1ay+cYhSNb9hz29ctrRz0ACKL9NI31yaN+vWYGqe6e9s0VCI12sLXX/BqYAuAV47KQiW2jR0TjlBtgWj+DOBF1zlbaw/jCb65EVL6IHWHfqFUhnN0cXBH5dZ/ppihHNOz+02GThJKLO0+ltZPAJ5i4nJXMVm2t7wLFOmk873nw7MFRwxrSQdEI8Gib+QXvaXnCafQ39MmvQBG8SmVaqIfi+NT+ZHRSgYkOhChiSZHcyeKiVYgaoJc8xh4Hhj7Jb5ixtVGPi9lD4D2a6r6dOpVw/AIx2aXvZYMS6ZmEn76l7jVsg+e5nuqx50rKNM6mc6hPwrBGsV9Agdhus2lFaryfTRJ4gCdFifReG5ccEKbUm6uA0Fbzx4anN+NU7Huy+cn5VWWw868NOo6/m4U6NfBllRwo28VFL1nMefZqjy4c2yz4CK1UbiR2i45ezUGKrCrPgz+wAwC7TPLB5EfxMiJ1QIFGarySQMmojT3AfcQgfc4pQqmIY9uRAPLnq6lQ6rl3Y/VZGyAXrjoaJsr46OLXmdr/2pjb7i9gd7frUTp9GZ2TowVAEMKu9OPTUopK080AKoyGzrd7vmm4Aeekq0rCBYAPBUhy+3WkM2rMPlT0RwBZokVaXZudMKuTGk+HgTwktApGPyrrqS44JRTV7/+HRh0PK14Ntivsi5SA3saDfgDK67//6VkNX3yZV3WurPWS0vVTHUATbx2vaXjAwp+cqjDsTO4T0Yp1DCWNkUszfIwTQf5tr3bG4m5l0SGoz/+8FEwg+C/mvh+QvmBd4nVLXW85nps6lWxKOCHBVhHZytOgJ26Aj/XmL+R4ZzGBGfd2e/cD0avxo/WB3zqXymiYOyNvIlwD2IzIeI+ywlc+jhlX3EcN6HITHXJC7Zx2lX36ZSCr83vlLgwvjiWLU1nyBGmQIk4jolAa2tEILN28QgsaWxpLPD7bTJsSkYQY+Fbv2fvvGoI2phnGjBscAKQAqcmUOBcCDDB8QCl/LJQik7mQcz65YZ72KCoBlN8kqA0I8h4btDn5lQh/wmr1YO4sbNdBQd7FPu6tbEVscRno81pKWGJzwg2EZW5VOEgXIlCT7WvQ0xUyYvpQHkhuIPSk4mZfVKkDIGeQouOICQ7rOA2rxhm4OkgL2//YE1d55WfYqBcG+zLaN4N1dHsrRbwxkOQfQLAy54+p07cKRrN4X5G2ojiD3hrTuXkTK+ZP7wl6ppNMY7hCIjgpbfaJoRCCTrwjVmwcWqsBdzHKA07/6WQuNWKUBWA5yNLcaExLr2hwnVaqwEsDstQA7kUyw6WX8xuNW++fZ1tf1Fi03Ixqa8FxCNa+GFeuQkwU7NXdmBN9Af+Wp8cB52zyyIAV96W5JwLhGRnRHE2QLoRt65r24M9i5wBxig8swhh5eHvYTK/Vy+t49LA+IKTnCG03bA/ERCHT18ydJbGs+ajs++fB+1yCUyfTEdUi2tPCCJ78xhgzSGDNDcCtEJJzTjC6xc37mbJjOTvxQNeV/r+1GEbEHUpy4q5l/lUgJgsFCIgey8LCmg/lUYmWvTSr5rEYCPsPUsS+oee39nxWwBUKT+Phm6I/juCramGi1jY1qY8eBPmQcS5wJeG2A+ZrBSX9J/8P+LAQs89WZwaHstsERrwzMeSdsQg2fMpY9m+RrVwWEtAivW2ZgDJXPk9SgEEHhJCYsNrhx/Vhpv9tV7VR84ULL45wiSPzZk40iRs0dgf/KglHnhTFPg6+ZjJdrWg3fKTDxZVaLr9G7YXhoSx5os96U5xCrtWRokFIHCYaxo4/eEQq84+28kxe1jqW69D9n8Fx5p2nmwM/VTJJGRAzleMqOMKStVmiH7CpWPQG7K/YcoSC78a7syx8clu2amuhXtNOO1JvgxJG53/+qUiSIMcFLIiyPQHIn6REgjNHFWK2r1es8nggyS5/dwZz3Dm6FZbNHVO9vnbUnGg/MmN8chRUaycmAcKH6Ja323DIxSdC74ZE/zUap9mmELXKnLbXCKu5LoovbF1CVuDlJFK8YfyYI5qHNxU368sMgMxCQbGaOufDjuNYJ2MO9tJyhEIoYVby/PtiKoI1P2F+PnwYZWsLz5osgf+3txpp7GRRlt0fL6sBjxzbfULzC9DqAvAXEpdzfKaP9sirbKSmvvnUNFrQggro8fwAL7D4WgHiP/AtligbsbwgP0E/eLBl9sM31GgnCx4WjGNXCpMixS62JHt19GUzQ4Ge3ZDkZKXvAZlZ497gP+s85sDcsvmKd4kF1icyhmI6LebiULEUZiyTg9TSmddUYSGB0V9iLTdR1nNSXwSrvb4XOfFOa9diUJOxF/SVDgJYFaZaQ51/KgqsPak5pswmmtnpr9uxb+DkKGnOVUeYOefc3xeJr1Vd1g2sjbuF0w8w5YzIpLLt+sbmFpEs9ZjND+3H2ZKOOowXTbj/P4V8FlQoozriqOAARLkb3Pv5Cm87p1hvW19MrcsMMdPSlEu89O40DBE6HOg5PEhztoxkz3mOHPY4LCQzAqfKngGULvr8Ys7whwpSGa4HD5qxIl8OCKmm7eFA65ppZDpYw82/mEhA6ctB1TZ6US8lV5XMuJAXljTKmlEXZOBZ6o68JuowfZR2Odbx2dyo/85S9S3h8T0atQmcwF6lP6/DyLFqYpkQ/H4DWDdNAk0M50P6G7Rqr4X1EBMWsW5O17qjPsdiZPqfW7UzRywr5RaEUr05U3xPboOMZqMf8LRMqXpvwlwZKIHlQztK+7Sv/QOjOPYiddmU/f3r06uVyMIRRU8D11/sXOmYopkD/x/YIynYwYk27KWbsYb44Z/Cf1gCu6ZUKC3ig6jO3zXknEC8IibpkjCO1Q4XJ3bDKH9XiSbhO4X7UE5+4EeFafn0Y3lrxTnvR4tZHiOv3r4KFB19dqBFHdtC6WSfaGy/OJRW/ntlEeM4+7/8tLRaYNheiOKB8Od/0uZeNo4Isql9AI+HlR2MAR/Byj6qcN4q3TKj96tC6rU/1c/z2UgjGu7/EYESI6jbXamsg6pzsk3rod1SRCLPgeibs2YfuerPmMesII+bivOzdOLUiUkLtS9J1VpwK1QzYfP2Duth1M6H3NXUyvTosPgVZbd6dlg/TbUmYJv0O2cioIvz6mvHOsBgHqjcepxURSPel9587boe90/jFB+ff3Lm8zugHlrPngSeFcv/X4Cpy1zmrRW6pFBHjep86urixe/BxYX9tMcQ+PKdYEwy84E/07U1sp4D5w3nBjcUlCvEH+gQtQqP9cPn/M6EXw8qJWH6WTxq+ikyHbXlUlkLjPM4mVS8vXcBaCLeX6FbKepDpDy2i55a9v7zODQ5Lj8XcV3SFCvOcgQYW11ft0TKQwAu00CpT9D5O7xI7zXFw5TIfivoYmRrvYUJ1DS6T8iU+yMbAcyQQ7I51gq9aOW3zA9NZ5T1Cep+1/saU3gAZRRHRf0vJ3nBEWSuotqr2BLfwZvc/PbTUNbvchHrgcf5Noo3BEGljsewZI7AheFGpOwpl+L8xUxWnJu9rj/I2xsDSLmL9DIFwEmv6g2jJYBv2NkFHePUfCMQplwGht5pttikYYm243qJEjn32jB3a/bVLoheWa8Pl8+vrKw9r+dhjHZQ2GIsKZEnNRR0bwW+XXbnGXrdDKV6WmlGsmqj3LHbsNFQMCNvvC6z1RMknnOr2OSzD+oJ/lrBEmvwoOk+L1DNa6f4HI98ZOsM77K9aZOUhM7xd9P5WkmwGBkOjDbREQkE8m5olYz0+D/g19L78tNAVv6UopKsF5udkI/3JtF6j7mL7vPiX0EvWMcQwWePvMj7chzcTzujBu/Jb2bbwtYRxO+kUs+UBHQmnL0MNL96E6kp3sSCxW+TYVvcLP3ckabnkEiyXQnAVwgZivTHHLy0hWnyUVpZBSxL+Jw9zCwRjl0y4z3HApdZFZg3nMB/qp8XHhEKuSP3Hqai82rD2gEGFVhE4iMQfimRcqeATUuYMKYJJOVbHrNUYRv7Gto0SK4O4DJLLHY63pnkPqcS9iBCVFhkm8lFVqVV2S+ruLOqXh8YO7+pyc+5t5Rb0Sy2lCsGLPD05Rbd1u4ZfTHU232MO9HzTWStedvrvuSn5xBkqJzvw0sTSnh8ky023MBmkHz970TaDbE4GG+ZRir0rgMTFOXn/N+vXK33Z+BofKj/VHPBYNE0JuVqwubR5G8kSjl/9IxuRhOqFrtkup687bRR571VC6+kkeXptQv0wHktgieKSgRx02tKNLFhqrForLeGk9mUpwFC4+Zv/3VCo1+rNCTSuHdhZXHQMneIZOI8QuN8JS2e7SZ+JQB/4JX/ZKHFO0YSDK6YPnjV7vzr0aswK19wa297D5/oBknUytUIvCV5xEHNCffgVLqFZlCOtzIEtfw7Y/e8T/9+ATMK7PrmHW7u8u1FZO+qEa1rTx1MMW0313QJnz7nVcvGM74TLyEAdJ7Vq5PDP0Dam3SKpCTVin8va/3P6JfwtyyrXhmelw3P/qUWmJCb5E8fv6SOD8BeXwupPkA6FibQYMoNslW+inOCp2kJ9TfygotN6RIntK0Fhv5lVc3wVKvzFxkKeVHoWT8Q2ayASavIzF6HejZhFkhazVmQLBOZ1i5z2FnOP0+dBuCxQE75LMb/SrPBe6Vp1LDCqhPogkQ7dGhbPMDfTuvxK/WGkpw8zZd/fc/ezGFeFCLhkWWqmE6Bo7FkCcuZwNC9Y+lLWRe2GT0BRqwVGh9wrbruTw1Btjm+lN45bwPDykhKLrocf45Dj74rSD/6uJTF0JDJMnJcAOey0Nb7tB00jZRLKfSoePWtYO6RVdnoTZsMJpJa9b1xpMq/XltvgrXqemVBJJicf7Ut/oLfuoFeXQPIT6DEdj767l3sKk0vP38OKkQqLSGmDlvGZpfa/dJyHgjRP56aCP4lFhaE0i5U/p17815mxP6aEfjmeJaymYuvgt6F+IaMoTQ4ffG20hS6cgrsQTDIANr6w/Z/qUFJY7An5tR7shyc3Up3qgIGjfvyf6zbtl3n4BYZ3ppPTwHKFNERXDuAjCeU6hog4QycTTbo9fX9YatVWRZc7/JDGs1kfONrq8XNcF1TMS8yDLIS1SK5fLhH2jKd/WXoytlgFXtVs2FJiD1oNzIvvkZ6gRh1O71uFTNu7rtTR1KdQ+Kt3b919kE9cEBvkLfGZwb3Q3YeKK8m+yGQSlIHYioQVxhUVB/lg5WxanEuKiB09fSISSDO9GBblQdhV4vgisk1ukJy5OZZ9J9UZy0NDzZjODZdB1fDRTFCsCNRWEfAPLbLS8wGMNjFncJW2yPq2Nd3pG04w2zERis0+f4gNQzHxslxiQzzWdTLWcfW7AodOZdiVjwZcZo7OjkhxrGufr/C5wCOU9/EAMzJqOplzuHgJVtCE8h/GGpfbDL2h0Z2CXs3gx8rgZLasnuk9FRBSv1YLzYxGD/9Y8pj9mQxIcXMKi8R67kmvXJLzFcn4yMwq7iijUbXvd6VYNGs6CT5ksMEYgpm/we5o2gB6iYF25Cda/ccfx5w/pm7aw5BBB66wRs+7qmjnSHAheufYEtejYQ3UZD+5+kFDp+WNSBcCA8hHnDz2hyZy/HT5A9fz6W59xbn0YjkRAyVES2CxaXni0WnB/DTgRNObQGb405bfYzMUntwgV6MWe1XVDm84w/k6IQmtsnJuTliDcM5cU4y1ex369NHfwECCkvDrMfk6lyGPXsSO3NfocMnFuDMeiCORbpn3XsYE7XnZNa1a0sxIpHYtan2ofvaxIAKzoDbyqQHgAINdLPYJNcTdKFEG9BNu5wyVwqG/4X42KomQ+BnytLLetYyqcoaMX22+QV4KKwnSYvIRqVsUz4I/2t+5ozcZyQ5xnxnT0duX0w3kUrHFLcfbOC4BDLQ3EXMRM9h0Xm8NY68t1LurwtaNIgx2nujw0+2blBPcT3Ze9ij0hMcZ/QaDodC9Nse/eReTIbnM8BwPBJ8rhhfliPz6KIyQytJe1lMniJpXCYnpYdG0d1Ihvf3RSXpJlid4C5uBncbXe2MKl9T4E/1SD/l0TK28E6KmDwzTk4nwGbzhakEqWylHMso19D83LEA7NfrQn4JB/P/idCHyaP8BRxB42cE8h22vZcRNPFVzwAtB8H9+7O9FZhcR9KltQi1XHKPlYzHHhy8slLKr9KMTYtLt7IOfefUhZV2k2z7P+MzSPom36ulaT/1JRUXnZawLkwj25oz3WILlP61OGjIqqLG0Lrn4fRNjWX1aMHNI0fKUppJOLUHBo/kEHH2PgKKpSSQbtRT8Ibq3QhlnUM52S31wDnyLwFx9xp2yStaxLJxJEBaJFwQ+yDoVQ+7TlZaH57ce74eNl3SjSWMs8J2fD7md9yIQYCqTdrthNU4GS8y8ru411+Brtk3x1niKloTfm2/b1jhjZAmgUGNfqbsp1M934Jr+rpUpFOoiprV+NusnKzQD5rQ7F+QW1ys4l/gxCX5bJ+DOW0Y6R1zoL2V0WTV7JDdBJZxz2aOsd4nli1uU9X0UUYnpXcpwm8C2hiQytJhaQAdugD9cdycseKkvYODcKPIWW0VcPTjUD60+EQZSVYWORFP3KjfhuXazWD6PeRsYrpf+DsJ7WzGS+juVjNVEQp7lmHH1l2y7jBCm6AOJiTcazk4DMjXjH0j2IcVTkH77lCnuUMbReknzJMfq7xy78chdrdz58xt3eTciB1CmK8N6Q+YaJUO7rrn1M6Y8eWrOX0z8HYDXniHH18fXrK6EaAjdYRDltlGlEZ39CSEzA/VHe5IBqU/rzd/+gWgfvcDrUVuWAPgxiJlflOigoQfXv6knIA7QccUlF+mLpdK87jvy2jzG+P+1KAoFrtVoEsoIfEZEhP5iQrWaFJlOmCP27EqOOPQw5k8n6uPVw9JzwY8+xo4cTOm415bAkScEiGiuF3gKODlFdh/PAKJsDV5sQjro1sPiokvv9xgrbVbn//ORWXIfZi6SQBLTtgjK1k3ku35Z24XB8hDUn6tkqRq9YnuIzqoYAmGMaY7A9S+Xrw71W6ElzP/HraT65FSx3Pk0GQSqt9YYfPc73p8qARoZBlO+S6nA/7k8LqZ2Kj8CbkgynNPpzuu35lCm34c9FyH1AIK8yGyDqi9qIFd9l/WCAGOjHpHQH0MmZ8dqeJ7koDkcQiIdDz+i/ZTcAD85f5McJJPFth5XsQ21C8DEilSSrbU1gGcLvVyGVlaLopiQYef8gJqde4bJZi/xTyoWJ81Lh6/x4yleSIVueFuvDbUQ6OOL/myg8qkBE3qmvA1d8rzqGIacP60jyAygExli0gqs6hCkOJLfVPQrLtbdJZ5FQVLXumlmEI7oBROs2VC5Zz6UYNEv4RdOhL3e5PE6iad0lBfY7hzu2cGf4VcWMnsFlYpKD4FW7kOcAMRp5mydbyHXt/vy4RCr/XIr94Vka3/0mV+xjP/GGpQwafygkoPn4iSIRcJtiRinfLavZEhhFYXNHz154UVqOsn9LjM9plwTpuxUprpzRSbHq0UR7zhVInxmxDP5C6r/wu5UDe59FtzsVQnakJFTVcYMmsxTHSYJZJ8xGN49OKMPvUYizdaVGR1YNsYGESbSVtRbZZqIDpHFiOluOWCi8/vJN1p/fO7jcylQZQ2/UitC6n0D7ZCI2itB8xQ94DMaGJ2BiZ4VbKM/32OtjBimurlRm33muW6l9BUd2GFYfrQm6idVIaJFZB1bILQaGRDNjCIgLbIrKH64KR6NbkVtrywYhJM3iHAn5PWlSSW69HT6wmRr6p5yxxYTEKPA/iXCfN/WRYdptcbRlAtzW10BSnP6y/BpUfr1iu7OFExTTRTJxXzM6U2OekoQB958VJpCdMITNvGCgL1SoATmxV/D0axE548sKp65ZuxAE33N5DoZJBOo/AXUGM6GSw8qNSJbsgsX/E//6g3EBQrFX7QKdqVr9UnLj97YcqbDAZcqQaes1zof7lfvQC5ojhAIOlPv1zvy4mwMBZIbSsYupy7wq1m+NEAn6/sEb0VhfZPk8aQNrsS1pmi9wzX6us8cZINXoVHguJVZPnR0bVb16yfZof05DoJvxLJKD+Q+zG82FXqFYgVCJkP87fPXsEPOel/A7Tv/Mai3Y/FXw7h4MDQ4XQxZubgShsvfgZ/sz+7l/+FMWm13KKQw6FeIEIcvw43J9kqL5BFMfqBxNp46VQztqmqwtz7DOdQY/9EdTV+p8vizod6brQ9cHRj4RbIIKHJYR1jK6v9bN1bm5e0eNgxUHJAF7oDJ+d5/CvMTK2P70d4kC3SOCCMx5vkyUyGie1u70aXegP+HCfCq26U5GoYYbgI5BdwF66WE1PCnc/IP63E5Lsb9v1Xs/ftUQUWzOLCj0dd/FuZL/EcEET+JkTO4B9JwjolRzDKK/GIHdYWiffJFHG8yHzNCEjYSdEhtKJHexDkkpyoV0scI+eru9S8RTLwVsncZVgcQ+vd1N+dZ5zyPH3MG1/C9lYbNygVtFdy4ISjDZ++sICGF3hW9LRDofUlDRhe48+zbfN5VhnBIDFW8q7lokDSxxtlarSuid8e0T/I6sqXgDew7LTe8/DB3qdHkOjvo8BL92vudL2DGgyzDX0qUv//wzg1H9zP1+wcobwlIpD8wZESO5l7dAbIkDK3G3RPdAxxG9h0KNn8Nl8PKy6ZdyDcITwgV1j74Q6//BeXoZ0rWFoUgHM9qqh7rR55PuAaJt2FiQwAteon1NeEhqVg1caiqejCaYWu6OVf/oMNYSngjjZGqX+x5QprW4jYEW3xElM7NyA/qPQS88HVm7KzjL9ouQoFlcok09lnuGG9vLQqPWERfvRa2O7rU6PVl5zbQJc9UcxzVEjhwxbXggW1JpsxtGmDQ8FComgFQs6RFnS3i4raUfNg2o1UMYCsn3sp7u8bNdpMaXuVdA496dScom6fqzXvFiJeDDrR+KrhzH5MjrXEie/9e/dIb3rd7ze/hIQoXX6Swm0Ee3BGmV8G5QA0AEnK1VV0qOcVrtDJ2+nRWeyUaZDXXcoL5SRzzNQgjynySOCaiiAF3lQDDSv0QD/3hjD7eH4PR3WIWUlacKiZFVwmdNRLYQuKMWRNTvaL2O20vXp3w5hzM8GIiQ1TOYeIGcHbRRcybmaQpmgLNIM7VWI24BtQMV22FCaAHMQRHQRLw+qDsX03976ei0sTdWNRW5oIr8qcqhUQ4BlvKlptK0VHUYHtnX7yjA+yyqMmFA73cWZJMnWN/uoIWWwX4bVCi+/1ap6Wlk50vCGW7pvXyWVw3weARCfzv1dw/5mAdv1aHpXlBqfwLXeE25QhL24TnvOB9fLhjLhuh4yHawrfDpky9XCJJDQUL11uiW4vuXSYFS5DE7aCwiIsfYqaPgJIEKuwYuUajwaDYagLmGD7+sMs787iumOck/8SY5ElTBngQ7esInUngOX+XpKccpoYL3ZLvDA+EztqkOgEMhZwMQksaVEzMwQQnTh/qfe6J9sIfmT15DAnTBRW7VbrkeqS8H9h0XwCMN/Ic3bnUWgSyAUZPVHLFDKzcxG2LebfGpLZ5P4KnmjbuAUKjnn33Fh3D5kXQ9r0Jt9bIDlGbfCUsrJP0/wUe+zGUJjGq/n+oabHyB0+pvi5x6iGcONw+CvQ0o36LrTDeHZPITIC11o0A9dgKh/oSjelK/9jKdntqLABNT5nrKU995phx9N/gKq5XOM8r69bvsBxDdRfoh2/T63pdGi+pggBEjB0b9JEQWUOjUcAwW5drEpXkj0CRSEZyf0lVPn1dyjEaN/8PMJAjzIl7eYKH9rDdcjLtTbp4dDdtdocW9EBZfJBzg4LXZWkHkDTt/20z94QlkAsJQKX4CC6FrbMD2m6gWW0d7c51U+pe5nLlGrAFodwSzBQNhwDNLa5BXBmlif1RebYCaGytlH5gGTyZ2HNvayoJ9e/nQ/1/IRT0HkCqJ27CQmdv9wI/mjoJIutan3aVa+W2/+qzkhhpVaR9kOTTf/tE6fk0ZEQ+4YBwelb+9Q2F9gPSeliVwkqRXvKp7TOm9Cpk3nUgp0I22DVZEcz4ICSQ6GR2DxUtgipHFrygF06xmmRIFmQ/f1hXDS4q/8QTbqSLTsMKONQUgd7Ik8oPMWAX2WuasY/DKPK27t4KWs2LqcFAwivS6BDNJkALgv5IHXhTxfNcTDgXhxBdHltuZ1dMKh97niHroXgKXSfUpdF92O+nQGmuKJqiCBKO9nWBA9rAOnwebnyDd3XJgVW8Lp/2iqDyl92P3xxkoZOd1sxHXMbkzSJwSgJoNGKEJFdx8yvMRlTB+AndxPU/H2rEEWXbMqcCYalYTv/tX9kayQXII/Plfbh++9mAPvFt8agvgFk2+N5nJinCmmCO6kYjFzuAn+BjSHAJ+hGsVBSCr/EN0tvrW8FWV/xTbxQH2fboIrOhzHeDI/w1+VNwVUeBpAH5l2nJkB5tbzQEtdPeuZjUcSVkNVCdVSC6s4Qjh2TVY65kBPfENYcGLNqC6vszuD7AgCy3m7RdFHz8v++tk5n9b+LKB3u5lx5GA8nsO9JktZApNrsHAuv8ZIe7eieyv37gr4qK4Mw259nK/b5SJywi00sH/wWh7qHxlSoBLB5StXlCpBErx7iUZ5+qPTNNtv4FKtZ25iDFc9cA/GZs2lvSG+EN16F60WD4pfGRhdfwr+AKKVqDBCZPFl9X/2BSkfzDa+TiqBJ+PfKo1vDjYPptHVTC/R6DiCos3A+HrTkOesbZU653Q45Im/oMxlWxj1k67GKSoh6SupYfbqQPo2W6xqv9YYuUCadKOTGsK6NgXS51KVITPHV8HXVyHZ6KkBNO7+jlKoQtVSdI3pcSY+lz9PfXoeeUE5Yqs+TjljspJBJqyGai/f1q7uhWL605oh0nTjCXuiP35p/im1/phU7XUX/J/etXBUOuwLf6+raVukpbwPM8JiP1Eip92x4SFetE7xd7+Ic42rHex3bUcj0wK7M+skeJ/hvNE8ed/PraFt6MeeVoM3CzmatBmg5kaXN6Q4B/T/VejnUOW8lBq8WHEVO7C0rldq2IUzp+9oUZgoxkSZMPVqkeL5/C7t1sXsw3aH2myq4qupuSQQcGzBBy8Y2huSaO1aHBCq4BPBMy2enGGaD0rKnhQczox6VRsK2lLdBZA0fkJbap9TDb1ZVEy7Kc6s9ScRfGa5bKPJ4YMhA86YfHBMCKfuC4WpJ/W7LklH/P4VTWzOLbPvnmkfKkKOrfPu+lZJu/24RalA5ADQELpTwHCkGI4gYbwqtC9H3ytqYwahiciHPpUSugFvNcIYRl4+andjAqaOyeSPetbfb7ooWNSXhAYBB+y4djsRT54le+1t8dh57GZioVYe0n0hCzTnK1R66Y0JmWKGV5SEfx3F6ziw981ve6gfCpIxSeWjATTESO22HwcEu+ZIjUref3fuCdTrZxbyQTTnKlSXNsmVBqkGzJV9O2Nm7D5wuMaHgnBrfbQg2gBiacNwbpu1AZAJRsjVkifX83g2vniS1BOZozrnI0hckQ2WMV1X+L98uAsWdiDiHSFkEKip6pY08EFI7jc9KZjV0weVpeYoGOazQFmN6PY9/hX7nOx+Lvc33NTUAvECvlHm+0CrxYqz8iie0LtxYL5dMEgP0+WkVCo8uOqmtUiDREYIPkFk889FdP2jyuzFh8RHdljXkK/a+YvRnlueJKH3/f5xN/z8QftAzrWNXFvoDa0CytmyfgE9r2sgQ9Ei+X0CsClsl56QZt4gdXYBa3p/jYh39e8iXz2YwDHxK8WfMnxHiUhmeDCxcZr4FfU4BL3hPUV1Y2AV4JkA6E30gPKHHdSMHKsC6LU5C8lZAs893JpblZ1rFuz2yHp009RRXHAP4UJylPQfyo1ZCMVZvePbz/nssrB/d2IQVQ7kZEkwGhAhxUo508cgh2seH98JUYxHsFfrOnifci0tmG4Wejc+78D3UQXVhKKvnIFviJwkmNvrzgNd+OLSHzToax65YpzuihsCJyEPxOlM3GjEEL7xfRQIdsXQHjB1b3tw7Z0qCXZEQCElAcnpsDFjOBB1U7RjV/eVp7G4hDtebqZU/truL3UhkYzZgKtK46HSMqrRIjZeG7S8N4dsULgEYSnc+Rzq+0HO5e3HqbafCN5MDgh8w+ETHTEcZvhMhmoqLwgIMrHRyGNesoYXIQyxQKs86MSsvvfhc3N8GLi3Wdl11vrXAsFmjZ3opFfcjwqqDt2UFEiQyO++tihdtdmCApwksjT1oUPF1hMK9bttFs0pVXcUOTQfiR+WruMh90CI9W5JnbL8eMC0P/e20Qcxe6ZIznMYcNnEqmh2/zdWL3zYs6stfWgtFScQXdemE98d7ncTLAh2dcm3THWHjQlndHUpJz7eXBRqVo/fmCaGZqV6YiuVZFhPAKSeLzww9c4RoRMm7Br/c/IO8GrSoSqqTTrwbeKKaz3K5oA0SenG3i3sizIYAoZX6wv6gN1Zrvpv7Jp7Ufp0k2Ip1D7OA3RBy37sN4F1H0qrbop6j4r8NqF3PcZxrUtyru2l2I0wDr/OYGCsiWwmswkVz0Got+mlHBPD6pOOF36iaNYXa5DC+xzVElj6QlG7amXL7NKTIp5ssy9SGrpebHg1XGZ3FHGI/WtmWT2zSZeN7xKla77Y44HDla8aGGrVUrxfMHwlzx5LsEmc2B275vwS4VOapsUZQv+rUVcjjACe1ojkX/CsZ+1kfLZazWrVo1pjOtG2nfjSnL0uhXdLSE23mauHHQ/2UvF+5/nhhgLHgsklDeD61wGQjoNqDRawlnxqe++l2i1AC7FHk2QkfMu0TIegXf33nLk+pgfNYU3ZipClz6SMM3/sDsba2Zu5nBIplDZlxVoUEquFsO63lun32BJI6dKCEBd8AhfT/kpy+qczsydD8hDYXB3gvHCtw583qMKFLsgKP9rX/WVZiecZl/s5PgRbBNT7xYHqMaQ77CYGb3Isc1yxLQKpxUk9d5Gd/6zrqqkTwzp/9jNO6eIlMdTU7l3PWni6HQr/oOkVHIslViy2Ra9CkfcAoDA/d2eZME06T2Tt+qv/MTe1YMKOGsCDiYXlg1LFf1nJEcCJUiQMYAG5CcpFP6mtuX23Q1hCO7By35+wKy7QX5UK5Kds+Cr+T8QfJKc3E5Igq83sidPL01pZRs+SInQbeolgj/iKWymwN+bedYU1EF0ztpA0kLJY0xnL77MMw4k51m2C2UsiEAmsRl6DDdqATfSTER9X8wwYoelCWI2y1PQ+YgNZaetH/cYo2DDN0knTdKdDPc2a3DuwRHhKKWgWissLvgqyMiRTFcV+ZznxEE66ps5uGfj8k4rOu1Qee3z4HHwqR5Dw5nASsrEOO6DTeV7m9incbH+e7OjCulgeYgLYBUZrqq3vMxY4vA8gDITCtb2pK1lidOSsafgpMpiRcLK9risVKjCsDMylabRMSGe59NpY4e1jLXstrINbYa6Q6nRFSTe8BMmTQotxcPe6WMCiNZsUo/VxSEILUJOGH7PeMuHgRbWc6fi6jLAvabJ5wMGYc568BSSY+kmh+/VQ3wwP63AKEFyO0VtaQkgPD1wBl2zdeFZUleEvtgmWFlJp5YkyKSZyhJ2pCeAaLvMm6AMKT3ptXnpfX8P9SKNh56cVM6jydGAcc7PSbx+Stq+2CChdZNuu3O/nrAkvc3zdtjzrWjtWeRe5QZV0olqtDMu18mZMMTK0kQ7iY6scm466JqUFdWxAiP4VuHUjm7lmplx8IDt2TLXzo0dqLAtcN5hxvcPXK/yfl11eiuvuv+WlVnAto83GuNWLrrBrCgDOLe2IODumdtyz0qdNcYUClhm3gcfAHIX8nKP+U4gm1FBjVf7D5EwvjEI1YwseZC4ilthwqlLQqPdqpuwBeVckfFLxHOMtvYbjZAJeKrc6RbJ2i9EHGRh8tWUKCWUmyztIbqB8cUZ7U9s96o2Gkx1KyejZx67pFFJDNJYonb1+3a9xqjMY5dGU5VdQqVZ9/3t8pAWqjhdYbER+aFlmpR/e2aOQSd9stPLs8XC1eyKTMKyarxnV+JiyKX2n6q2AXRMsduLkGLbLaIBlL23qyjyofptnXz+AZZc1IaznZ2RvpoBTIYKtSCe8wnRQIIC2gA//ClO+74lqqBOOTKQ3gYNDZ57O0lV65ih0sSz1xhGQ3lNZr2thmh7a185D0XAXfYoFM92n9+LFK7m3VjOewXfNENi5plMcHLEZZT1l4YUviMzaxt5UOq/8O+U5HbqGe0y8zIXEZlfWviW+hqjgbCZlRjTDSbY8TDk9Vj84nvQl9VVDSvV47QrbbqicUcXZPMxpeq03q/kU0T/pF0udBsqQgsbs2CM/mhhRHXJs25b8GAjxEpgRccj7ZzS9QcYVx6XBnKmMXRZPoszdonrCq31OB3HU7p8IcpC4Q7ss0FonKmofYtSohZxBkZ1sXaWwVoo8Ath+JewrZwuBpMNDfyP6K3kcrCpVV0kriendxy/oaXxCajRCDbYCElc/MyV5BOiaqyi7iVkizrw6T+d0BKvxkLxDrjuPSoHBaDd7bp4oY/9G4SLCSQvIRIAOIUCZ6S8HuzizS35+I7n/8ETjj0joZdbPxDjuYT+n/2lesopXNzQDGLhZjbhnnb2sbbhWS9ptCgLVsWfLSurizNNgtI5HikZafWwq17tmFJYyzo5ZCokD7DffXhIebIkuF4lUOcQ4to/wB8qEMOJSisE1mVB9QBQT9H1UBl26KY5o2ftrJiMFhHHTmA5/AhUrxcQ3KH7CbUQAAtFHuma59x8eslU7USXEhywG9C8NY94ExbL29xfhAkjQoNG7W3pw+PCJJ6R8KRI0w/Bagf4BO1AQURNMAS+XQjkoUEdig2EqYp6OBU25k8CsFzpEshfkiOnsICFJk7m0Y3aXGz8DEjaNMd/17Ll13EeAasZHFhGGQxyobi/h6/qtmTUbYMdh0yJoiApw2jM1lMP4OkV1+GovmhiYo2KVxjSdYfF1V7HGihWoNvVWtsJFSzah13NJCw7GF/JAQCaIob1bta3iATsx2uhDRALxxkrnv7PGYYwapcWnFR1nBIRhbAvjvA/4xQsl9yHXlx32XMFpib/Vlaq2jPNYpgljRnJldMupDDum/Ek21YYX+s9I/l8JJb4tFT7WkfalE7Y44DQ7ojUrG0g9AMLxVxl65TBsUBcOsvTn6V6LbxPrcPtj+COW1dRyOfRBoOVYIPOBpNktzwOgljWP9zVHwCuDwCr/Unp3YyA8xadxJjtRSle/jUBLfWW//oN6xeDqHoNkJYSYvUK8w5wwLtVSX+Oit/LZuK1dmD9tDQuMcFMTzfrzlGbp7wDLlNVrI3T6AFMwiRn9Drn223EyLqarQM9GMhU/WoBeD2bENquZ1HUXa3L/eZr3B1tLffc2g6XIYYdWiMqPfuGkbHcXrC3jJJeZ8w5P1TSK//AfPBpn2Mbe0AL0PAWEMrE8vjs9IBkon2f1AsFFoxQKzjOh+9XzBjBikcW8iLB7oLKk0Quef0QWQaXIYptkaEXcWxgms1yntEaOwVA32QM3YvCFZjL7P00tSxUrTGNXXTosxnXwHC5RHAZ5hFa9UVz5Gzmeg5kP3uzj9CdZ01gRr/UqsK99wm0XukE3Xn9DZnmbf36tjhdrhtAs77RcIw9bkkohok4dmE3DhR2UxZyE7Ljd5GwqczfG7yHAHcp63tscu72fB9o5ZyR6OxEh6Bv+f4dLMqDBkmbhJvQeMYYoLOyzsHszfgD3tvVCXsqyhfU0AnhxTSiSvQCveCNEMbiFCUNleDS8ZW4CG0ZMRSK+30M/wRB/zM3CRkuZwygQWz8kAYhGA7rya3JG732VP5VUtlgAbckXTIolukTb8G9jNHDfrZu1mPUdPtValw6aeWznkaGxRyTBPpXd4ubfzzedKc89oDaF4GroYPuXGiJJ+NkHa4fA5VNBiA2TXXOMjJXMneh4hC3hm1R9sV8DGur6N46PlcVwooOj39v7w1WNoAYTQNt/xJKogdnF4vZGfPqhDXUKeZhyo+8tQQgve6g7QsidwODGSbYiDi1Bm5nAO2YFNbMTOttwVXNmaGOezEb6zfEy3pUS6nBZFy/R2ZL9GVZJIADvNLxA4+/295zpYW5SYDr4AJ8TIQk+KUolfBXBz8xoTyD4WgrFs4H5e3jw3u0L4rQ5YnN1sNinnqk2xbCvONaLSPgKfekLx/Tqw2We6/y0dj7HvC61MKDZYmRuRVukBPxJVMRelMTo2QT6lz68f4b5cwxRX4t9W748OtcI38UoyREMTxtdvRF2wJd/1jFf3W002ATBeyzyTIl/MlqYVe3wE/np+hu7l4HoBiDjnNL8AtmqfsDOqzO3AsPaY/JjBqvaCqeaP8D9Jj4DKP3R8HiT0mqOIlBZWHv4NIlL45N/KpTjlDamzAmGNsqS2IcY6+3TLaBxdIQ2wyyj0aNxjZhVqB7F5GdhXFWCbIG7UMzZ0o+SrOaY/nqObou+3LLCwj97FpUtIRTXaEQR5++JtVVDf1EFjYOkddNhzCuZF7kqBh+MODxwntFU3aj5mYYzgQ3I5SWFBkrqFPDrEhr3Di4hYtS5d54kGpQWmSIep1p5rSCjzUvxngQuKY/8oNUAAyJ80+Q8CW87+w3QSE0hQM2indoNtXzz7/hP5YmcPKHaDSUwpraCDJcxl+C8l6VEN9qyD5flYILaO/Fhnu+W7qRUSI4dYdfVi2W/le46UQL3Q2D9x6pUs5tD9slIQtjwS+CGKvX/3G1OQOcIPAhBhwOkQROUO7pG2fKRCV2zAaZCjsUtNN8Vj/0lpPt9gd07cU/9iIF23uohCao79Yn9Aqf9Xh8udsfdReig9UKIYjvQPyi33jx1cPH86qb+X/XCspPqwovT3/+q/ev0NSqpabwakMlhkkds2iynTD8Hpq9Gdls8tmlyTe7B2u2ZhIW2d263jZdaUpiROoejqf4UgR8iM74f9BsEiTN+CD/gmLyJT9wAWTefbLEK150JwXgyOLVr8pHFz6rfmaK4NMpZCoFzbUEBCuLO3kOq1lblcCCY9JgyTAw36XTvjLY2cxOjZvlEWs7vOf4pmgYSpHEnjycZek0X2pF+epQTxPe4LBdyTV1TNsq+hS6gzKVKZhVHOkLA6WD9/mGiP7g3lhC1qza+J4i7McnxLq2cYzbDhetnPBXQ7hwhlMVMQjfB8GSeXTVXVHaGysJvf/NT+wbY409nH98JrhzF2jBU4IMgCqFRZC094kck71BA42jnl9jokVo76YcCgF3rz7kFEBEtIVuzm3n2vuFbT5qh9a1AaCb2km88C6RznVrkNo1VfRkBF7CiY/g7dVZQahibKNW9175LGdBFbMO/aJD0KoD1WsrUL2GNrIbSIHsvmglJ5B2qBUctOOByutUhbzRwqiwVCD2Wz7fVPdvv2ncAQoBd2AkvuU3angLFgkdwfuZOzcXw64pXVCzMtCZrX9mWVB/EoKdc0+/2seiujIkiKW0+mmCKvL/D9fh2oCrqy/PMWniHkb/pz1rLPbFOwerHEpIeBRl/yEya/smyY4jzP5Br+nmHkYUK89CuAleQSbqM6mmI4QiLX//y6wbZ+vGkxz6/R05Mk+5MQQR6GTYXSiCo5ktdWdLuBj8BvuDw2kqZw+8OUTizPZyK8Jf8oSklGGgguLJ1xG0pep6482HcEPVOuhiRosNZtVD3h0+eZq9F+0cUBoCLnDnJF2V5oPzVRmnjOKmFPU79UX+BQdEv0mjCeRSnJdUl0iF3Uby/WYF23BtgxkaDvGpSOZHtVA/lSsECHECIAIhoMYToaR1kVHA5oYXq+6nCbG4R9GhptRjvMDdPDRAvsQXNKhhg9LfZ50Byvr1yZ6ZbNtQ1BFvP1USYu6SZAi5X/afCLH7kT799PZz5HheC4Fg/4mY8ULL3l3las5dFD82kOA88MBDP8Xfpf+l3x9AVH9RhRnrYevhOD0LrFZWrITRsCgNynObDr10zDSK8gXKbGSoG9OZOKwqk6QNPrhCeWthNUXSS+JunhqHzFyCn76DEuHrPNlBN8UN3/PwkkygQ7iR1naAgdXoquWSTqJqw0TSKx0EwPgHpsoKHZT0HrfZA8JGCsRriie2dLR1QaYQvZV0TlDNr4m/6EWa4MsvYZ6Oduf/MRL7SjhZ0rAeeM2QByWWlDZpuiALFSt8UTPjU0l9xeMV8Pymk2srKNiteoLXMN5O+92R031A/pDRH9YeFiFYmLIfD76GO7A6R1uM3tJ6wq5GwFbk2TZNMDR+Y4GjxKy96JPdLOP5eQJSmFXxl6a1hNxU3+qCTufQRgWAqBlhmsjfVSQCzr2grqLcsAi3xBu9k8vDNjm5FrQSlf///nWKaXIQmRZ9B1u1QbkIY7WXmwLnb+lpVuTWTfEZoLyemyUPB82vKqITBap37qUcKyReIWs6/ksF+9QS0/twLjC0TitjKzf8H77K7fKDGL3YfLnPRn8Ctecn2Ty7HS/9+fZVX7LfBPDeRakFyQm0MgBHofGGUudLpEgiXp9Iq0SnUougZtWdEn1yUQoJFizOGBeOC8BYjGrDLiAAD+9r0Dq4Lb2bGPj/fJYT/yyL5cf1pxFj/xU4vi/2KSRtlY/PM490nTN/KpbV34OfujwJzw8PWclXo75S9flvn0IFa5WF09zypXavzzuMhaxODiFKBxTe82lrdtT8SqLjh2orkIEQuOK+aS9eMPAnyr5j3Dtf4NpijhY5b+pEnaMqyHpUch9PwDOmbnziBnBh+MF7WCNTE0+jY5OqiHFyaGtNVpJfdiL+OQWWVM3pZqDbGCqhnJf8AH6C6CzWNAu0SxflwYwiXJKSNlJck6/x2blz+hRkFgpao6KeJImqrv9HiVf8JTQa/2i32DDkfcNBgiPW8tCf/lDSpzF+8YlK2K+GlSKTQQhiIJTA4O+daYEhEdH3Yq5fE/+wTpInC1suElydstW8tO5AwSDMV0l2xtGDOB+6NydQIZd8U1VC0xbeVQ54KuQuikulCU7d3y06VPr73RMNPq8CgfKE6d400jqKKVXs4qyPG87+8WBptVN/3iiAXTiVhFLL6idI/yTOaIDfiSn2oUyyiLo4kyl1B4MW3Hahbc45O1KQg1cBDhCo1Qg9mV3wQkw373jEA4xr3NgTfsZhaN5efjnU4lZd0b2ay0MomLvrJw6i5vkqYje/DkRTrCAxUDTZhe41EU6Ex0FMpEABeUdYXNPhBVfkFGQ60oOSFsrLjfKEA1Z+1lggjZfjAW7KIryKr5E7vxTJaSOJ2plYQsgMT3njQ2vSAKLGuaOEmQZwGS9qTZ550O3X9o5iG61WPVVJ5c3HUJCmgdg7+TdXhm80lxwazfAB8BH7LeQd84Bwj+dj88Bq+36EcjSMbjMZacmWiTcCpaI+io6dEbmRWlPpo4cTORl4wTMW1CSGiuLF6zk4zXT3SNBbIDc7sOs3D8loiLeH6wRkLEbWbbDNsuUw2uPF3/378ipFdHvhulIMBCrft+g7q94vjk3g1mtUi2XLWY2+CcHxHfKgLKm5phYaUeHCbxDKEag7WUUe2AwksWmy+gSWXJS/nL9SUjLRyU5NqcD+6XNaoCLFU7P+hIuluug/9YttvVWVc42vE1fdNTF0XMA7zsh587hyypfpAURX1yAaKozjd4m5fPD0byIst4fzaoELzq6+K7P/veNnv3ArcuNGyH2ZSe3bPe8Wmr5f39BYqnKlVa0+ScW552+pBw01O5lQr0/8VPVGh7FlDddQNdiA0xK9bZE4Cpqb+0kb966GYR2XnQJztkuC6eZsqStFlbTIvFDZb8oOk9cNbFFbYhuo3tqrNhfBuhOsamhK9LbYK6l2znTLUwvJh9jh9LTMw8rPpe65gy/FRBrnrQQCz0UstmtqfoVODJQ/tTo6EKw8I1/fgznYWSv/gPHHd0OKoQPXSeRr8VKfEV7FC5OKNn4/GEwrAd8e4CJakDsZFJsP/dSZtrTRdjCsDorA1cc/EW3tO8nwGqskxWZRtw3lVWBL5LLtPwGqKggU38iZC9I5uzwR0omXN8zccWxQWqWEOjpBiZq6JaEVXLnnuexrjiQEI+0RQPwp9YXkQkOYL6ocQ/uFvpHHJ9IqH5IRacWu1JV8J0SZ29gEHEUPYsFpQlGSzFZLRW7dVz6sWELIw4sPJjidi25yMVlvqBT492O0y4Zgl2uIwGejzEj1S43Xs5vFBj5sm8Y6ccIw4QfXRMNPjWRFryoP3/pme5wggDit9DWMweGGtIMT42i3lN6LoYxJ0mFbD3FwiXVDCN+XdIY6h5WZBkAtu4UDQ+t3PicuMuapiyfw/dKnAEGjiWfJMoeKOfdaAc1ZJp6EBuaUZdSBOxbCObsO5iachrh7Al6kmMPhlDMLwnCRMeVBbDgEmbQ1yAgEo/CLmPX82k7G9A96KU2wmoILsuHOd3+lPCf0sf17uJiMkBN6fvF2XvDXsHtr4sbC00TI+0nOangUi9ntCi0KhfZWHXAhWR9bK0AlJuUDVpIisZ97nLEX6x5gT2Wo8ncAVwEPI3zcW9Ui+p/XAIYvcg4xJEwieiX5mZ99T/EEW5CmQJaanQdScM+7ZsHELTielr92at/wwriV3j9/v1FJuUAWQYwQI5vn7gCFfmFF76SSDkIfagwuUsuZgY9BUXOJbun+pGS9hbsnO4ycfY8Okngc9r1lwEYD9piZuYv/zbM5Y6/OODREi2R5YETJNPeFD5XgyHCJSXJ8JYDTjX8PJN1ZFAgbWBVFB/nIJmnz89ob7CStarRAABMFFJzJVzouLEYAYEjv8iCNcag44ES31gEY5Lczw6NhJ/aZ0VlB/ReyGQ/vJ+Gwj10oqTiUFjX4r7UyuJpKdXi1iXGdowBkJKosDQp6ZAaHPScfdK1TgXwJ5VzKWmcffuYvM/LNKAlkekQ51AExzK3QG83lZQe3H/LP/1JPdUoWzZNnjqQRpZr9qmdw2CH1avdpTXg3vSNG3s/3ZOwLXIXVm6Gf/2+MVtP4vP/f1ud9eMqVIWnRwVopmZD9MKURQr1iT3UqlLA9s1s2nTrhThuDJS4mp8m/+JibX571/5Jo3kpcqYR6zVPZvlF9cEe6nbGZoUHrnZ/nxjEqxhZLOji8vXSSfx7/eJtQdUo+5+vlF/OukSuq3r04GwPJ+r6ges73dvKFe9fi1omci9MmcXVmnQMqeVGJe9ubShPmFVMs/qdAbLeR3re+RL4N/dG9MHyoP3b6PPYZgg7mwL3x2WoEoKINCHV9pAzQF+SBQA6hTYcWIAhPyKPR+KlXcWe+GBtwFqQW2BopM1ScIpF0c6VdCmG0K3aRKczk/RAr2fTUfgnXB8Y46b4SSR78lYLGz5edNx2q55F0bbyawHhPqNyO9umUx3ZXh9Ph0QCxJ392wLNVXNsNAWi+wqxoaIfELpFFt5jyKKS1oKdHGf/ytIcf8TMNkDw7cj6ngTW+nn3I0Bvasuyue+9sHRThEdyVJ3//lIzVx0DzrWBixpN53MWKq44f3DL/+5Zhh4cCT7OXq5wYy9j/hAUq/CaQ8oFV30jStMxIflTE9CgYJQiovItCC0nywbiKPlnSgVwirUb7KDz+U19KM2H6uOR4N3DgPR6QT+Z7RAjS2RqWrXJsgF9rEQQevZSroL5BeBIlqtdNE5WAQr6fjL/1dpDaWzAsb3lYALU6oTrbFx8iTpoyxF4qa7wZpL8AbIwlE3jZxACanKF0AAnENcGNzsIJJkshK7sSrrXaeuk77Nnxr0dMZWxFr68XtkLnA89IwJjvR5WnYeS5YmeG3bu2nU84fD0Cqfh+RSARjyUih71YMr/kCWYtWnRO0X0ItQnbG1XpeIh2GTSOsH+BRdOwI9gr0+RfeCKN2Cr6sGZlvVByFggVuwXboszbrmpzGZjWt36QyWsYx27EWwD/U/8myBQ5jEeS2yNqAySx30MVQQMFXzB0lt/8rF7AIPdyKgIDa6xgPBuDL3djEqEEJEDIpHiZS9btZu2EV0faml1/B5DDq/PouVF9BzDppTlP7A/9MzHDZN+vF4WXS9EwApWyEed4xySDPuPnqe/zb9nEe14VfrZWmfcRCDqDDez7zWY83hgWIs+BgJjP+Sb0DS+3TPBay8qTIEurB0vE1XHu5VpFlU+/w1U4VkcU3SUGkj75yTJ8SNkeSBNhTN9TmjVINCPVYDCx8SAGeujid9dRxq72TSmW3284jmcuAeV+AFrrYo9kZhzeZCv+NpykWJBfh4g4OgSUYHeI0EjXVzEec2BAWrATpSEo5eHMROF+VCHLIFwINdVzxEFf+IK8agNHDZflw5GIev6aWJxS2oTU89JoFO0yTeRj0huache6sMC3I8+b0fppj+dktTPWuAI1Y2LJdZnbtiKKvsxmWmgGOSHdWs2tlBatlw572m9waNFN5/Sl6gPqICmxyiLQgsRJbqa1+ENz+zDIK50+YYsNhwQybfCpnf/MteJObn+rlrDRTEwm+ayqQ1ZZBCEkHSiHOQxnw3bp7zvNdsSlQ4ItSckRa/i9aRAuVjmAQ9LIY1on0EW+LA6YM6vz9zGFj+lHM3pt7rDUmTmCNQNdLjugkWCehOPjEDEonTH3Hs16rskSCe5d+HLdF6/xaQ9LUslArDHQWq/0ZUeSIrdShzyB2i6az6PnjiklZBo7rN7mVjHqvDtdQBLBUZGGbK31StmXxrZ2usXOGa06RoimXvwu9UZdKbp5ywUB4QFTL3hHxYW0g8XHYDcCz2b1rVLS1iCOCOJNQfZee29KyDs5esgAETtWNTeyJqpr74wNFk79Bzfd47sMbtY0TtJipMAlWPLTSheQmd0reD0TyZfGrqcJmle/e3BCyV7fqAR2Ri+QSl4Z5VNZ5XCLitfL8Zn7H/kCNnYRwnJffuerjbqGnRf8qZzEAXTtmKU6GhR1Kit+QY7jRPHoDyx/NkuZGVZLfXKQP8V0Vp/Y7zPyobtAiHEj5PbJxIiAx0qXxgw9WvUfISmpCUY393f0axTED4uxwtKQa5dLYfnC6/wEvcipYi+g1ZAvFD+ETP321oykqZssPKnOMBFNo94uG7vrymujuYnahbF8TxUCzujt0uaUBdxRCpZLqpUv+mFKDeY01Lb79R0ICfJd7rZ+W4mU06JTv7DfgqS58fJmAA9tE+D7pBLhaA0vpZTWveB5B77PyNR14Hz85d5tte0bb/hNWBi9eRDfV+Au6MKhb0pMW1K3kgUvN9FOB5ZJsxWJTB72aAurdWAmnyqwrITgdBIhotfH/TsmrTLmIxJyITbbL+VOj25ijWYnWgLiUwlx37YceJ0Xd8eVJM74+Jw1GSQtHmC0MaFOpIWu6wgF+GdrOrJcjOoihjUdgGgQqhCxuV3ZIUkh1n5Za5z+Umi/OvY7oHphU7osC4AAx68fEjIYJpbVNYLCQOAAxe7UnKHD/VyAfjg4CAB6KTM8pD4pERCXkhAKJaJ1pI5w3enRI6QMsXA+Xe59JrDf9fQY/nGc20Ru10Qh/Be0WI3jhlUWDqFZWlV8A76VtHUTK0WglZwvL+LTMCKzHtDXSHek8ryQ1Wd/ddGMsRLbkAOJaHJf4AlSgh37dcxpRUVRTXV1FoI3yLgEeGqZUy+Re6nW7W4wwNwukhCgfTLN5yXhVpoHJnKL6It6/wRhyXXYsrWtyIAc14EB4v/GbW+BU82nL2azSfKtxCQnBNcjH0LWzCsHTXvTLVQ4So4SzGmmxbu7lZx/RRd6iakOJiOJOQQ+26KNygZ5o8KiJxtidk0JX8+Uis6de9scy3fzmKEANzlJ6gAw7wGPiN3WucQGgKNtSMVhRH/KKkqoax01TsbvpiyI1L2ZsXeDAZII1jVvRZN2F4xRiJ6As8ZVEd1fTWOAerDtvZaz+jFjrP5iZBN8tjx7B8A6qIx6uOMV6xR7jN4SLxwEcuUtITlAwatDauZP0aQCPk0+GA8o4hwsKCi4t0KN2D2WUvOlqP9R2kM0DBrZiHnohN5s4SEVdZjz0uSOziVj8SC75J4GCl4mIpXzF5uhCOgnKkmdOqWDFmXzqAAsLXdOaXr1DLBOLn0PhDxZ5kLGj7zMpz16j+TCig46HwW8gIQaCDwJsTBqKvFKXgn9DtosQoMQOzCq472KhmcdmxzbS1qtyG0iscvwWegCFdnZdfl7xdXgYFSb8Bw90BIKzK8Q2CbbFL/S2W51l17xfx9eZRn/bsiZQ9EXXUOypsN/njw6qjo2swGjmfl9CdRycXQiygWAIGYcSXX3Ys24rkz2NAlyh/nol8yOtDpG0rDSipKRM3RMt3VSv0Bl9VtYtrgLfee63GgKtB2XDORf6C9um3aUrUmdmJONQs25+X2rif6Y7/RoMiBDakmcUj9s1URHIZjbgUlByo6pfWIDPjS9O7ATljZdReckRN3rEIkIM4xYDTL+gje4yxLas0FiIRkLd8nNG3g+b9KumBu+W6XP70kKpyhdrJex//BuuCRtLMTP4CZuFrjTmGDpGaRteCUg6MGceF2GeLV6xeywo6OvK2qdDnuOJL+cD21d2Nj9MsfK+5Cczi7ocWyj461DyvVkoGT7+cvgp7zJtJs0X45B64Bb6TSXH4H8w3w9gHieMGh0Va5xJzi83USqsSlLmXXDeuds424nDypdjSWwjKUKBL/TpV8++zecjQuIYVRYXe8kXm3VUl38opl5H9Lt8zjuKtgm8NO7M/P/6rnHGnYCQS6977DIcroz8s+rqtBw7UDU1hIyps7dSX7r98Sti/kkKNutMNLPG/qybryTFX2yLMU7tlu9TNJ1Nr/JBJtCROUl7lvrRSR7CcnL3aMm509J/aRTbNuGwIGHXo5EYsazhuP9FlpjZM3IFuEFN0ivENiTFA0PHHEyup5cSSEwU/G3xwx1B/ddaUqeufYGkl1rVITZP/4CkIPN/EDq/Cle3oBI4Pz1M5nmCkQraKbg1/BGjYpoyD9uQ/d6Fi18hdvjx1nYPfAgtJjHGNXWdjWg6Cvs82qVK4XTnJ0YhDeKzWKFDAV0ZioPPBMsCMam5S9jL/Xw6ZpBaEIHvvN+jEOTBXd/AJpe3j0ip/Xyv2ByT3Y2bK0vrTukagP3EB8d2errRjlxgtg8lYOFKbjZ6jt4ixHpZfVw9U19a7mFnKYOc1YZKUICvwObQj5x240TTJMDzxMWPZ+UGnAfghfxV0C04i2SbrXso78b+V68xYpwBKKlVcQbGJhsNJQXirAR6DPlK5oEdZ5lN/rls3o7n8DygoJbZP2kDnuOYSTv63bLf/Vg5PfW9/Tjg08Vi9oauR5pgKiTM40WkcRCOSAcv8dfw+tSnkvuLNyNttCM1fpQP0jv3NWyYX4GX2UP9U7zAtslratEYHIV811cfTgGih59Ag8GPBPS1EcSnrnc2A0tMzNJkA3N+kP1MUUx2GLUnKkKxakG0zpipm9qqIhYzI0ZG0H3fAOlZWe6iW2vdmOF/fahHkyJFTGGJHsDl6uvGdTYUfhQuRT75A2t23m6IJnl4uCYY3Wa9DCHGisYahNcYjLoaAd28VKAJWNQfzBLbLXbzftUsuom52v4ymTS8rxZVY4WKdlfqQ8Y1ExskgQGV0dq+Yv+UAJTNOzHc+RaR2Izc+npv+dxozqP294thLU6Ua/EqwUs7ViWHsUWikPr9U+M7d1PN2hY0rb04pwLKSj+sqyNRZbZ0a2dlao6s7UfHpAPBWJdQvTpx5U7PY76I8xkiffDco4vc719qCrUnkGXEwFXPY2IXDVh6D1V8YNKyDJ7SkpHcbDd3mWRrVNAC8tcWNSqBrLEuCG4h2w/qGA37NhSFPpgl3xzm6A/+pQgdSiIrG5wjzwXhOrTyjnqDUpl/NqVw7OLxRnsBsPRCMMUNS0ssc34mxR2TMR8YNOf24ofliN9WfjuD5Zh2qqvXiVppfYTX3oYTzR9HfAtvV7NtwMrPhtccCTdkcmEkjNK92TFmiqFRFgDRSFRrHQ1cr8EuBEIg7vKg+mScZacRfh33LahNVtrpOAJeASTfd5pXAvCRO0yzPoJYRe5LtKtJnGOVFPrbuqv99p4TvqV8wGdfUHjASEYHEbkl8gJyGiyBIbeMI9YuW1IkiiAWPUmeBmIL+YVyi9Ex429Zjsjsi2idA1X7vxto1jLVcYPltKgXLKUWjM4aCbzqHYALuYDzi4JE1Uvl4C4x8ilPyp0BkpQFch+Y/pYEPyoaleOZ5p81X1EQgQElWH4zyjm+7HSOtdQxS+TJJR6MCy/LP2MGqMwYo1snl+954phQ7wGv9USJXJDHms39yXvXT4ONLZJRejU4PMC2dvYp/wipQgSB+H3LF1mF9mFuU9q8HC99qAhKfhzYPmlyckVxG8DoaJDjkhcjf4wjm0L5nOK8BvCJuuZFvnclcgykdND4yp6cDMpTk74foYBabZYFFUO2rEsPwrV2oTwR96yckttOwtrES1FR2EsOTuccN8ZK8RcN6BECpEY15Gf6igvW7QTbgF+cZFJLMNS4VTrBeVPASFIGQ8Sb9z3DPa3KXe/HZFEVA0ABaG3Caiwopxw9QYamfI8DCqkGEaX/nXJ8H0lWaC+yXg3kuBMgZAvttIr4L93WAO/kaziSSTC1v5r6JHGNOGfbUe5eBftVQOPc83O76XKgexaN32KA4rZiS0pls9dNxDg8mWjF0pmeOzLZTt2qriIjGCOvGxt8Os+7lTfAU9SLLv8bGFsaLwhO5vnM/QFjqGF4XAo8wppeCom68zE7WMriqt1P9JmuAlX6tia2a3yEpSi3gBf/sTbQTsrORkqPsdIgX/8DTCrYb2/aG3EgqAOluScwmf0rtEkZJx1oNeisIGxqIXoy8qJF5+rubXc/kE0yVglDbfFEeinCe3Ngrj/CNGA+P01ix6WmjqdJnlSP2Msvj8x35UoQ6JzC0RrzmhfOKxa8k9SZ9zbZP23u1APETQ+by/yCmEqFHXzpgWnpbRg28fHQpbPxlZ/aeXtMQp3sER75L5FcrJxpNxbiSX/K/T4hz43ash3trXb3FEcd8Lh9Tyu7GGFzYB5pifv22xEDMwPnT7u/z3Vj7MnsJDQ7RfPfsJvVAgVHp6SIgIwPO4/ROSoWgSeTnGoFO8psTaHu+jDLDANW+gw7CoQOKIWwtT6STjWDoq6rqNEqNmCk90gC2C7GLxzS36t3FaHvsrIj3tXXZiG4lEaFkoTQlw5goJwlKpfSohshXWdWFXOwBczfKQDuFkLSf12cErz0aczi8xTYg4GfoP5s7Whg1wNEP+wd+AjH+CLpczQTbsZ4WNr4iCQP1PKUFpQpF6HtBXtxkqf3c9BZguhGzK9cbCOChxUQSA9a7zQ+lEhxx6RGTHtTQ8neCKuLEO2gDCziKI7fSedNCQDauUpuQF3Xw2NyVkRzcdeaPf05IJauMS2aRmmWzss7J7BIhmlnpbzpJ0GWmRGwKM89DfPw1Nnd3weSZh3kvTQ7Te02Z2XKpMLoNM/l4F0eDrH/w6FNw+Fv/2PWzr0uMTbM4Q6livQpjAJYiQ4wJTzF4MsJ0fSHsOA2wzAz/guM5zJDQuzzCm06HjbCgVyaTi+A7ZjJL5bmpWP58r/uiwxEfz0o2g56l5TRhnz+UbLmgN2KgF+Wh9IB3FolKymVUzMW/0BZTNAQzdCEnQB0LHpu6z2f05YPZjXYhbek2XWKgAC3ypM/AWZDhhEZMTkyzE6+O0i0xHm9mpx6c5+TYTUKrbswEkYAOFudrTJsXuZGyJZeIMQeQA8s54b26KFO5jNcvhgjvCmQGmXcrZQjTHqVXbjmTWF/7uxU7+W+Q+t0oqpARKTqgzuOLIBpE2UeZpSkd9ujHTxXmY3o9yl5KSbabq9v8tWwYlZHWJ10E8QDGAWvxik7T07+e8ElVTb2+a+IQImxBjYLUH5xYRM+xqI6qW8zj1os8iUNP5SXll02GtvWumCZ0l0KoYcMlbYZO3XG7kh05esDteOT5o3V52CXYlRwcpXg5fSboLFn1k1CwTe+Du8lyhxXSh087FOord0WPbRerALb4OWOD70cOE9qoZ0PxzMuPCVPZG6+aPqdTkrGqbAR9i20wyKcLKPjIg3O6awADqZAp8EIiXO6+VM3dASDhVxArRs1V0DyC3ajgXFw3of9xTJQZMwBbMcxcN0Ct9QcW9F8vhJvUnyvl6OiMqjituSSTlxTYUp822PYMVCVFfFyZAGAiEqT9MozCiyy9yFmjQnpQ4egDLcI8Kt+yU1FyTlKMm8Nwk1zqVaBQ7R9rASccYvtNK7fQVTQil2JJyuDk8ZVmIkCNYcKRsXxSgT9mbkbbkkL2Dp+gsdD+HV1XiOyD5r5Au7j0JiMyCmFgzDfdVCXQHOnhBj6qSPnx+xnq8iHCefjqAfM6IyS8nhzAztiLuJERThAToDSGtEAt5I72tLuOQ7bCILCXYNwWYCEskknvsSx3eYNvl2jvveOhWmQKyjUhL2OFPwjeIPh0ICf/ZChbHuyddPxs0+CRgjp7bXfxNNRsaIYy0a/fyI8S/PtAkpX0U0mSk4Pi3U4v4uq67/cvhdnZOw2p6uv8lD51C0uaCcgoHVciXL/BbQtY1XUxW0IjEB4gpBTroP5KGvnYwKkNQVdvFozErNGDO2rFppuDI9vAPxx1vdxSh0rx4OAXm9+LkoO1yKQ8qpYfQO05in+tbSK13SPO1RN5HNANnspI3NO1TDAvVkNrHspGkoepzxjflBE6Vfm4q+yXCCGLupT+wuDhbR7Dp8nwipRhqWmolfokLdo2idrdVRqW++vL69jlQQSgNvqVf6aYTMxMC5XE2c44G4xNwiwzJfQ6Xm8gei11TV0cqd5c2fL9reHVWbm09WtMZFJdVnhdwkyRjBIQNHDQ0hFn0/T6LHAHPmHrtUcmBLN4KjZe9nPzSvCb0gISLNwc77XxaYPaliedtDmbEO5e2vH0IvgZbi9ZZyUkVY5bVuo3uer96Grj0hg0Rnwn40L4hJsNefkqyTVqxjuHi/XmXfswLjxQJY9FhvCW4rD3F/II0fUGjgId2Sy2btmxbmGA1i6A0E+WgDbrpWcG7iwdLqK1eqtMrNlUsTzm+Scjo1WJBDmuVtP/mnY3ZBYh0/LBkzZkg8HEBT0xYQp+TCTraR4boBRmSASVpGrPM5P7vL0UIbPujHeqErdkD6NO/CWiovWGPT0qTXsUa17m31hBVT/0lXdDVD0kD84JKarj35cZP2nM6vssZZVUIOJtvclZn0DP+5OtsY25no27TYDBZBytKv2y0iSr5wW8bfg3O+XbU1culGFNKxp4Jwua3JnP0t6BUXi7ph0jWHzjpI0OywptSoeD/zIyu1vTYwi5ten3Uyv42eCmCFvKCsjodqgsPRj5noKUtaoIyf9YlHV10vbYAxG68b1ZXB9M6sD3k+7geZzzuPLZY+jSlVC4X50VbVzZsXmcGhimQLkXV+RlTpLG97reXDBL2KCsCohQBomIsb/WRPMpZY+G+UzD/8Vn3e0R3XOcWGkY8RAbhfaA1XCnwyZZchMFch1EWN2OpbhOu9nBogy7kwizZpFCLt8kbtYgDSCj5v8tDNlxix7j19e7HjaN+UrGdijm1EWAF8ZIYJbEx20KWT6KsWlNy4GP4zmjUPsF5ZLQR+hnxtcK7FRfgAO2TSW33gMLMA/8MTlI7SXgydv3NMPDpb0tBwQy5Yz/LNvgvJ5xCLcNto4I5BvfhB1B4M08RLWTjVHPsd9LeU7bPOL+IIsCLVMSeHoTqP/MDm0aBUIASuFtdeqtA9aEZVaM1Gjz5W/n9MDsMgVpkVGqPMRTGPUTCSKKDFdR9zL/yzdeeGf6bBx6UpRsG0rpmz6Kg4LLjRTrH04P0dbjmgNOR4RAxEE1jeCcmRaECaE015AJ8jSv+I2c91/oPPuJ52xnDTpMce5NayYtMCOqWRSZ4krv0a1KKQRfhkOeck7VsUymBC+8fd+OkmC03SF4Lu6BeKoy3oAs735ouQcEH+3PU7xTBnJ+daPfT6o7ajLvDqtBl9+X6IF1qnFGL5J2OikS/3i1eiYY+j771WLQt62i8z6xa7IHzqZFdYEQS4NLUy1Bf2Tn2ZrjtLqehcammg8y1lQkK44zstr184FDLYRrb7gyQ7Wy0XpkB460zDnzk4O9NQnVHKyU4I3x1m28O7aCXOBCiLQAmLPmQKYyYEU/KPxVTzVTCCnz8dCtrMLC1zwiy4fQkV+5/FEM9Eo/+iM6IgbPnnzmp0pCldAWT2EGf/jX1Qp+SquYbAryLPIk+g9cMJfVO0Rhx+anZ1dg6t5PTNAcN4pLxG9s5appbgSFYos0sFl0MFVcTQ6hpKq/1Y41Kd0gy2qL6gm/cRIgymQfDAsa7IfRHU0Y9g205DDfn6FIAWIWwm2b0vTY8OgeJCYzLDen/Ob9a7WNB+DCKrWQHH2Jb+cWqEf078GfZ/zljsogHbGxCvJ2qXdPB71t+VNE7uvNwmUnF5Cwpol1aYwVBm5MrU9+TyuOhwsZjnfXLUuVrNbl8Djg2yaJzIyBrbI8xDbgTtnklpVe8LJbvC0+9/tMl37Ol1miSVMe6TsNVmL0wotORWoUctqhkFjgpaZrwaQ+YZG0yHHAnySpigbgu2ATC12YAqP6ZR/697v1iDTn94zcXGPmR4/5vlCIm7dJusnY5a1sYnQJDu51fec7Z74ngkjsh3EQ5cYZF9zRKQa0u5U98DUcqXlwnwsabg2vd5A4iZnM7BUB1Mh4A6okFhAw+hZqvOAx1lpz+YgD0eLH5KuH4s43w7hg64NgxgIrJ+yK0tr89yJsKG7z+RRbxADHVQSOs1AwQVel1v+8axB4T971JpvmehjzrCXT8rwtPVeWjMzYtbjVux+vpAD4SKUvtijfJU+kSGBikA/PCzUAnPSVpE+aWnDrb8oaCu0kuSVUv4ttdPxM8NY7FgIeXjW/TG9Sdama092udziVSspmca4Yufxc/VoPYv62Lsa4mZnKMsIj0WZSQIaL0wBKJQNRLSrDoZWlp4ZuSlJK5Nc8VxbPxs4gd9tcMP0rpYxQYeHmDYJAeHNeXKcYRM08RtBWHjJP04/ifPaWoevfmzBL6qdzlCZ6cxHa5CL7dPS+SnucAUeuwu/2dMCzZur0LYPn7RZ/gbernZ/fUtPdbqmorr4R/LHpbsMm7wgr8VJhmUaDbxvwszY+EGAvfDghgtc0F5AQeOKH6Oe1MTywENqkYsO2lEwWG5vUcYfV7oEd6Ah7rr8/+NrHdAwzGYrWowIlfzDgSjONf0TcRAlXVVzp5b4PwKjzIivF0cQ+orVNo6I3ukPuC4+mUsi8djtdF/1kuGfgNyLc5GjqxuYmV9U6WIaBVS1lLoZ/NLrUgBPJdVYbe4ALOOWfgZl4O0ef88oavaK2PxCF8efWFZAM7n2GtiNaXro5WVa2vUlxNV0CF3Wq1q1w8r4TKe7g+1WqwkfYqO1kmym9cN2+sHpO/twMq7H85gmLPiPSZqiRR8peXAghXaQ5nEup8PAi74xeaD1iLvx5j154OJgdtnHHAwbSacVt+iFBdFcE6IDoQBVAeiEFwXEU6sqw2Rymii0qDMIKGK8aIo4WZspmW/laoMNEBHs3evUqhQf1UX6AgwpotjA9Z3mBueTdADLM1lzLuNfvPnx7bwxWwCMtZUiF63m0jCaYbIN4E78a0TmxH/MXF/+v53gbdCnKjDkQWHIVcOZCbGqf+am0NI+K9sKmkh0qeVlfeqEcVyaIoIWpkdM3FmSiSvQMLk5irXrBiseEnMBaJR6en0TwqINRwbmfiBNLjUHIp4nkTYcLMnT9LUL8GZ8NjYCL6VnjI1enD+pn8nfysgbPhHXFeAYLGmLCE5eyE8IDzIfGsc1fukHPjHL/SlRnJZ5F5O94UzYRWUiMxIGo4F7V6u9sYHwrOO61As5Z+0roftypvdZ2wDt26POFVitDOVs5TvKjwYv/mGcM3S/vK5o9IROT1DLUQajdCt6s0LOFP9gGLM54QyATEiVZ8sClyEaPeKQz345LfUlHnOnn7PAYMdd3OxBk/D9+8lvHRD30Nnq+0F5XhLJidjcLOTipmvbGuW+X6uKgdHPR3Dzw0S6FQFYX8SwoDO5svQmqb0Z/0YQcgTMUS13qWXaIyflhGpJUBxcL8jwBNxcGVxaPru4+hO/9VSnW5O3HwrkC1oeLqqC+uhgPALtpW3nLa77pfvLt1ybmoi9iXUuiPxHdfKqzjhc3G7oXJb8pBpA9QtaUQXxWSgm6VbQzpAoxyjEUnJbxP9dVgAoVLLiIcnXUJXGFNp/PMbn6L/0jYUqEE+u+qAPCfHCuIDTEiBk7t5AdxtIPXMkJycXc61WTyyIyUyIvTKJ9KGiwhGITdKBc7JFltMbZxWZyXsAWR69vnyqaHmGxX+YfyKZoDBRBVFkqLqIMLUGf2y46+PxQEIDHH9SRYSa+kFjw84egThrgRdrQlVn1mFGiHMOHSQQNoSRVrZa2wD5y7eXu3bjdq+xUm9bE6kCqopFlYGp1pNAlHYU1+30l6fj/Gb8uPl2+1sVKh7NJFg95lTVgyhrf3nlTFhaGNWhCEJUZd07khEt1/r8AD8n0cU+A3A0WhIinZo7re9W5AQoHs6oBqQikGYav9yBOeipPUAmnFumjR2Y+c2vnevk/DZjHcOs3GWc1CywGQ0cNhttWCrQ14GLd9Eyxvljk7fDVCp+mgrYb+MNBFvKd+WjbdPzrCVDQtAFvflDfKiuxq6RoPeVQeqNFU1bA+0c9sPMA30LHnO982XNdewJgEnbchkVcpkUvSHo2qfrTtHG9XEyXABeuNPsx46Yp8tnFRSNlU+gFCvcaWc2SewqRC8FL4PN/YjlgV08fN9UQXbiz1KSEKhAOaNJkIFd8LO4NcpWNN9XSSRjoZJwlLEvNZNJFMpF2jLGV/TU/4QdD9X35/horBHeqyAbgcKjRw0L3U8dadVe3ANfrME07wCr4xuC1JCEdZ97ygLnjsR0d4EudGmBaKRYqnjZ+Zuka5V8akY8gC+5H+Z2TkuEucFC5BiFnJJbzNHu3RMo27ni2MlJvfkUCscmhJ1ojU62dEryhkoqp5+i96/FwvmGSWWaleEP8BAbRB0vem0o49DXAMgtJM6SYWMuSNSKEFT8Erx/hQmZrlm8g07dQ9S3h9OMHEQTSPPkGUOK2AtbzBmjPoSMgr6OqDrPEWOsd8aIt2xHloYuIA7+LG69jhVBe0m+5h4de8xdswFFD/kt0aZOGf1CjrDwAOCjrz3KNii+vPrIo6rXfs0gdN4/eXGXwmA+6/7HK1H+5OsoM4yTzfrkjmD6Nui4zHq2o3BwZwnlikx3+JyE5kvBLcP252daj/oLolcrHU07pl3cJQCNP/7kvKa/p6bwnUvAjKbuUx5QoEZNl1suPnWYpi2pCDbGeqVQ/vV1FNsupvR49qOCnd0u08QhGGdZJPOypgW6uW4nld7bPi5rC7ms78btXfaN9UvTg//V0zffsJW4smf2Fo+GYopDitvGv01e+tpo0T1UcXOKE/0TQB/34yT5skE0S3I0X+hea30FTAFb7evRgwFzM9ltYmClKL6Gr+jIgJg8swzq5KvjLNwykSyAI0HJJrdSXAcQ/Gsz2KU+gdxWtjL2NAGfR41PaFUH6xSqBRxVyvexI6kqrI3rdXORHaFNHkvk+5MAJz8hU2woaiDW75YX766V7AGFmPYuSB2f7vcxUaGZR4tYe6eezzk1zhuA/oX+mag47DEOt/6WgXpjRMnhTOX24uHKOi8kgD7x5z47N0f4deOpHmSm0VoOcfUFkadyLplyO3d9uxHu2xBfoylwsk68AlgrQJOrFzGE1PO/3C85XeWx3+q1NDtoC7wW4kGMGIJy9MaWcHXnJGtyjP8k27kq2Ysul6aKCkgFf17a95iubd2xWgu1To+l7wmmNDK1rQXHQTzkxDO7bod+S08YPgSB/AbAHdbteuEWk58m/IunGtlSVwxCgM51P4clWBciWsKhz1EGPygNeZK8bGRqlbeS6+VRgGOSrd7pb+NF1SSd0uMq600oKojnCKQIiqrxoADWpR+MwdZm9EsulQmqWAdPalSZHPXgH1mv2xmYAKrHIX3Nai+MxYsvwQIERZcC8YmXcnMaTuVKaOuPFk7OKDLJUBj1+g7wvoLTyjPgCiyUitEHAb4BGC/PufogxDKDRBjAQqwrniwwEONSxe6B5oD6snPPXc84REV/trMSAbTJ2wE2ISD8sLz9c26t1sbW12y43bGxsQ+eDpPRRfemxrM1Xrifsn4hMDJt73o+I9ldAwvhaAeBwx0GasDXgjVMEVHpxrHs6ZhGy5gfhtvc5CZ19FgNx2zcANsIsELurdNdaswnA4fdNwgRGNluneIriLFt5BvQeLPo6fq7NlXVLoFsAXLCXRRUiARs0eMr7x3h9OPBfbXacnjGRyRl+Pf/+SUkPzhva9l/EvhOvQVaulZbuB5rZ6ECvSTBE8oq93kfLdBi0lfdw6xuXRhX1E5WWEybcX6UasTzoDiPFxe7zzvor0fKeE4h86d8+R9mKh10h2LF3ZoOd9C29W6VD2jY2ohwZqjGhM6AeCDa6h054808h6DoTL5QKMLwM99KAkeyfnYrQz9ZXOzsZDBxevJDCHnNAPOYKOSTwl70YXNZEmnM+9cGQ2PTVqkJMhiB8Z+ybas/aMUJknIbtO7TXncjS7PJo+QcZLZbq1B71zTy7jEQPB6F+A9kveugQsTwNKl0lKERNG5n2cwCFkCOchBje2/v5dWyltRUsTA3H5nplRWieSqmwV5JKpEFqJm484UfdHdUF3PLt1/SAJiT7yhShyAo9w0IxItIuh8so8Zfv53O829A/qjJ3G1SAlY/s/hA8Pa+1ZGkRUfjRgG+vlJgq2N9BQUjM7kWuxGQI8L6fY1mXmxOVY62UUiYwol7QC7Q3T+x8pN6Haawz5x01xbubakO1attJE4G8lSwbhWajDjUIK9VRYae1jSD7SBPrh8RANbEpb1VN+JO7onsepQfAf3bXkj/X5UW/vTJz/03+RoSKNdfpMBa/yPtVhrtMfHCZ3Tmkk6XXv3MdnoW42s/YCged+qZl0mzd6C5t8TqddIbqZQchdBFeGhUOq5tqNlWIa8TQaZILQyrtG+9nf1Di0VriogncX3rpBQI8caZr5Nyq+SsuczbMYLV8b19PiODF/IIZlZF1f0AOIK8W3ZfFV3gYHKFFCLTfjycGoufCmswdMcldgF+5fSEShdYYbM+DI5WGZGeNz9OO9oYIoUf/gRJLx91syRjUlLZhdSJsXzAJva+cbsMWnhjoykd7WDgrZf5kEBFu+c7lLzSmnz6ULHZcgraE8PkOk1YZWDvA8uOG1kjsNu7OjUCuddZihswap2TwYw7+Amo3Cb3HVQCOwnlJOjs+3/bXiQVsPBgUQ4t48Wk9t48ttfy3/efyZup51tuF9xVhlZ8JpiR2UZxT0v3e9uuKdPINoC/ybWxi3sPedt6mpYhPzf4OhjY8JURX5LzIinpeTjDJhSaxXWaGYZbUxOq4XXLwvLGrHZYITZBwoOk4LIbCLURtTkgffi2LktaZJ2dFjDHiGa442M/lbXTzqy74+r8erwy6i2CBdzDmIYbBaBcMi8j3IIWJKxjgEGRH6ZD+CNDuYpfymLs3RBHXqM96i38A2388exYolhG6P7bjUHIlTv30fogy5A3BAY9L2/opY/TJViT+fhlmtu1yVHcSL3zdWpL7QF6XRkEmv2K1eoYiN6ysv+B/fPKwKrG2sOUA2PCNgz43mA/LoAvi2+rRDMRJY3iFGtPHwG+ZG3py+mQtSRZaPYRqk7inPORlfC/2qRPa/psZGuiJcYzOKV+kj5hULMQyTGPbDSLLLD4o8zbTt2aXTKb6gS0v+Pc2VXgZm9ymESaLMqvNAkTWO4uMo0FbBPF1dsuVMLOfJOFCZ3y6N1lizS+t4BatSo8OV1CFIqWc1pCIHNFP0bezXqpFVzysUpGBk1ukixJHVgUTuiFsegbtRPIoYUyiO72OnFsfU8DI3egekx6yA+yhuT3IDtrkPI09ISO9dvJm6xyzVuZ01qrNk7MPEqiu3tbfSoadYf6ddB7TXmRfTLQFbbu+nvNwnWmvEP2HRFHDX44CWkUsl87uDqsIuTgx1D3uWtdZqfR+11S3wy5HfdoZWV24RTG4ltG3BlZsflMqa9D4qpVc0LaDCE64ROXS8/QrP4xlZF7e9bUaqSXF0yJtZFWCvvkEF1scyQD+Kaa09k5a6DyJKMINbeMMe4kdMw3nQ/BOZvPVefuHO3lHuo1jfaSqYRWjhAqpC5f9Yeps9lhTYb/brznjK10pUBh5yljvoO+r+dEH6e1SHoL93caWh4s7ZKKruWdnIFqy5WTLkkWnaJByoHuBEyruV0aNbQiDtHBcQKjG6/AR+sGjWL3pvZwcEpOIU9kjrWEOsqGCxDev/UkOwSwZSkTMh94FAmuOXbYPnfIEMlKcTYYBYVicXt7mnJqfAfStcVkPkFbhr6J7Yx6otf0mlF5MPYz/S0PTrUeS/PaPR3cDqsanosHPVWSQNnj1f41Kp6vdlk4F0KrjubADIUz6fiS8KWjkG/3EO38xwSP7qfDCiBIFqoMql7BgrkNa7OXWLozd1x6SYKbPOZRcFa3/4oY49wsbozIr5IjHe1XNylt5yB20anioetiTfxIyoVhZPMf7PkRFhUq0TAbSaNIryyV+l2y9OjNYgoxl04vXJMosFVL7wmM5B91M2OhlpbKIWV+bJXBhN0BfKdYRosebE3W4jCWGffDpX+2C4IDF3WCJfqwjUr8vC7779NUksIX89BkTcgUJDJxsKm0bo9K3fOBJZYOCzy7i+xnzCgfC1a+4RMYd85w7UAitx+a+1/WVobQ1cpZsOPcjwIDofOZ35GAdhvnpXaaW6ls5zsIUOdqQYQ1P8Xi2LjWS2cIvpJqtuJoVfSuC/GNgTguntMkKmoXe/SZmvx2BeEgAkr9A0wIc3gMs8+rYdhS7emT0ybn5yCk1PZklBX8Tu62Ue2IE8F5F8wfeP1DF2dqaNpujMi0A6BpVhDllAF6PTrJ6OAIZRkzXC5TJ6DGCCHm+xyz4yfA8L3/qXt7wk8pitAs909ZoOYPA0bHA0Y9rEZ2VnzYUzH21j4PKOxjAmBeSi/aReVhuNimmXXmoWEEDjDDSRrYHbPzWchdJA3D8LURwheqbsgBdkCd5QiHBlgDVwAKcPqAAsckLVHuANTjuwtUKx9uAZNStxeTOVAPysNgAtslnXhlMjS4iiP0kjlMJomXMT9uEu8edW7Bh/0lB8SmTkC2LHXlF1DT0tPIqwAzACI8jP67QHE3CaDFo+KPNIruzb2N1gpeq4TEYz5xS9LtpGZCmZFkpm3s/lMMFntoj9p3emibvRKUacG7dOjKRg2YKOPvd7L2V7850wXPts/SHcjlTfvEMg14Iri6MwP1DS70uM0LFlLvXBsCq2dnGVGx2b1j1r4l9B1t8M7LIUZf+CIyODP+KoSUyF7LgtPhHKXH2IqQucdkGEgXReDhcuei7H4/dw2sk8oF6Kf1CSAL6x9iapJc6GnzhpA8qpLODRdCHmNFFesY8ZvoYX0qkiEU3Pq4gAHNMlZJsTyvr7urIzaft42sbbiQBtyHfz2vhe9mj4AaeuJs2Zq6guOQ0R1zmdIFD1qfWRSIWb2c5F7vPSJKCATMHXoE/xpWnYZfhwWJTIWMKmrfJ0Uxo9jN+nUjzwGm1RdYczJSDEsqiWxZvdFnByY+RCSTT7oGRrRiaf/VGPZFpjz4Fu/DrZARotGAC1/PpTdrEb+JhaK1A0vylLQW2qaFCzRRDiRJEUOXyEsb5+5N+SwpkibAuV4tmUhCt1Au1XEYjwR3vtj97MK1BsCo7IzI1YUUBsCSZVe+06PP0GRB8HXDRdF6T9+gS++RnfDiOFOlkui9LBGdnqZQBIWybdLxBlBAtCajewTym5nu4fYTswkWolzjyY64dfswH7MxWMvdFwWUk9NAeN3oi+9V/0zeBSn0BoPxckUdwyfCxSMOrqVpsIErvzdh1pVLABRYKMYQNIN3a2tMTmZhGkvYWSD3te1HNNal35iqxa9Axnp1sKhEIyZcgpmAg+ME2XGwDM6ZJqbOXBMTsc+ctsctrW617od/Gn6mbTTF8zMQwG5zkf5Wb9pnagA3n+dFSugitfxx9FAUi6DgL8Z8FsCTOjiEcj4fW0qAKLiXzvZn/7BWDZGer3EaJv/ZigKjuxvWERg/VZjsTxpGzWElxVh4kBskjcvzbG6FzG3nop+Y0LoK28lvawcnWyxSvJBq5ouRtUrPRpI2Bki8aVsTbZCAAx6qgDaSkmgRso+gr/SHBGqRdH9xdy703Ofer+pt+0AkbC6jG3A7UlQ7FYi/3ixk+SmvWsVnk1JItS6DaMJDBujRaYH5OHp+CYyMtsemrQWCC9lWzTFh9J+JQ0zoe8rGaoiiXgB9Vs5hoqrfCxt/vAqN9KJrKMft56SbOFHgZakBIrZGsxpQ0RU2g59ZnzHJovlnec4g7g7DNnX4VbF4M/XI7EA54VwcDa4/GpmgAeqYd5j10zL5R5RvRASvZH/C6p0kUfwwPCc9GljQYwnevy4B01uG1teZ5R7FqUxYtt96/MZQoytwOXRUTA0Xvp8QbsfNCD2jxHUz/6hJK2Kd+58nOC7kYYN5UwKfjyxvjfbVz712XkcCajtnG2t4IZQ4JxFG+8uYSQ4Nfn0fxvgxx1YEjcHU3tONe10+xJWmLbJpQO+bnlzPKYB1lRbVMab3Qm0raJQ2WCnmem1izSD83pd6mc//CE50pxWJ1X0FL5zDecZYdc5/5bYW5sZpc18dAwRr1hFmgBKPpy6mkfnuWGD+AW6qXEcUsxUQ56QEJvtX6GSwFTKCHyO57AfG4ceET4WxS/lGrLudIvvQ3p0LBjoT6U7qbtDQMXcAALDiZAbaeCofKJyQTMqsVPXFH8ZsnbYCb5lR4MY0sxIFNlgD4mzyfhhTDAGh6r2XqU1XCDJXdXnDvukPOiyU80knoYUjlNdwwipS8wEEE/3kUqnZUDfGYlNJ31s6q0VdxW6zOyIZuM7YojbziZ4/xkjXXJp+Ija4SGn0KnVnC016+3CarWkhjldtpZnOuryBEDIsk7mbH49X3IvgaJjf4vTiWJdQtRTrLeHJUZiukQMx+0kQrtNHijLid3S+g5ax8UZfGCrRRW5AgJCdkMNxwfZ/k+IrzlS0gThGQcMIY18U56WeClXsQh4SgCAm7u384Yxmtd0hQRBTmPgQcVoiE5SPrjOl2wnS3lwmGmthCJCUjibz5n82awLNxZRFykHigEgDmYHQEUhnAeULSrqgTC3ylV6oJTXr0gz/g09kOYhTjc+cP94pqx0WvCBD7gLO943rEKqsPpDQyOOU6VZcHSNpjFExIOi2Pn5qKAntb9Ye6bAvS+rNisAAAAxAOLwY9BAN6sXHRRzL7Jg9rQal2QMfCqgJWSibEHc6q+dkBt44muur2zsosmnYs4hK+DBpD9DrjSGjQJvSNEsH5rb4RL0mbsJYJcEWIPAkRk+tdKI/gBD84+550rBDxxxAU0BxAbw4yMOgT8HmKuHnZvD0te1NILqIG6tObuw4xlLzXGLUxWCPK/IhjifgABvgXZgY+/Dxo0IatczAB3s8QgieDcf2ffphOdubS3tJUhzLvlXyxVH9jdg90nAjAVtYIvlnIHTIpAQZ/oDFi7WjdZ6iwD45m2ciW5Hd+NvQ5rpN0oX/RFLKT7PwZQVkksJSm+I45F6o69b4Z7/G4aZTzoZ5FPfCrwC6ufUjNjPIMaWzqA5fYHoed3TbQYpnAhioyo7Dhmj5t8y2bATv2r84eumN9BxkpSeIp49cPJJjowNi/ZmzIHhX4x2H0Ng/fQoqr10WevawFkPnzyf5JelGBwKfFDTeyNjnYDJ/pmbkv7YSbad8Hn8nD736sYVFAsGKVgUGl0xsNphDhft4Zh3GbfzDBOgt3E9a5+PZ/ahEN/FMGJFVMcRir7nezEx89VAfhhofqN29PBaJNUvxUz5y3pP2ZvVFnrHq+4vJGbZFvXAh9+gFv4rIjZqRVNawd2hEQ1Dbmiylh+qXeGae1cnksQKavFJrixdj6Jk0R9M0AP1SiBHvAkSbwfnIkRCSs7CX544V3ZbpKWEzqBytXLgt0YEJYypZAGDLLgNUb8CK+V1SBqbCGGGAKkXL2UBww0UhKU7v66JH/Owk+Ci4inWjHHsKlHnDBmEs91mnz5zZzwvUSO8KsIjEDM4mJz4Bv58aQU7OtGnF5s2u1hEJqy/GkXmq0v/fH07AfH13XnJZyiB07Ch7isrxQ4pnu1ZU1OyTodt8qTYPiGA9fr8eKc/Eskm8/7oxO/Bud38Rs+hgvODrKUhvruWgVvHJUMHLv7rxLV6+rev/amRrcbMQ+7IHTxsVzTqMpVi/9ZVPRSaDG/1Uk6zQ0DXuTJPo1E3a2fIl63eg8d5/i1Xl9BTLMtrnPcn1hwOQ7jWqyPsEblxBJ+XvP9Bd8HzRSp+7DVKUhw9F5tpN8s6PeQoeinJQzGgh+sUC19qMzdd6GlpGyPStF5fVcWulRG1ssgfU6hLoXt8uH2tLGrFgnOEVOontor2GyaYLC5S1sPUnxNF83TY7btX2GZnZPKsLYn6Q7HCVYkp+2l1IO2r/bGHGnGDy3eBAfH44wYwVuNooIAD0IITRg8KN8rIcDMkSkVYhAI/ci9YMj+aOTDpJMKCkUWk5Qc220aIGyDxlItZiNcY+wnMduR5czoqHgq02po6gVsLL2ETtQwMba8A3rG0yXLVmGl2Nl7X1/0u0xzfOhx17z7acchxG4vILMYD8sW2Tb57RP8/2/VUUWywOwMauzgcV/yiisojvV2UiH9/GZZG12WiiSkpSM22Khr1GnSTEeNFAG/Ei+/H1Pma6E5V1wh873A3gP8aRhLSJstSaVhcIWoEl8jq79coQulw8BWLw3zroc0k4jtwzsntvBnXJ8TdPsvP4Nv2GJUN5i+vn+MFGNxzwVYXlqhNdsNeOdAQ0n826vHmEGWWff61jOC7FqRRJw+qIC1dur5aO0RRJzrVRbJ1YB10s3k1XYd2nFOjy/EWaMMHcupYH0P/oX7FgdEw7eefyaTEY/jZRP6Om3pfs9zLRbPlrUTktjiXns6HQBaAumLnpdMt603VNTgpDk4eh16VznB/U3nXE6aWhxYJGuJraWL6/804/Q6v/UCXdZmcNSvFlZD2yoJADJ0ad0DcAuRxfSrviE/wvAqWT7ZmDFvdEixoTxt6zfz/GMUnSQiwo74EJO73UQhpsb5RAgUgLPj8JBck3q3Ru6j5zBkFynhhFnA60TVhOuMJtJhMDHKyBiZ8IqyFHxtAZo86ohyZi1M7qCUUlY5QSAWZV8SN8JWtMcDHRSRb8xWAJFLtB1PrhyVJpIheyaH+W/zMjTyBMCKYARyM7U4T/XBLaanJUZiOwrwl/tVjA7tl/+XctawMg35H9MCf+SI71DIP8wX1/qS7JDIHJiclsEV+zYAjjcHmslHYcjJXmg0WCsW1LoNea9IuSLr5rz2IhBk+zp1QcLS59GkiV/Baqx09d9pBJEGRAKWdkaLQhOmSoTY+Sk3ymRfQ9Zwjw20F5GZmJnx2cyixYPeseKFPlbj77Qw32vGeQdbBKZ3tYkpMEdWsWtRIzbX21y1l8Wfk/YItiZJVmtNmrDH03DNrkI3gEUowkF856mOv/KqhXqp4B6WZHGg3cFJluBvzj/TJRaWU9g2aWY1UwoGpRhTjXxQX4G8kNmK/6M3HnPC3ypjfpuf1Wp3c+GgY1AHeDCcKAAcTmUfWkwm/50aIIBpxYhlVcxCdNG1JZFi7oCzHoDfD5Mm0cSjoDy4pnJIcVoPLAO2wUEgSyje0obImVoW12Qy1fUXD1TWu389T2zuTd4/mWocsqFn6Jn9RmlCQVMTUiFOEYRBrg7CVCevG4aHWfeaEIsj1L528NYgJ6EOnxH7ZjWN8pQKMBYZJdvT1W8AAepFz78Z2XITqgUrjRkUVy0VZvBQvhY7kTP/0eENmfiNRv/FC+DBBwQdru4YqFY0eyZEwZNL7Lv9kfOTACZ8Ts6opJFEDyMnE3QfqFHgph9gFLfY8bh8oH4TemZGT00moXlXp6MAKNdexM0tsBBJrDR2UDD9oSRfvsTcRobatNh0AhUQHtSqx/kZ5F9myklXYduZ8i0R/DMjF80NP8vx9pIZ9CCuib5YgD2vkAvGGXEyfpYvtXI+kYldhQiMCTvW43FzQ3pPvfz9fKZlwGv4vWJ878ia2HB7w/h9DwD0OnrE4mxaxEOoV6oamu4gQUC1eumU8CDFvvAEqUyE+3Z5nT9cqPRcsz8IqmupXBShavsF8oGlJl1DPxgptP75ve0xBbwDpHzpcv34tCQcVbO8mQENLixYxBttFfkCgqu2Y/v6RjYJjcwp+avbtNAR0V8E+dADlUrUAIvFy1u65VL7ILyVnV0qEYGT+xem7AnMlKq1WvkyFpyRFoGkKCQLXRwVAJaiAY1JqJb1nek3Gv4oQfbl2o3ujWAGDK2juL26Z8Dt1iC7FvADKD3COS1fjAPCPpo2GwlPr36LEWbVP3xuR+3RPSCy7maMz1JS3NcaU91GwvotSdw/+j9voXUukdKsJpI5qbGkKj3IdQSg6SN7RY/1M6KQ/cvRABoIH1STt05ZwY0VyIBunqLLNuvLH3ssqfgix4+r3eGiuFywQOJ6k0W/WQfnmQUH+cVg6KF00oMFrANSoBOY61fEqtfOXn4sVXR5TNxBJWYxrYFxyzFCMVb9u+58Ro/eLZyQNzOFzLT+pXMnNo+17ZgjRAJlKyhPr/dGK0+tX5c4UXcMJ+bFvW+R92rRdmJ6GK8skJqeWhfFHgy9lWc2hBur5fqDIzpfhnYeTbHDEnjUsb4ZGx6iMYtXhwg7Q32LL0FmyfNXe0I6/Nn/P20W/bU7s75R/dPgHGlPqsDFdf9mpKEdvj8M/Vr5ZEwpjLMhzcVVJT7DPP27Pu7Bq/uf1GWjaDMVZ5c7g2KFQzfvM8Dh1/CRyQuVsm+nVnhMwuY0OdRL4h22ReMKSu8eRpeqxHVZRGGYlVpnGkbKpYkCxPcFqzSqJ8kjm6CEpJ5/B8vI67NbLjjLqLKLHCpXp1fYOAiXhJVX57a9PFNr2RKgjFMiDDbctAuk28/aXjcgyMig5bdDvL6HEzJLgF5+jTyxkWeLjVHQz76dCfRosNF3B6o6g1R87zemvsOiXlawtCqcR9Sg7VTQGACp0tv16Z2L94oQZVlj2cbJvXkCjX1mfcxkczXMc2HzPa86TDcxP3rNxXLHofD51crM5Zvc5P1cY6JRTag0kCSMtYBultPSXsncnKhQAr/WFrZ8FhNdEMUBQqwo5jXWRnIduDIfi8HsiOnWeN96833afbPVI/VHOwoR5ZcG4b0p07GVEd82NJvg37CE1sqpjtQKiGYTF3DxBnBoKZxwcFnrKZL6d4NPU6pCWX4MLOqon4mvy2PqO2zLKIcAJK4sxPVxlAPtpcl3l7Tc6DbZqSaWHUIA/wm2ajMtbXxM3JY9eF+GusC/0v+rTTHtWSGH/pOavDWvBQkAfP9WN6MsdKAi7jr5mHn8RMIZhHKVS+4Eo+iRKvQNgB8uZhw5ilJ244MDJXxjCefzoO4oe5umwCGNb/UNM3mxUY/SFLjOHjtY9iOCJFxCObg8KsDaL1a/W40XECW0512zs/ppB7QKJxJd3elykEFQDtcYj7pQUT0wAtTP4rllVt0aH7CkY/QiHUP4vVkpJkCgpp4JA86rj4jMXlFBEfz7GrTOdrgmZuWyJ9sQ70mJF1MP7z/PK0pAtKVpMTe0+1jaJ+rd+JkcZAFkRu+ZHH2k94xlvPlXe6L8Z1to5ymD3m349d38+bcw4Mzqhw+5Wm+aPLjmIOE8kbRI5KYInZ/cD22VjUD3SeFlMHx7o55clVi0c+yw9xBdN86HRhV9vIKHBOGpSHR2SDZ/Wr2fFchMutRvybTg1JHpmEXVR8INTr2l6ASW+UedJt1UvsirY09JoPovFLJAPo5fwrJrHBbFLKDDXbW3F7bzqtdxpgVWmpsHrwDvSTElQgEcrsidABv9gJA5ULpaG1odtYCG8eoao+PTu7TtVI5mcUMNC7ouzDj1K2goa02JhEvj6YLF0raqfwgkGT+2/zYKiN2SRDdR4RjwZw7pxgVn4BsbwRpqRWUQfmsBbwqM+/mUAPVqdaZw5+YCKo4bMxmB9XMR6O89XAbfEZqs/b5CYPw6LhS5qVu2gvyOAAX3KsD3PyRcjgGqJ/IU+ZyWBx0QPrD6q7IRYLpzTHAEkkVPOw92DQf8trDvenQNMQsa8Q/vUheZKP9U08pHRqIJFk8GFQiq8z0Udq/UXhSCFVAEkObL9J6oRRVoXpfpKICbV5gxAy5pkUZvsW2oe9EYSiVlz4C1fvhyC+pbdL0SxPxde+vUIvz4OVjuZotlTKBybxuont/gyjyr9H9knu7Z2tPV3jsqJiBPDy5DXf77EcJgt2UyIEIAIKoI9oywnabaZZdAhp80sXHd1hlwnpznnqldSZ/F/vdZG1wn9KZWFsNwwpmM/onLjoANiLiUqpNh5/mFA8ar90wsF4sMnc1L4sgOTh+XzqoqaLaSVpBe7OqVS7gOr/twsifdOTtT66+xnKfC5CuenIMh6TWK2DSG1hcENVCJUTa4fyjaiehKTv4OxyZyTG1nUfL/3p+jzGtRTvyF+dsCA5qFuspfT9nPDbaXmFAFgP1Qguei+lBIlZTYYqu5gINz63h5YAUbxwwSW9fCrw/MdHzZpgCDMJR6Q1yEJLirnjK1lc7CYkKTgXxhXWEx5H9PrBVcAxhhmNd9+lFIEalEs/Aq6HE/Ogf8t0t1TuKgsIy8PMWsUV4EB6Kq+rCR+GfK7msvTONo/WhcAcC+pnLfa8AKAy5uNosPFHxMURPgNJp7Puu8rnGVlJk+siGbSSpd3p9uRk++we366EJbu/8rwoM20dr+1yBpQw7xXCjI+tO1j3pYNRwcms60jusMHBw5E/uwOALLs1FpNClnpcSumv8swWQwLPRcDlg/a68RMSNWiMUUOlrRcF2VxPrbn4g4d8BOm5+OEQufRvgQ2owNkapC7M9yuQ387mF87IXDEto4b7y4TG7XJHpTIcSZcDovohpj3B3Ab/MZN4CJ4kJ6x8GzSvNzZaPN+T0M6nY7sHYkW6Jq45F0QtJKq+rmL4n3iqE3OADCVb0YmCFbERlqOCiE468gyVJnV3xtM0JDZMvlL8m2H0LDKlLyv/Qb+/YVI5Br2ov/BUCFmBPJFkyOiEJPa95cNclpvgxdWB3XC8ybXwY6rcks3M/rNOjqmPdD6ctSUNtHccYQSPihz0WUwFBGHLemNz0eqSHgW8TWEkGUpbYQISB2XZbLG3udDgBNOjY6PVHW2G/ssyV3PfcQTf/+VEUjUtnQiB6AUpfox8G1nY3JxvfMdFT0VJZbN6ii+/5Tog/T+2P7vQOmZL5KkqeC8IgDMRUU57C8gyJ4p9ybobT+VyrX59P02oVCJo4A0rL1a2DFm78UszSgrTFLutyXm6ydgfPP9dgFriFuY4Xm4d7TDs8yGixkD2vZo7Seb1MXhGGoV+Ioc/5zbCQWmLEtdiQ0Otr7UyOHmJwzBZeWosYi8WIVTDv16L2SIg8KdXKmZSgOTm2XSqfufvyzR9r/MCrDpU59xcRakiGQUYud6KDNhA6xiRsidkrqSWchPYZw3ry65IKdcQd1aK02nkaGhUtDsfYiYmDCZuUVYYG90ZYG7Bym/odx/GC8Wk36ISdMYtO6+6RyZ4iBtMiXglJYJOvNX8tOYzTe4WHSP3T69djtDMleRAbhYGYiFa7BHhT6cokav1L4dv4LM8IvUMLwQjTG6Ph8yWRbMkhAxwsnGNekGVvr4ChmLmZFZl9fu4a/5oCWqDEfW89ruPtyvVy5QuAY1hPQFHK1XLSeVtOEUIiIoFANaiXNoICY+YOm2Y0NupCe6yHfZtxttOOmQRLqDOn5ynnh+2WS6a8lsdeUVBDmrUTDvSitU8RFHJdhMlcWy3P7Fding1X4/8gAnNuCNgnugoML/cscZwq2G086czoDtTB67VpAS01wsEPSLUIfuCH3LloV/4Et294suiFVlnhe/Vl5d0lWl9NZWxjl6kCx41xa4kVlEZV/OrY4RXDinq2szW2A+BTK3RJdlgK36mKOWCMqqCBGUkmd/47otW7IYcc+nO2jp/2SAzQeGfOolLejNq5CGyJs1WxgjV7rcCGpksjmcTx/7zG03/inB7d4dKxMU5ofSYWUZyQXfncdI7kQm3oqTx0y8sUz1Q0+D4AjOAbRIV1yjAGpZRZ9o+nElp8sCRoCA2Rcp9j1p5ZZLJUGSFr4tC++4aKI9KhnOKKkMm/3IvKo3HkiT6bhsXCBp84j+ZjAS7zhUXHpZdOQpqXNMfQR3uTwZSxTb7Chdm7W/3thpaKE04Aspubtn4Xf0hi/KxAAnBSxroMeTh5ZF2cBDH5q88FM7wNYxUJVf4wlVSmzv1UOOKa07pmc+0GT2ieVwVaJC9FxAHgxDs9GbN2QEsNtyyFNIhQzRBe8GAQRMIGilWvBNZe0WI5RgKkoinBcdo6NRKT8glm/2Fanp1tQ+GB99QAdqCcrT7+TngiguwEWroBePTQPQta9WENxFnyOL8/Mr5x3NSEihYXou6uSUw1AmOrKnW8MEAAGUcQia8NkW2Ajln6HOqALYuMENZnKGoPsvucurSP1XKhQi2k0dGETEf4ITUz6zMu4BsN+YLLzNnRX2Lcp2ykKTTKfJpDFSHh5mWqmp12HXsqSdloSy5eJYoK0Vq2+VAQjGktNyUOKOnvrTXApQe4c48NdEGGTARoP80wM1TQupzBKjj4N0BFVcE6jXQ8tpUasRhhQTBl4vPAzbRH45R8ol46lIs5qPEe9ZkzkE3El0ZRzcY2BqASirMxH1XGZCsSfyPHwHZ5f4IOEa0ALyRPzKsrlmb4NDiF83zUgeQeh6J0Yw3cJ5Mzks9wZadtl6Cmr4/QHOjIAYfh7uT/SZnf+0ATLiB+EYlWT6QcCGVyo6T1lniHhHokZjaLPlAQvLJyn/tv7hT3OE3iQu1TPA2e4G/QIjHRG+WcD7JicIaLb0NSvkpvxtI0PadthWdkVnmGDRuD9oZD6M13JiW0W/D74oXlC5Ei59K2AYOAL4wRd0o8HsG/+4uPE/t3raawwewRoDKUWCoqIZ/ao0qtWmEdgR7fsKOgpiJPeDvN06jN8YgExbIShZt8D29vj5Ys3gddOty8ATONRCMqHPjGItGHJVTN0w16MJDzuKjsmW5z0hBVPNa5xRz5RlUOCagFo4HTu7Aew0SoiBTPVxlDUfkeTYcawFUnaD7oVppi2MzIB9ZZWZelwAi5BcRAfyegEuqGNSeUP5SCgEZN3CmIdaCiXiW6IsaorJwYyeeuOO0DBaKIFxdNKxkeS968qaeVAndoiJA7loXnemuZo04BLdCWjxs31uv0Lv8xvnlJx3mi4fsyfr8n5luiLZqRYSg1W4iQw69XIIMlrcrdayYDWMBEGIXPyu9rtkzm+7vU7uz2YtKREHb9vVY4F9TGlHbpfXVY/3EHi1nO6ekgKrgloqvi4eNbJebgwHZKhwlG7IO7LD9tPB+94X0uffwKny9/dXq+l+hfT9p8XzTl/UpqHxCqoNsdfR3XfU/QAxnu7bWtXYU3gUKVAo+JUx+2xYBdqQcErRRQ6fR8Nw7tuupzmgRH0/23if0+YLNL/I8gNe7jJSiHGwniqJ7Mh0n7/hvhUUHmgG7XNGHbgzfXnookqHvwQ0/6Cphj18SVCNWd/6PiVFG5YFL5GHNIcL4CUOBKV36c7/QGQjs0qxDi2Rhu/wRQKRP8TFEZXQXdoFsutk4E6RBgPXosXNZUoHhjQlTRlDBBOyif3+eOMBjIbmtC4hoVI81bGDPO2dcemyl/1GPu/mCrocXTEw5vh9ppxbZHy+ku10whdNyeDqJrwNztpjGtCWl5V7LlifGxFs3Fx0/iR9zhtstdbT4+BwBkwnvHKn8kitpr+Xfr8aemleqWGRf1qsyzCUIJ1d1SIRHHjc66tyAFxTGehB1OIT+6TLM/d844Hb/LOBILrmPnQ4YB9e7EfoznpWPcZZntvxvivIiYfg09PVAem7xl5G8W7X2gLYVA+0VrYJaTYf4soX4XhmwJ7iCaglHxZdpWzIwWkc+s6E4BPyBdEorL8/GHNKdyloaRo1il86qIAByA2xvf+eFDCXNsjgrtQYAbUS9ewT7LPmAy9I36haEkLuaAp5T81vzMoSB1Vcq8AHa3xLvS/UD6JntUVVUZ2CUNROVo0tdW3Kv81caijtfHRZqh225NqlkTsUGVRsg4sbNFpRxSthaqSfmb9p5GCq/uuF8NY+APMHeTE3IZLCLvHvPfxvFRWrS+LSCtLHH8qGSDac59Gq66eLe3Ukh28GCZoh7e9o0SfXqs04m1JHq6btSlY3rPm+6gcX7dNwNyK4IqpB0b8JMRSNiUpkYBuJTzX+3zOn1DRKx+0Ri2x+s9bATf4YH4Lk0uYJMyTuY8xHGNvmnMIFHsqBaLK84M4l90YjjiXi93PwDbOgLnIYu3qrWbqvaEDloMfvh6xwJvyW5KuenQohaX2LR/b/2j1rygOvC/xcGotZSCeO5rKS66ciLc5hNXCbchcskD/J9eNxUkGnZ814nrRSfANNBL5rpHz601F8XD8Jdu6V5bi6e/9HXjmSU+XrxAtMrl40C0UmnDDcs9WUStzdCKBEMm9Wp/OeEArdEIWS1antT1KxEbgeNWa1vmlyw9ht2LN/f0uWvFR9i7upg5Gclg/0iAvUEAQGTQ1ruNNm13bTLg+++Thcf7gjWCpB3GKIqQ4Cx7opSleHDA6UEH2xaxnYTHJVymKvUdgSbkd7EqgIa5R5cvD+KmY6T5dM6xsARNA10gom0ivhDCEb0HkUn7OmWcfvyRijwF3DEI6JnCJFBIJLZD/nkNUFbjA3+E50UzDLiAQiuLtAe8YCPoZoJiuADUmm5ED+MzUVi5os0Ha8W7YbqCICyWbjKnMRjbNFr80ThRiYa6HVaQ0oUqdUO3a2e6UyltozBksqcVkwWg5ZVQhYPVUfixJGSaJhGP2jPLdCNdUmJoEeRNUTmHxu0jtn3vFmVJOVCCqjmQWdF4VN9n/xKMpUCCAyaq8IIFlx1170lLiGQHdRn89GJsXXjubfvvvH2w1d2pOpKKWjmTNqbA/UBHpHr0uUg5eo3l7RgBa/922/uXpg2asQNsuU0Y5Vlldl1Yr/A6D16dk1PaU79PbccuxhwAfYh/YOZbbQsKmoEgRK6zJlHHmuElLNG2Cbyb+85TdqO92RodVFfggQELV8m2DZF0qAmU2uMFrUSkUZKHdzNnaa2Z/q6qXahfHd4WtMfYhmooYZXWbt12Bd2ZJ7bA3I8UtMvo+cnbqfSvMlcDrKqMq9v+PTEJztiLFksL4ZMCkGsrzeEREZw8J0m9DDgB4BDQGF/2Bq5v5+cm+n0Y8Ab7QpeKGn6OSjOqltWFBHfd/1SDkNb7t65MDhr85tIgPA93DxQk1Ddgk40cdjvtzKb7ULgWqnJMey+KhbtSEhdmTwXiyuRINA5bW22ob5abAwUIxPKi9fQfloai2lX2fPQIMzh+Uoumwjl1WumesN3uvWQ6ReVSupmg1/rjZq4VUAEtX/EvxQsMxr7vmVG7Qgm8FWj7XMGtV4QkGmxXHFwD6TcDXLN5WIxyAYmQCImNrPyKS3M9OIeA2s+7aXmKuF2/gVjr2G7Kca5zRY7F3NMZycvcuTLANlUqzHcHHvJgLHwCFeeFXd+zno4RmebW9X1KyoCfXk+cVP6Dihlbf3DyGD/sK8k1Z2yvaDCfxi8P62foykFvQowQdLB5N2kC/6Tv56qNzvPAZAr/wAcBKg3qTjqFaITETa8mar/fb6Nk2HGI32Pge5Q4bKiCGCNTfXeHc35NvUhKfVrgv1tnGNq9sFRfjVOU808aUdKOLjBZ7mQitvE2mgWhN2KG0wIzP51n9w4mqKBvNT0vFd6Ksq9bD/qKsy4J9HA2AoFWplGPOfciNfPnsLvsmOGCP5awpc7CzVyGjsQ3UutXPBwnpFcq5oPL8yXkaYwi+actkk+V39xo/vGfAIBEVNPNtK1pPJjk0gaOd2JprHe6jJcLmi6aAGSiNO79/aQMuLKUbj1O8pTPbTNXIZe7NEbE653LFaofACGunkt/BRhmXU6v78zyt3eiYAMMkKOAhzNW/ewr1lUExQ/75heS6gYKLYt2fLPuf4YZlbszU+PjsdI+6xjP/pueg1iiwTpGv21cAlEXls/W1BYQoeHW7M5N79PjZszqQ7z/1CD0dT8kwUJ1HlwIagcoQnCrLaq73TWu+6+FLmodEPyvx+jQpLKDa1I0yVrFBLquev3zYvhNd1lEWDD/Lb+0OI1Kc0fY+0sz1OsXGYYxNdJT2unRRyLA8IxsOa+gU9pg+b1pPiovZGbo4t1NuZHdHfAjNKzR7XRlLKEyKHbARWHJicvAX6l05Xjp37k6HBdPtDF9YJ5a+5kpC8fnWtYi1svIPS0IPWKZaXOzfznZmxMfFo9DOmd4KGGOkT8AaVtGDn+jjDMIIpEALK/Pbih8IFJ9tvrVBDkIhgKHgsix6YNIDwNm9Jy2E+ESuvmfRVkZZ3Qty0Ccffme7NFNNFKWNEjqktS8vBNH05VftlvQtZxiRklXvSOIsnXw+CQHxsM6znVMOdsXfOHLZw2SFdGv3G1LIDv3LsJIGwZSZ7+GeGaUvt4H/xuHzefWx46YaljxmQ/6wYxkwCWtHtEX0qd3+uBkysD1LaQe6ispGAqi2Ga/w4sVq9aKw7XRj+Z3xEhMYVUOqBwxOqRpqJ8tpx/x4HiKrYSnxgNLSgVNejq+l0SZaIM/W7MPfkceKneanURUwPwmx4gcXLlLqjd8rltK7/VPXQtnzz2XJ8ZS/rjKiayFx/vtWBRY9v5aYmjmW30q59Mzl01ztRJQfXRfhSJKuCaI+EnMUQANlHe7HhgSgMtslOD+rPX91VT2WCSei6udqh2mNyDwqlZ/ak5VHORRbaAX9qWIUbejg3l5VXrz0aqxiguvFWfPmJ/9gxGUjCCV3TjrinDpumf5ZNL67OiQLB+z+an5nIEFeU3XctaMkqCcjQ8QwowogK71NVu9fUF3PEu8D/9QBn05r0VwBmDQyozLl3EArtzXx872ruRhCxHpPZhKwBeZBN2xBnXwS855YA3xDATieelnNbwKsMM2rpPEbILATp9ifIoOJXV0oGaLosVc+SeFQgcKXCvfcZ2cZzAolWOwcDpi1ucEkrpLXaDovcYjUnptjT0CXuXXP5UPmRFnNRuDFMKwNpecFYXXOntIttXm6bR6ypQxUHGliAJ1e7utnvzIuFL3pV9bk0CBRwWe1iLJt9Wr3ZbIlTHS6aAsUkx/ivOFzZVhezRHLi7ihTNJJqipasBU/XygbAvwnKZTGlb4OwDiY5uHejUQg2UZsuBJieRwx76dKD4NmWAKHnkkoJ/tORTIlJ4CrktiEUIbRO0jiHS3Io8YIqAtnmWMEC6+NwtwZjZ078F9gQgW4mGFfo+yoYpjKaG0nNDyo2gapRmWuNfPq5RESosGQHGiOys5ykhZDTnNaVlleBK+SzWfgGeWxzHi/29BnwapfIHUZlzdpc661QArROYkY4KXvGqldu3e5rmf0tR5iiYw1hN+b1qeXKyBNA1YtSg5fUbmIgWCccp6D92d+3c6Jo8v/4Zl2YGkQaDgFWAKY65TAUrkpMedNso4Af4C+mq0iesI1NYI0pm6EIbMxY5JmIy3RcNyuT8kz/fJo13R1D9oL3FNlY1wXwLmGwkA3qkbEhqOWAxQp4BGs7Tyy2rTypFYpL7zhC9JXYlqA7mYbx+ewsBtdsSlrJ0bbRqJeesZYgjMPWG3uTvTMRGlHpsl4mpgXOs/+9H0Xufk98CUPp8DQPibtrSgXD+MnD72xSyxYXC9RZCksi4RP6xOvvY8mZ38AnUuEpPxDouxbelxCEexmDdVqi5ItAjhHrKMYsqe5/it/uu27kYO8L6tCcfSTkcfyRxq7fXDjHEHOWuNm7dpkEcsuknH1alLglETreCkhpOnH61HVW5JWFMWPUqJfK+YRZddtQqu8RJAvhs1vBgQRN48hgEYTho14Mpw48AvFvN2eNmXFQuJEB1Ohk4DJj3sUybCLJC8EzIrWzFrsc/uSRwAaTYGmOcP8158hE6SSWXKU5nabmuEuQnRbsBEUAnxOyOdypt280KGps/nsvazReb3BUXjUNJJGIUhGU6bYFJBuyHzwRRGovhU4x8aHyD+0ltvFKf81F+w/4eTYRXUniZZrfDJn0pEBn9xvQN6y0JYn/LgAb5POux/ZeAJ/7iaC0pQXOF5czQ/oEcixbyd2G5b7v0ANXYlhlkgZxAYiRcxwDm7xBRWFAj1ku8gvifkMkQBoZ0ReMRwNRIN3X5ULgCx8Ath7MFj6l9zVU4a7TKCQsQvRLYgJhHG2rkvO8xAwibCJtKKE/A0uDZXiQwdaYpgyrDU5ZGUbChcpZvWCKosEa6cspMq0Jg+PShbkKIZrDt64UXg5ZqTSsAi2auKeQX5LVPIhsY3FcxcrBK/c1Wzaf6njYj9iZkkrucUkbWOVpjwQmnAXU5JNDazV73+GQIJbHv/gMUmJabLlJRiKC2uPKvDuPVcnvlCPzHQRjaUkFOfbMcBT9uwNR5H4wl6YkeNFCmLuZ6FCzs1Z5fMYWEGD6AQz7GcIaDl/T7ji5ARmfPRNxzUujcd6IaMUgJZf51oP3NeXE4MahaqZyDoshzt585ohsh3JxT2kkwHNGGEqPh8iGPmz1NmEi/dmFrJriX3RS+gRcI/5ayJq7xG1JohQOjMPC9bfaMlmrlWQuZAcgk1RCAMo3+DuW0JL1muPpyOC0UKRqZ7dtRSKmttBb5RBdph2t2I49HWl6CtTMbN0rYhTPPpHS2DIJNYjw/UrJ7e5e1etnCo8Z0IQ1BjM2hBkvnGQOg/fOSDGGP4QmLA+ZANUFBdHlJnbwqI8WL3DpMYm3jHHj2MA4innaTSGmIa2+lyrf6OMaiM9v5wgGyO8yQjYn9G780TsZG1sHbLEd5Kpd2JlJuYZKLzfiEb59B5zXB5L6omtevFBTEkxxPuuEEg8r3GTopdQmGz2sPLo7+h0VaUr3vE2ficjMNBVwAzbASBsK2Nf4CkgleFc/LovsxTjEEJWoUZbv9Y8Tzxo0MX+VCHyBEUN0csWFqX/GSL7rkrmKSp1xftfIZWKElXFVyHxKt5DsL8THI98lR89hCH82Bv+tTDweu3iLof7Ed9GDr/EDPq1xSrUz3pIwAVJcY+VMaxmonkGgfsPItbynyC5Dgk1dQ9ypleaaWmXjQ7SXY4pTTXbSAism1y6sy10Wz10i9iOStkZ5ggUxhRLaMx1H9AeuMVXbPeu1Fm7lTRuyfDGafdrlZmNf3ox/DzkWa21iDj0jRfSIS3PkSLkXayuUVLs0ZyroyoSw/tHdQZRWKhlwOBQDDK7fKfSB38GlJw6E1sYG5cgiCu/jF/S0wPRU5uIepAcHn52GiQ5E9eXuqnsB7mU0mnn0O74iqineoK92kLh4yw/827hu+EoEEA1NiFzEE5j8LLLQCQ6vsrDDiY6hKsyd3hQBXl1t5BdggUYT6fBKtiDN3MIgQaFFkR8RUHRFd5E1LlTouPDZ8hSA//XmZZUlFL9OGZNFsNZQmphGcyfQy9c1wE8f7Mg1Sx0/jWWXw31USIF1MC92LzW7PvCuP0R/0RY7Lyi3xYKub1VJnPEOXRDMtYCoq4iWerEiam2fQZEpT6MceahQgSgKG8oEEEQJBBu/NoerGHFu4sYfXqXjsLSwDTb5GAkFukGjjagNhXPhcQixFemEGufi+2TSTEzN42UruklSJ0ilJWQxPvr5SpaitYQn/cwOY1j9Yh09WQPFQytRUt9wAcnD96U5blcumJqLS8aJG5gF5KNKpmGktDOwR1xF+KGvE0zOYvwcszcGoIoEUQFYhucU7feuGJ+KnRtptz/ZSFDqT2pgWTBrmtupNYu1fbNzLb7JDpDJ4UF/eaADAygHCexf3WZa++oY3Y/CoWsrlL+y5BCT7GRiafIhmI0NEbBkmKiiYdPoAHJyCnOQYySeYouxaNX9olailw5L3OYtxkplz2TEEL90DkWakB57A6zp1TGvZO/0XLZS04NqYlbtUunlU8tV2lRPt4TQ70IhNN4QpyWoOMmtXem1NOaFXygymA/DJof/FOK2WzGJXu1EeJCz7lF54n63Y0afmbekdUX253XWGDM66jCNUhMi3YHn0aCy05PW7eG7z0fFXBMpj7HZsG+h5R85wmyHLK/Qf8O2XXtQIak+JiGiWvOl36X6I2A4iXHcjx6DdH2zcrlaggwM4FKhGOVLeZrQrQkbcXD89Dvk/GaYMPhbNfXayIWGD/dtSjD+OPb2xpk/e/FUDVkdDlRRhkAcCXDgVtay585f5/LzXy/2iHDn7Ixk/Dv1oPTzTsC1DGRuxe+o3SU8DLWunihm0XKZme6w8Fu/CF7TCgLJmusAl8Ymr0NilC+bM5pp7gxCEkXHBZEHphDAxaOXfJhk8YlKkiParzolwz84gLW9o9ex9x+RTsR8csGlWXQkXKS5+EDYYlsU5svgAhBaQg2Y3Ot7qvSGVGeEcxUNDeJvUqMlOtsV6n9+WsqRQQjwfpmnkqDgKPYAMXI85c2NJn7igvCgxUF3H2YYPL8WX4MzrndcsV7x+UaZs2/QPC6mvA1zn5Tj1gURVeBbiK9cFOb47w9UDIGGVsR7aJru1Jk9N9caAS7DD9B+RDpK9CUG17xwQ9OcvS4oCwNelDdtU/TRE7ryMi0TUW0iUipkH6gsB3IYsaEx9X2TswLQNhWytfjnQkSe+8UOXkKvV2tkrgIOf1ySt/qyUmh+lPlwiHOcLqiJubYwszvvwRN6cd8E5gKSRcuuHVS/7qwZKICPkKaR70Z+etDDHuJnNAATNHIiNZ2R+wgv9afmpkiYREpF05qaSf5PREiZj+OPLlbP0qN8qvGdGTzgmbMAlglnOGYLbgdhw38qB0F6+VIKEyWO7t4y48CYDCyhTgAC6WNVsJbvRs0oAWE0kSentbdKJsZjH57/qmetthOrGPnm6qDT/fXtAaCXghpq0eixZUbylLldy3rbXZwhPipy4t7wUMzd+u4aC6CNcVVank/KZr5L2udmH1Urv412o/WriCcZI8M9NzPZsGRTLOMD8etvFERdS5fftqKGL9hwFYvIXCMQZ/KrIsGR8DDl2VmmnHxI1gQCbXv6swHhhBB0jSAhpoIwp1Yvhc94sOst133ae2ODbUV+JY6QzjZar5KMeq4Q1bjKuOaMA7QX7Ez+QkcHU2dd4nU33P+jxvWHVoP2riD/OYet/KEJt+02fRyosRilhbT4eC+D3B5UM+R0i8knjRwuqwJZPeRNfq6FPxp6tAcHu6XrDPi7cMHliq1F2LH5GXkR4airrIGrEOs9ZcimxDlx1XUjGYnwT3MDIGy9bdVvY3Y0SP1hwfRxlzUBALwErWWwSGad/t4qZZ1gt3fRTcR9Kr16yjFPELsfA3V+kf5cUlWYyfGedqYIjyxzmXmkd5RsufelhNy+6GGoaSHJ5ehLF4RHvfJytT6wBczNOElzGk5Nx0iTdt2+6ewY/28HrFyFqnPLOE5NmBm+qazM/Ofn8dYqrgrv4osVNL2FxtX0NugRUwTHRT3Nrl7gfUdZhRwMFBj+qOWabGD0PFr9JaWYaOIuO2NHZdXL3IWlcKBcIS5rJ4QlPkG5Nhl1vXzAuK51+mRDkFRl0mkoYnrw7IousHl2YF7Ydx9zdVDYfQytlYQ1Q2DIFM/tWFuaYgaahSBjrkND2ZOqC7+Utv99R8Ck6lBR5U6e0nBkR5qW6A4tgjYtwflW4C9MrjqfpNzAQtbVwqNb9/Zq/E7UrwvRh5lEbrwjKgyuIJrIaZZrBWk3XLcJNg8XMBvDTd0uPkwzzVXTwcw4eghPch5k2k5e9QVXTtxzFxtHymbcemKIMcG8ZO2ZR7kn9dkEGY2tZPOlb13SRTDojAPdpktZYrgMmBVuhq09i93XfXv1Jxx5jJ64BCj+0v9UwJFS2SEdrBTIl+KYBfUSBeLYHARCX/tLUsolK8VObJ17ciJFUqh5ZYQhuyBF3bltn6kXSVqngu4RwRpGWIKoP0Ii0Qm34Y/YmvYDt54VO7j4+r3bmdObS4+52PLH6EbGd2w8mCQiMZ153PXsDJChdvrdYm9TNQtYC0ZRd+rO4TxvVNdPO+nLhmyXKjBDc9FZz/WODlZ0UYV4ZrrchXoaPaZZQeCOgI+MsDLpcYrHKQYzV1xXXY4sY2xy913N1X505X/opidn7FF8b1g4ikxIw6ZB/nxebLb0gi+bHfWxup+DF3QDgQoxlMPFfzb6RVNSsiRGM5QJb70IS/nz89HrzLaXtwJyGZzZKPeRTha/8rA1m1zI1ors1SJyFH38QYmsxc4DdkboDpfRfRWGpzBlrUc0B5AGDWwc77x2ICGyW47yqcWVWsOPKhkH74EcAt80gKhX0Oj44DapAJAm7xTfM8uXCI3JSDCF0cvqWwqvUd0ry5GIdcjGpZm8nHVRVk9PvIkWoL1TSUagL0yU7ji5l7iL/Pe8435QLBjegZC8UqRoUo/YT4MJZ9i7ZwOmythxtPNRBvI3PzWMWV4gvb13yA4J3Ma8gKGO8g/JG0JueqfrC6SlfwcjrhKN6ym2l7ybWoNgqgxJk3REr+DbowvOPAdW8A/DNRWGzEEvfdmZ8itdNFA2l1IQPH9AchuJ5FwYcOpIfVkYJDwUR0CYKnUlh06mHSFZaTDGLdsCD2HNcFBWiSLTmHqTmd/WJvWQTdVkaPysfIXdDe7yYFAEdzlxxwhvgMbvCfEUGls8Z/HZDdnrJFkecZx3gZGuQ4WfN3uOlBVkJgeMIyRmKXdRh0P/d2bunEJbCzFLDUnNve1fOd6HR2RRHZp/tupImlXTer3Dew3bzvMilRg9449DQytIaarlrSolGavE2DgveNlGXF7OLwr1c5Po7TJQNdIYG++dNDYGq4xZDSsgrQFntjqG0QVuKHOQjf5n9gtAS24lORSQdY/RHkHxm0RZ3bPUVyW2h1TO2PVS9ivIgqnq1LAgKmEu0yMjQ90/ZcYHi6PLNsobB277Xmfq9wTH0mul1ZUO+F4xGr+WhOT1P+zneiApgXdhzG87G/OHhsJHjhppmRbPQW4rzKAWFtqzfQ4l/cXjnb7tPB4AgaMpUymara92WZR7Sx3cV18Cpk5i9r3N5AS6TO0YOARxziEul8l9QTMLBDMUsxZrIOvh4vsnCLYP14teWViWoPrM9wWDFOtCRT4wPovC/D9Cksyzj5x/cnguhz9XJrUKM3f3oP9Nr23TvJoSCwbsxJy0wjF02aAs6oJpgjl2CgD393uqZsEHnHYXK505eXIdrPJxNC+r+ZKWoCXu1n+SbIGB57sZoZyYACSRCLX4RSsDH4x4mO5xtpG459gk8MF00iymq80NyA4zNEAYmxP1M9pMD3EX/KUSAnvlLECwuW2rqXfmvlsV48HPF9Wl0Xw5DXebufXlTfRoYCmZLIzpq+8qT6Ikjg7P8mxHYzhjR9rJMA81FityEJH5x5nlyEj2IzFEx8veeeKZ+27lhSe7kJqjtVtqzoFGHTVMGvki1rF9WKyuNcUKyY0V3MXrQs6QtTRax0mLnFk1B7J4aWod269Xn2rfO6CFdYAjVpCkhVabcMZxyFJBBKtNJOHuNdp3bLCpdb4TbMEm1AeuaxVkT6YHQIUwJZpbsWSPSMuILY4ePtITa4It/MhhofnpeLaMOsDy5cYbSmmKJ8zanfxffKB/DcjIdddEpzRciCeao2FbrErvqMmvV7mJrYaoOq8PnivccJWqh/gvWgcvj/6VtLQHz54l+yZGcIjWfHuv4uac8t2zmmCIqACSE5G9zsUhtXOGzoXjXUfL3HpSTi59GOACJQxxrs6xUy8FgIo1LI8uYgnAYkULRyA6vhlpjzbJZdmambgaU1VRmrVVl0xulDeq6CbQmiP6XzELCtvRoAxBkMfiNNqs6x2cKKfUt92DjDELuEnXfYCyLFgEbxnKIRnNTtXDr/phWhn3m/UCGaunVoAsbgLsVCG+EQLj26pUUlc1oXbvKAs2VWM+ph9qRRXmJ/0lXqquOzwLD7mbEZlpxdkBM1HRx2NPuiGHgFrVVsM9s7tamrjYMuZSrDMyZYLrEHgn3IBbZeqbwWAUNgwbORuapWCLuoyVdr9aAP/ErPFUJQJvBoytx3zr/4Zv7DBguakcWQNkAel4mGqnCa/F01rG6FKMOllXOZczjrAOo72ateOUAItfmu/MGe/+/wqbRrWzpmJuUXsbBxPCjDLuvUZCGQQh3ySIfcJ/WSG/JJrxjh0iPckrMrPOBQhcyy8o0fvgDo0YE/+bqlaTpXC1Qr29qChrlYVS14vn8oZO+d/wfmiJOo7GGI/LgzI0dooAUnrkU5x7+Lts23pF+DDPdRfXFDTLCZtk1cJCYKEekEUwOec8dCqKKkP0KwLzLbpPCMKcWEYshU4VHXcE/S8GUAnVZTYr5ts4xwuDXzFG2OpoXBKlFp+YIwSXZvc01gm5two5l+wZVHgnJBJ+KnzkdzoT5yV5ZJ6/HKEvpqANREsujhJlu1FE8QU429tP2FPp34+Au64liWwSSyz97xqiSPY5M6SmPEiLNhyyTvn46OAFltxhDa+WRNupKaUNQX8K/O3Dc2XP8SEP0ZLC0aSDWMRJUsEN2raYx5/fmpOgqDWHpxtZPM8GqV9S1iYbW4fPgBvIQE4PErucx5L+abunUSCqXcJm3E3JiZJQwK5cJH2AYBnHwuMxGAhk678zCmgeF1HDKQfvVahScfzbQQhbebLCDXmTPECMIeIFJiuI3GvVZWuM3zVXNgO0eJZ0LYH2zspowQXw2Fjm/ryOmey8KUwz/r9yUPwvhEMSaRbUZC2ffv4kf6R+cjVGaljXxsJ0x10lVzH6yhwFHcVFu1wBWIpOxIXqowPho31lvTDpl1iO3DcCOlHQW2y9UO6AeHAhfKiYT8S5i/eKbmN5zz9VNdh4o7ymezDy/5tktt1S93ABrKsqKKRcGaro0FwHeNNfH/QuqlQEmQQW0shcBN6UUaeGsPf7UKqnZ4TDIWxJFzkVRHqOUBf9hdc7RWx8jJUX27KH9jEAvLlu31ie0kCyRtWYGGnGXoNC91wvzeqPTbdAnA9ugSk4Uv7LqLhRFz9Ykr89catlVn/5XkGgwjJ57s6qpsxmUO52bj3IXoQrRPfnBhNysHSkZFvWXp4l8LSvkkOMMPnbZhfqE4hj9IKXAwssEqoGDwnhQmeNiUn8ofk/yKQ45dpQOLgcKY7gWm/LmEaXVH1WZh+7LE5AzkEKjT97kQ0DL5N/mZaMKMVy6+tF4ocr5TqO6RSaiclgYRLxNJF+3Fnp7T5nGVZ+4N0yKYKdcgi5/t0VR8CgM4ySzcXQev+TBtWNbRWzNw88SrvmdaFddaBRWz1Z4ZZr+vkXl70s+99gF14863N4jHWU+skAMTInlkEZgok4jb7EHcLc5PJeLt4S2BLi/Lj1hMZK1wAVnnviZjzlYJ5eYOZATE9OOS65znbdp+SG31YKgci8O+R611eJ14AOyi2KIDvm/dO0uKLr2//Ncj3GWvtPWRfKKsHIIoDGoLUyzUCFHCtGyjG58tmLCPoB9yGm9CcLRkkTE4Mm3WXoPUbFbj5qmJapE/J9a/VVa29tq7ahmQfXRfLgM7ZTyCdw9iGR/lvdx1Lt85PQ8DhTYUnK3cYZLZvX8Kz0z964OSfikNvy67DLOTM3ityVJ8WM/Lqunigo1agJf9HTUIFvaunIRtdBtVu6468ateRdBus0pt9Zx67OXn2F0pxtP16ylIQ3tiYXpIe2nYhDfDzGfSwtnsJXGUcRFtJ01uOafUvHbWEQQbcMf0gzErZ/LPRg1iWgNoRrXRTGVJ3BLHdyvCsFYuAkh9j7kAXzdxLGma8Ln3bRhqGRBS32WlbltjakvuloJpz9BotgYqpBe+OEgOqVf9+UH4k88azCGsy5wHMc9ufqwg2/synurxvayMBuwPFcdNh6HAS+kQl0mEtGU+25N2iF8/sEZQByw2hq0pmeYZMMAvREbVI9Z0nD/zlqmFNCwdcmbFC2MGH4025UGRN5/FCjEXuLo7SNP3T1CL7Wvaw5KrK/EXk7Zf4FC4NTw8ZFmSI2r3wvTHUM+dNaQCA8k/WMt2ZHY1OWjGsw79l+CyZHUuOz+5KkELkk8PJIGjc8a0uNo2Wy/5uU5LBYC2+p8XqhGCP656Ge635piICLA5hjpcDXnQL7ihS5++BIK8OPmoLxTUBjq+H4s6Xb1KhVbty++xd9D+aTwvrxLVXiAsso1NYt66kYd2DYY9r723BhSNXsvSRnoeP32UuCVmofGe4u6nWyJ72Zb0b358dbyBnkiYUBENCV13dlRHE3fYxP4ZYMGieHymzF+MRCh20xNWLQk7rzESBvNvk1PUGXpRJY4D0/7q5y5Vy1p8BzT5qZ/hxtAnqSzw3GKUu2CTE/eP72jhdpPwNeVDRw6OnThLURgxdg9TmHM8W5He7cjc+A2hvilozqM9KwsQA1Co1thqkslimPfZUaZZuhBsg1nz0O3PjJzk/uvyQc2SxlPZkG4S7eD4g89ffDqXKV6S7pEBEj6zpWmwRm5hV4fxvQgxzqfv0IKHVBkzbfAT8ciaj6CSgvKv7VEem64pDXvSI4yv6XJyNjunyl1b7tdQNCrF74cBSfnZUcYIWlWWiEcYqFPbmyhDTuJuN2VMdMV4gnIFOZsLam7nYcCs9oy/j7qcZw4EZLniwldlZJLulGSqcCNtCdMuXt3xrgGC9/wedpU2N6FS11rliVoeMpGoFZb1t9iu/83pMwX4ZRrDRKvlOitLhsR5peE3yACY2xbQ+sgpsN4Xz2eViVfFuIBHLVJpA28Ckgjtg8osA08+riNO4fvJljwnzA024VWJGXp2+WyLHcUhhy6wcTkeuE0WP74qGUxg92nmkJz0JbEN70JsGw7tz23SMVqUCIT5v0mhudIC80YvdPKW7DYZHa9cM+Svo4h5GLzUIRLy+4duNSHVibLnNkaOs79iC+24190oeQ/pxzautC5oRZRKo3UsYbAYnXZjEkH1fUMqDRM69JqefuwYtQw3ycvjHTtZCMrRv8GeWIm2ypZOxkj2ZXaJNrEOe4/2OOGAAmkjv9b+32RA7Z22J+VYHTScoykA0srOD3yes+dt/bmegIT8Lh+8brkKl2pnpf+PHz+cdCp51Wu2aLmM+yWTSIxVAPMxhFkZyhHKXAB5hccklc6/lmGI9tPgdu41Fyzr7Qkqq/8V61vWHxDUIjEJzMzXb4blX2w+1Y3Tx5cpisyyyV4XrQZTmvEiv9zNQof3qhUf+kIssh59aj9CYXqfkltYp/To0ZEb7RVpcHj6p2qgcwKMma5e2UcKjldnZza+3ZmlDPLS5ZLsw9xwGiHcoBlSQ/95hm8zB5vpgv1dc6CIUqFueG8rJgS3lR+rIXzFIG4uXdigQx85IgQPeEAVS3zkFJNPFTmvpx1EMCAztC171xdj/BHX1QAkT+DIdh9eZobTtgOkRaglUpWpxHKP+rbprzlxh4TCRhpnXRGT/0ZRmgvWSWqCWAoO7GXg95mA7wl/akiMtUl8QiKFKsb7/B4MQihS+LzHwNHUmITLrI5rrvbtmpuqAS4FFJpgLMmqkNaZ9UKEzAw0LLHvS0FAxKab2jk1hhgKILkRp2vuGUQqGj1RUMJ3YDRv5Bzi3Le0M68yJHlkp3pdkagiSQneNooKoIUJo5GNa8M+E2kZlYeNBRJyogLbnvMwbx0qvgpEVsFQvFHR3Nh0hmm3uCsiUCcnI/D+BR/aV8JXhKQKj1U0kd+JdZQGYD1+Nr4UV599NDH9Gtdt2afbWoS2GXib/WfM+OPt7l7qIDZE4Nsg3yJFh5gm0mNGyRJIJGmVU545H3xInjL+SV3fgSoEfl6y50qypVk7qwyRqdeodLBaj5bIP0WuLQqVw8SkYL9E/sHPqnbs43JIrPUwFoZxdJYYerlku4HXGbK6pwBXjzThxbkKjOoZGFz80Ip8vMz5Krgd98qgqxVllxddnFAJbuT2/HnshDbkEfkNQnkeSpwek2hwOpSVK4jUu/148OEhtHJTHDAhQ9OfmVpnViV+5GzCU0B6Z+YRKEwp0GayHLn+1ysiUd5hOjp/s6/FjzqUw5OwNaM3U8Ciij1ETmzD53DU8Yet2lp+tNePu+rca6BAxZXCZ/Y67xA8E+2LvKMc9zp9F//uSW3KFCodhG1kFM26cSTG5vBq32+fnIlGX1iZshhUOKEoJLknDpUWyi3RhhnUTPAsG8jj/NF/pt4q+ViRt80w1/XUn5fByDIE2vwJ5S+ksrJjb4n+E6Rm1DHwbGv3HOt1TfoipAHdfjd02KmWW2zN8XXc8u1Cjt4QMgh3K5JvMb28u8YzqZf/a9ZZ/FjFC+r02Ue4QGo7EnmEcxKwYxlYTZPfZqgVOyeSBFs7qnU+oBUGBftk0GsgiQvIpP7pILIuTiudIezsWRgPnUeLcEyD2+uAgqxggN9yxMtCS2153GPUFXJ0awjRqqQormlywI47rJaClzaFWzJSucBo8vfdZdp0JNwnAWEPNsoVGQcNhxcrxRZkgT2fihR3DY++QZjmc88Nw1+o8CcJuClTBtl+P1HqPPa/ty1PBr/7FFp5a6KRPxeIQ9KPJ437l7U8hVxoI4D8qPJujFDGPbqRKu771kV5fvEyeMlNNmmST3C93Vr1b3i9MV0sleyfzg+V3jxgfRQs5QevosQRCMjgCS27h6VLsMPLeLGZuqqk/nE5cXoglHECREPGHEi3Q+eciQHo4+tDhoAQrOCdHmYCQkFYqO5UpBEh+aaz/4X2R75UsS19UZFXwUOuQIkWJttq2Trz5MBRS62ZojjuSqqRYZFlD77Gu4aSmYZmQvh8BWHz/fnn9+/yz+JMFrbcombv1cdGpd/SMdht1NWDN4r9VBU2bpfFAwg5sPaW6kts4dMO00hgalTGQkspl8RJkRCpRiDMC+lbkSedM96XW/ZoUp3IQLi4+2aXjZ24dQ6SgL6af3p+CfdHQnJCQt7qMuJTXDiVgWtsYezBFKUNbzhvO1NShRyOoEDZkdfaZUmOHFHe8iUu+8lP9dMZdSJswiSMRPkZfezoWgKH5iEWn4yUYnSrlwvwUGBsjLA0wyNV+mC2LTLE3tYEUpZd4FvN5/UllKS7vn1Bh3rGxUBlMSnqsFk16YhC+1zQLcCuJ9NJpEBWS0ylzPsUvCYJeAteK9iOyTY270sZ1KzLh85Vs5l2NMTzyAEzGkzyJl3xkWU8T0ZEZc9gB945YGm5iZ/+HRKHHgliz1RBty4Mr9xLb+hx8ZRZruh5ZYh4Z3vrBbW73YQHmT34KsC2Y6vMG8HiBkmsj8Cy4wdEwv3GK33zk40OzmzT3JHqduYBghiH7tJrNdnoERmXS13irUA/UitOD8LEeOUa6z44waNOof0xvW8ZpFYhWMwWthKVtOvDuq66cT29mw+91d7KYXBiW2MOkAywWQ2P03eX1jQUubHMHhXlC8/0YfBVoYkLGnILldDPUa1zCPd/+0NfId+dXVTamtFmC3QBrjL2lHXAwwCGkjqnjx3ZB/uxJCKYaNcmW8TlZx+Fv8tNYA+a5YuVG4PD/FghpXVYkMFXjBOzM8ECwFUDX3ZrGUT9q3Wqx5CciEoSpZolgqzXgnMkALfcKWGvb2R59Fi1KtbnREHaqBtwaDC/5M6GPakLLu//gnGo9opuTH74ZW0qh1ssRwuqtFxTk4qammL/UjvMBTgGELKTMWyPlzXadSTs1cfXuHJTako9P8caJA2xXGecpFogt9PZlkchj7Ilfl+zutg90latpsIkIzubhi1+KVqbeATZ9Yxc06m6M92gNZflWulXK8boOwPJtFVw+KQN8GuH1DIBJceoMAIEULUIUziyrpdXtPBYik8ZGtPUQbVQVq0qxlj/K2OYX+ZT7Jdj6dbXYg1GUiWkCl/QooQPzxsotcOZW+D2lu9qb3YA1OndiKFhqyg5U8g/SLi5jVE6A7jUuuq8CeX4AWZxcw0csfbrXoB6syUlB5pGw15dscfPGy1gyRvBwpGac5Pg/Zqpoohi67n0QAtqBLOtGNUEZtN+81RdRyT+AJDCwIrWyIGaZ1YTIRWt0Om6R22V6uhtOVazk+0Z8v8lpKrC9XiVd6R/COwF80/M9ryq/rFW7iQ6vJ73DvTA6Y3c22bdk2fn2UiPErZcONp9RHnPXsdg8c55VVTQIyAoOuhH6Lc6KhGWklgl2Nuoa5FlWKkge3aka/r+gi1JYRJc0jR/Kb9TNnGr9vApj53R9nZ+59Ke/QjdEkCaI7SXzAmAWwrMUA4VsxypF8cvdhnS32W5HlWw2qQFDFIYyOoCvXolcVfNQxxs9jeasYCnOrPAbRNjDoFjxlnr10uh1NWzvvecsW45V3qUajHHTBmnHyLrwCYZL5UcF+It3x9/+at2WknnR9KghV5B67xaP1MET8Btf6vVV/kULGxuZbfH6ULCd7dQNisJT6n6ZH7N5CjYmoQucfq8Rry9/xrbc5rseBt3a7/JmRuFxplOgSAht9uJqGdy8OONY3B/8+4U1IJuCLKx9xBF490LJXfcLlgmFd/83LHwgoZOqJinFW46/GluxDkzTslu1byFbUXYt4OwESHu8jys8En8eYKOeQMEpPXUxN+f/j9kIRCDv1jTBnugdMiRo6wi5ib5iJZBQWJmr2suE73oHgVEqbhM9+UV6YMYuGw6FvKOaBdVhWPIuffGUzih+UCadb/E2f7/IZ9bM/zKfloovimCDvqVfeWR0LYFmyV1x67DZs7EFvH499kNRRQwSjVypOHrKWjJLSxHH7j9H4dk6j7Eut6QVvntf6T3JoUimMJV/rBKU5Y61iN9iGX2ug7tzW7G+8PXoOPmNzaGJ85DMH9Oekqlcu/+4EjzyJ6X2Wx0I3meP2SsETDsGokYz9n1Kr1evALKdEfRIM13jQPPh7o3b1zvc0ZgTVblSmdZaP/oCcwX8G7d4mtnnOrpPrU21pRt6R17YMnDc0nUjRTwXR7RXFLHTSkl7bQJQaMxJry48HFg0zeFPIyjQeGxltbIL7rJ1c6pvV4psMtTIn4TzpURMqCjC02QyJs0VT/EQyN6wK0IRZTZRzDRZn8gdYs1grlRdTeOiwr94tH99QB7T9q3pBVJGzrrsFiRcC6jhfVqHOHjwgUl+l+maySOTK3M+XH4dSHJhp8BYluRvIVjw2vbNOvUuc3peab51HjNTMYs//eWE9ZRGI+p+GY/yYQUCN4UrWC+52FS6ICgEc359cRcvQsNC/5wxrCOkeUn+Aa9VMv7S+527lfDZA3kD3Kmx5p2yBgsETByi9lsBFKdZvbnlXrfg3yCRYUlyjYwHjk/EYUGeXJ0OR1Fam66eWilIgpzg/95TI1zzPPrdhJLVz1IfYYYVegLmEH7om/scQGQ2ZRM+ueSGTwUtf1hdQPJ+MwV6z2q72oCcZflT/kNBIw7llIoKW9eh5NIvhIFrJO4FGTkmwBs1GlcfOsZN9eqMuVNIzSfTXwsUrbVc4zlCTmRINKfF2cRTHv/GXQkL8GpA4hBGjkDs/83zfszKvoidz9jBSdO2vBP+WjPr7NYOVglkjoPuyHC1nM1Ji4xwaD/wteIZX9f0Gd0NUffyLvpJkmzroCwLjQfOf2tarG7u0p68tQRI3DRiaOEdQHmzCj7rxaNIQRRjgg6dHA1UHEB38NwwvDKVi7Y6hXa37tFNNJmx8VYUdNAr/iRCuGWFqnIuyuVAcoB39Z40Ns/IrhACoqNOgc722nLQ0l6nPxjd6/KEWuR0If4LjNStrfcPiIWtakXExHIsJVATwotS6UgHCEpOngsObzN+M7tWzZp3N0eUD1LXQ1y1LEHLgRFpz0oCbQfuChTJBbJBMKMWCi6DN1xVeRNwN2kMnuaPV5pQ8LoIz1z39FR6xgzJLt3gouB63tpBXe5bT+W1McSCyXlqLjXwO3ODt+IG4m4+8QxmJDLVfN3xLIM0o9KvuMyC2S+xRsOjKbP4SzA7NdxrtKUEFWcrQYv7Gt89Z1qoaob9pN3JOms4Mxe9B9mbFLhjnKZf2+7HZ4fK4/q7ESLnjUAgL5uN9X6WCzNVP8ur7aT/8vxTlnot14ofJE5mHwVwc0DkpQR9H3IS1CK3b64JTHvCMTP/IE6+xK7dNkggO63/sLOGP0VjqV3bOhjyYAlyQh4SYkSqOIs4PqcRpq0jYbABl3fNRxYCFdG600FiJIS8O4b4y5wEYsKdokawY2sdEIJX2Hfyn9SbK/lHWLVSnJKqy7kGCOSRnUFucaG8dgXFZxlFRnaLp0nCQs6B6Kn1H4Um+iEM5hPP9tCaavdxkptsEQCsgrzu01WBRU2Z+FxJQ7TfdE31pJE3P2xv2V7pH5zys0GtTwQBNt2yTcX+57gHbIMTUbYf6y4zLY3Qv+FHe3QhOSHktRUpZLYFMgg5H2kHIW1X4h4sLVzz8Kee3tflS3Gwvr4meVIlpTY+hBDJ9MHHrCvt09kmZa/Rb2Cz9m+j8OO2M9c6sNrD2Mv8GPJK8mH/vp9W3kW7el4MNq2cQeg+nXj4QHeow+lTFAN0SeOnUcac8Nubs65kWQHlHswMOCB6bQ6o/ckerpcZzhoZcdvIQbpZaTcYX9MZQENpd9y8XXJAeySZ6e2P56AyH1Oj0iKHy10KWECKZtno5ZK1fXjJ3sUbNkbNm/CG3E4dEzYGluTLQJ9ptBYvbVyfxrd8FU3LMXpXhEbtHnvar/pShFxJ737Cndf/tYb/kA0yDkctnpmkud1JYt5cB3bAqLGvaHWI7TVt4KfI9J0r1XJHlFQxnAIDIXSBhbeUbGO/wcwLSi2sfZFnJ5sWVV9n+7s/snyiqx7EBJZc1G4XSOlUOpJx96HeqMQJoPeE5auVINJCO1ykBc5IIv37YdRcxcK2FkSsqmNZY+IDggCJtUsjsZitQEvAouydPgL+Cs1NHk5tRMwO95sTMbIK9+bQdXg0hBKsqSmAY/0Bzl8n7iVrl12v2+LGT+XJUmYYUcrMo1oSpIPa1CUx3M6xWV4q9s7YnYJBFtVkc2AXRn2lxG7GiJDaS9hDn9C38ySZ/arp4TXuKI/2j6ut+TFqznvnSpUr5PPbhwrntT6n1Cz4rcGFSB5UhJxOgDFjJKmPY3k1+Hi/4DIXM3jDDkYy92altHZG6Xlc8tBsQdVsj98WtwgcPdsMikz48L3Eh/cMB4BX2lmkje3SgUzoGpoSoBcKV0FFO61HuNFOAVyid8kykwDsTSr28+c3lWEMP1Cju4Z65lVhg3fFFFfgIIZ4c7zHq4n/xmbyGtXhMFDJQsBHA46Uu3Xkf2cvu5bFAWyxS3l+t57jb0emNsGot1XiK5XV2zaFmbbIgAYg42CO72TeRAip3UdtO3/NU1O1U0xeZxqgukrMichw87Q0j9oEnMoD6GuPigPUQ0vA1EGRYBlioI1h0D5djMe/A1U9Pl2XQ15LnD71sqtxAZAinoNFHyWTVuEj6+V0C2d8jq2TfvNmJ+/UQF0KYjfgBT/rAQCaNKXfKJy0BfsQ5cAdAnGkDnypa5PNoc5Rgh6z7vpwlsxEqZufDtuAgPbovvJI8AC2tFcT6JRhETCCjTLxj25IPq+HPn67115YvtXLROdXi0/WC+/wch39ld4iX+41qS+bjDTQgOgjOr/Lh5+ewzWgfNRnKAQicKtFS1ur55nGey7PdrcQCcNP7qNHEVCEvxSNafhetltQM08QUhcwyyzm6Qb/XwqlaNDp1chRLTQJ+kkQkrvub5nFVrRQWIoFtbVdVTUp0XeHznSIKHQGxwt0DX6T8z5e7KB9DY7b35SztOk1o0fYfxGObJ7aROioXVbbGPJkYPy6o0FE1tQz1GKu02hiHSDhqfrzGHh0ROYfR7QCfebeHfQ3fmAerRfnN7wnT70z0VcmovYT9WJsLEz9F7CT0geMAAmqfw+5yBKq22p/bP7gCpmRZ/kKwQSHXnNKtcXGNIdWKswnnNqSV5qncq+r7x2ryL+uYhDzNncyRb3sEpwo3vnhipnVmG1pCyw8yt4VybMSgm9DTgOdgtGqSmLQfRPGI+dfNk5skvehxNSnI3retc+4KY+NE6Iu19RFqkmjpLF2baS+ZgnqDShrcIzjLSfm4QGeSbUjGBIiUs4hnOBtZ5WbD50evwA8pAbaG2znbRGHjHc6YeBa4c7W4O8t9M3NAaEpqfi4GFf96QkqECwKaGQoWN4kAqOOLPL2gM4Bb0cwcNJ/ZNSKg3+GmoUB6Sv9VWTkddvawblxpMHBusdf7q+CgqLCiO4NmpSMcflo5WT/HrOkG3Rfpnzv2AfVObOBzU4YIh34y2Hez/6oi0AOKg4W2gd4nLfNJ5cQhYh93vsHQ62Iqcn5yP3WcUqSpT/vcNtrupZ0+FmkPIP5Bu/8TtbboJ8hnhO0dvdii48iMVY52oGzJ8BqHiWUNEKdp9WOmdUIvAAqbyDBR3fxOnaUcEYhoCHz5p6Zwn0RDXSeE0gYJSHEcgWbyR0NEP/TIwSoCNkT4QuXsKFaH30MHcjCMyUgKVD/DZGJp2p/S5VkmjifU895fbjyYDOsbAAaKfFf9a+9eiocWlrPSDSAy1N8gRnyeO3kOuoi8Umc2etmYVX6R/wMzyfqso4Y9waX1S/BMDHOagMyzPImUSYyS8OAhaeDzYgCofg1s7aqNqdrmBr85A/tmt9d1L0yQ2z/QQ9PuUE0WWh2SMfJPmKEBPuGNE6q4cxueSUIpYg0YdgZR3AMvUv4vUVh2eDVG2YddpeRjuJ2LTmv451lx28+J21ErxBm9Gs9WSH3hsxkOzM2Bo3iP8MUPGlhp/JB0ltn+8UOrIIuB3sdWTwqV6ofNTbaZDe+GE4MArowm+n4j6SfIAYO3Dwmvohz8gQaiOMfgjBafpQBMp/VxuZIxo7oAJg5u0c70vdWfsdK2bUn4+yzHE7ecv1sAYEwRjeCgEfuTtuFsY04+rrcBPsTK1j+CaB6J7s5KshAgIiqA61oqy2lWQsZKx/ti6eCGyYrg+nENy6rvYU28+WRTLajTPRAPM2yspIjgNIvs/vheyqnEgcIgFKpkmTg9YZ+EX9BSM4YtGKJdWk89BfC75Tuxu2MpcD6AmseLhm+q8teMbXql0l5py/zXGXpG20wtjCIvU08GuuTJzLabSyoWzaaf+pNjKZEhxym9S9xvfAaAlgwA2HGtvC7zkRlJVoHDhZPbz7dF1u0MYN7YERnSUs5cA1vzXVPuu3lADgMGLAs5oknX6tRaspP671v2dF5sORSMb2P5Avt/z1xc/+pF8vPJoSLxro24lPChTINplnlKm/72RcJaMJn9Zr4lz/o2m8Dwk43ESEE4RCa7a8zmSzcYmU01a+wkLLQnCUvGfL/6I/P9Ft5IFFqLW/0nX5+WEoN35vx/vjuMHDtAnxLKiCQfFlrdIAQWdlgOENPHi/o+gnc1hzaAIom2fn1oDG2Ilm9SNpJlYLndlh7+g/9jMamuZy5mpsI9B7liG8ZLzYOexJiYSTXIfAYE7hO3O7uIFryYjrZqbHWbU8t20iqCA6OnNjIp+LxvbOPOsdgOp13JW7bNgdRJng1/T8x8jChsJJlz3028byu4TkNdxelNh8YDt2+pSqAAST4KkD2Y/zZJkdHfSKcOWJXoMabM/Wz2pJUVtHR3adgfG1muh/UyPEIdnrkj7CmyiEZc8wsFVzTF4LJFHz9oLblFgPo5EPVp2JH2+J6yETXHj8s9i7DwDY5ysUtI/Ea/BVR2w6EDUWj3iUitwwbuurIJ4nCyTM/o65iEoFgFPcu+6zjijTtnJcfSVR9IQho4djyBqjh6kHpgX+c6m2kFw2LDxH0O23tb85lkzqpkN2FlZNThsJUbDnTW1iwDBC9btNUZs7w78rtJTg50HbVwHDd/oP7U1+bm1TqbTBKgwnHrThRs3IPiEkGoOXOu4NDCcXz3y0LLxJmQx70C/h9KLPuTB1wQttoyQzry19NSjiVRBrjZJtGQAC47I+XGejITsH2AyR9lS3xNkv3EvGlsnySsj9q7rIH8/Y4ZqQoUPw6f265ChZXh5j/wGAOsW0NTeFZtvZ8VhL9wa37LyuktwUfRMQ5LeDREEObHsWN4uA6K5tME0J8Gzeo2njuz/W0SRTJ9mdrEvFme++ddZJdT83YRtYWa4MkJZk//jqvWr8nQQfj3KcpY2tnPpz2rDAjkKuUoMU7KsSlhjh40EBNVbKvyutN38/EwBs2yS2TjNz4ih/DqrByoA7zWyhMg5CLLYSbvg7mIBbC1+apnU0QRQAWlhrG5AKxM1lfPecDAKeblZECQCZwXQzIdRMQ3RbT2JLMNFKFxqpjpxUSsG0f20QFwY9pX1HIRqF5ASApwF6t6v8w4ISFtAjy+SN03ilauIa73aV5DignwXQNCpapsmotaKfrBNbG45QLCcOGf2eWhFqf2e6kjcv9Q7Rgjg8wInN2KOwbHsBDusNZf6/RprZQ5itNKd19eFAxpA+Z/w3OxKQ3F8/T/WP08cXG3ZCxamuPMhhn8aUn36MF3L5Zn9o2cFDfOPcHL/PPBcRaVFI/Jl9cZ2YnsFtshOTQDJcC6LGKgsoWMlhOEFtQQ8ZNfhyIvtPV0sWGEt55XBT4CLBPUfiOY82oFOW1VtRgeZfh7nUdpAupqCdOll5HPlJCapdQBQ5oqZDgYCJNAcaOPlT+G4W713KyHAxcrkzByLorvxGwLxLNY358qMit2Uvne0M/++UWpn4EUjLSeT4RNThWzTyIYrRPadSXEv9JbfIZ/JzAxiiCwY+i2XOz6p8esjEOaJStYZv0I7y03rOxxLbWSuPJS5XIuTD2L6Vcsa+YgeZMXnH8E6YEAC3qIi7HhzZ5NKiZD7MrKS1XGTFOyncMFkfICoOlfVncm3oB/OEvhWsuKEz8Z58x3F2/ExY+hJH8wbzDODNFeArgvOgprhBt92nL8FXeEXGEvz68GxnOqxSAGZvBWkjeTDcqQC/FsiDXd2u9qPB0S2JyiymmzB0UMOB7eJtQ577LVXwKhwIinfldBMsqzoyGnopAydriZVUMVK82FtTEXOUpBjuK1hRq+dS/MsRnw6xPg9RJdMg/QCRBOW/VZiMzak9+Pj6S4UhXFTgZFm7RtW4Xo1+62w/X4mSCsmuI2afQVC9e0eGS0snDFe6pci/wpFHldii1nmnnWW+P0BjaXhGItv1oWzEPHOS500Zs8dui0ua9N7CnuKcw2hiNRGLlTAPAm3ZmvzXZUTwqxCrXSbKhRUVMq+Wjp7wXpNKkzO3gLPTsxxiyNMiUZxYmP27XopWAS1YaGufo3Lm6IIj2aOyZ2ZWrp9Ehqe6fmMleXL5BdwOwcLASdDRj+En+2kRnSKpdzLlpPf66JHa9yCFUlzfeaEMLFAoOODXKZpzglGBZ4MOTmCUF5y3AD72KtlFJJUfcc72/lkmcE7it6xXbcZSPVAMUecYAGwgP+ALsDTGwIz4R/261LDgEk5BRCtczQnwXjeKOCj/VJr+sTqWroEf69zpmTOVDmtJSFCGj1qQn8/6YPYETLUJpJHxpQ3rv3TigSZre6ST7PHYE7pUlMtjrl0d4yGmupCViBXJM5blLQjB22/2RrTpM1ohLwCKXiL0MsP1vyv2+muETspzeqHz7Ra/z0RvX5tYUQG+lpr6v1cvrXIoylGEXmimzzBznTS7wed84gaJhfdPs/2cJIGF7s5/jMO6Afd6fk3EmYw100Z9Ma/SIcum/yitWIiLNdP1NTWMW53lGy/99nXDwh6oNfsamPH04oqsHO4aPEzatIAuVIOqckKqI0MHT2AcfSpjVUvQIzyOlN0OalmlMzc+EdY/E3dR3Y6DouUWhmzmLhvsjOQqtHHlC4OSfBBVY00R2j9kc1kEyJRGG7f8ICC1QmpB9118e4/mmZSzan+dLsvW6hng3oIvwt52ZsmxQC2y1jHkvk4gIOlZz2Z5teKb6vQLYXv+wfJ+c3cCGBqtN/DtwUP2doekkjTyo7bt0I5sAEFZHsnihiYKBwJq8V16QPOaPvhPlgo4salQLZnom5E9J+v51Zw6dQyaHaGdsnk3ZyhAXkA3gTzFFOfpAOQtx9UtrXM+fzPGGNmKaGEO7/84LsP6wJNJb1HlONUptn5Rv4rXelLw8sQ2tWASnE/z1hds/1J7SabcSmsn+g9Xx9/VibGM+YpZNlt+dGS00aoFHU52Jrdey6RWtQZD4lf5KmNxQhzBGyilmtb4KUSGd+kGyaGYMq20LVieXlTy4krinRjSxib+JNFiuQ9+m9VgfmUK/2bQAQJu4A9LPCAMVe6yZ21cvc9TGFtbGbWgwBDFU3drdHI3w4ZKQ80hNyaOJxqh8OiUgINYIOcz+UN6m632E/HnLvYX92/F6q+v1ubFbGFdmZerO/4G4VZuvZA4GjQQmh8WofbW7If9G8mKgT6ZwVkm3RDt8tPemcO+AY+eQYxuVjHJtQqBrBFwtDyBQIXhQH19lP+e6+7qxzs7AJWL8hKstJyMgUdPfDAbu6S4z5K2A8i2kUlXMptj4u4sJS9xxzSvtn2QZS74wQZdaMuGVkG2fP/xNeestGhdGajqEQdFOeJRXIsujgT5xdMZLFOX11LTaYaFHLnzElE/dmoxI4kxbQu5B+uWwpQ5wx3Xwz7aFyNjn7kigqZqAWOTiiKUelEsNmnXf6w7YbXUcnRzY+49nGjo/Un3q0aJXYsT+eux5kYvKvAdDvwYC2uUX/d1uo4xbtc164b0lD1CL01hNdbh0Gho2znvNH25/kblCQ26AsZqtc8uehzQE3f9F71zMKJ/PB4gAQMWfgn9tOoOtLpJPGPyfISxa/ErD/15/oLGXOY+3QZecn9zzfoXiTOQirHgBRs/ndZpBuVNU2H2ruqZSVFMny31Uk7f3wvzDZ8v4dnKY+aewM6AX+fC24ouD3VaYR0JTsJCkEoSEgbMZ3+N0r2AkPi4PQhxaeymfS41F6yanDgxZreFZoyXNUfWe0JrRHCJDBPfu4BH3N1QOcLaubmqvb3WWCzasbMKxlALxfqG5OJi4FPAi7vrk1yhJ5asDI4N906bVpVaEI8TYuZLJ84CJRQP4QrhlSA+qC01EngyJq0moM5FlOOzu32YM1+kudjn8nAs418WSOvDAZFQx8Y5K/KdQRhbzTq3a8SsJjXKox8ffmODYADB5/JYvpiRj9KzCVfU/a9qdd2WxJ8vT/iZOx4cRB6VWeDxjbBpK0/CkVcacie7CLPx2u4sfVZom676hHk8riqtCOTv9w8WPiEbieIle7aBB/KUTx3xIlvdSmLhTjSyIafCSw3f1+/TcA9tInKcCIJoYSqIxOtHNQLp841MMiFwP8XVssSuKktJTFrwFt7Rf4qZ+THvfvrcNuF2yYWxAkb8JebztqpEmedF2FS1mq3/Pmg2woo8QYJ/xOUi/f1JtktzLBsCtf2Z76gfiD8iRDGI2KvMJDy48tO6MgaAhOqZilU2wm/7TMDwvsh8EjeCrBWlnyHSnLNBMk+31I2nR+3jmsZW6lmeFQdBrYJ0yEvJLYZaVgpxL2PkZfZRJMufq0Qru5yV0s1n7WtR1oB9A6WeovAOk/HIms1yoEmZiX/RozW8j85Bh+xiq6kPNUeWU90mYgBnJx20D7Y/YaOuRxng32q0k36KMDZbn3WU+nlXI8RS74z5eSY7igJqG/bXfJvenWL+ZKIBdqdcamkEPT/Org2hJ5f6PGZgdms4YlDGRbtsaKp8Hww0dAZEaYzFx/VU8eVOBMP7eDkz1j836Ouk0LUgKci2BZ3DRAJLg13K6cmnJC5MExM4Uc+Wzv6lPZxTXxGXJ4Jo0Lo2Neqj/3v+ih35rQDv1EC5UuxefjsX+Wzk7zLsbtQOSd6KDXYd7VutQXRAMPmTkZGWWST0fFICdzY198K6OXhglh57/4XSHGleKf+U7ZOsApykcPCfZNZ/NAag6mgnJOrrBAAAFm6B3enOOA0IAjksUkdARy6AXlJW0B21pNOIVT+x0jatZKfTLgUSVgkM8WaRj07TAuAaEc8yal9eT1S5F28Y6aOAgsT82G7SvcoCGtffSWr7aPsu9ugQP2uIZF5vwR5ti6y8x0DdVUA1+i9A6k05f51zgLsB3yIX1JrdYxMVNAAbMEFoO1L02fX18ASPl27vD8YQBxDOZ4uYl+UW34s2FFX5C6DVC1K3CIPFcqTTRM1MVPpoB2zH7THU/q1HNAFWWwN9mryj6b+S4r/XEnJBjxHv5CNt8vFdGZfjot8DMZX7b0T9QWCpxg6euBGvMqxaeUJtu1rzgtUxxcO4p+0Pf5n7oe7cIXCeZ5ZvBVbH0ylabQU+XjFBIzFNkikyWVmENcKwZn1aTpFrqnWW2eCjydPam/DbKZuqa0j/H6zMtcBhKvQXiK5rWrVrPDB+QXSADjNCbNo1T9v6v5C50qpmFYU9jOcLNZGDBPW++dnhFyUSilil0e3sYVMwBOYcSyLi7zL2lh3BfhcUnq+Y9CALcOiggyquc9DfEXvgSY4i1E3ydUYa3qmJyM22sQUm1mt7Mz5YaBYytpY0a5cof/kTeop9xgIVzueiUqQwYvxagu91eVFh/s+R0ljKi2DvKrcE2T/SO1EbUft4+UcS3RWbISgJc5KU3fLYZBsd9GIhxQ2Jc+/3N4nSUyvQIO4G2pJqPfb8J+JuqOxNxLILP5Xe75VwlOaHyPV701AzAQbp9fGARAuP29fkAHqREZe0RWyFJTaTfF6XBbp6MGJDxJXb4jgnelcYvwZzvkuMsPgPjnc8b33ahhhIPKSJoHHxp56aJimo7ch+pm5UXneTEjWZdg/PE0MUg6nCNYkb0Ln0C/32179qUEQ0HYdcRyOveIUUTjbc+AwJezXzHwLn2ZWhFO/QREtI1/9UAYlsf2VR//wfBn/JVpeV0TdhxOKWWEcxmpRIN9xtfRCUTqgXWx74mb5UmPBZVXv6T+o4GIpqSxS3KppozUF2waFlQgLVM21Dfq5wzG+mq9Jhr5ZoRNx3e35m+W9aTZSHRQuxueyUUhm5c6p2e0QmOPvcbFvKg8/uwe1hHHMcaohgjuUjTl0niVhDtIwriwVku3GGWxIV0DZzDs0MIfBbHeUyq4WLo0AqsCJHeIzLrstKmCDzkJ9W9SjhBNNFrfJJaZ1m5ptPTFciKJRtHmqk6eSR68ATlZa0bNcAcwKRj4qGVw/UsBfTQxjzVtvPmQ6k5RrKX1olkssBkkQYjxXpsUgSpNxX0VplGhimbXjZX2RWiDmaA3TMpN8jbyT6sfFdUHjc8OfsAwyAeogYiDLcT5AAA9snRmTt5ZDBJrnB9UmLcTvoo7kycUXMk/u0V/BaQjzJiwA/pDCOzcW4bbqBMtmjHnIL7d/gR1+l4Nh7Z9M2Lp+JcpdKjCdtVipiOR1rAlZz0UY7KfDmfut5SDFQzzn/f3c/+eTyl1mgSHhjBpLKWJ+69zmuNLvXPVLD+eeqbpRT38fwH/RfEr+kYSXM7Wjb/QI6mHzmKlLO2YYZ07Y2hWS6h/kz7j6dsa9Z06dtlznJz5Vkl9ltAx2opoahPp7e/kP0zF3MouU/AfMG0ahCCtrFtLXxz6yKP1uW4kCnsCXomUGflXBIxxUOQWJIji9Ofwv4KNcJ/k/nt8JCMy4L9CQxrvtgQ6F9D6heCli/PPn+J/RimeSacVd9xX7R+wURad7LpHUb7cHqTpZYvUMSGNtVS7bx24OriaVMTWHdFTI3GlFRgcS31F05WJp/I4obxfuARlnKI3dz/6xfX1nejw0sQORI7QlYOtVttOK3E7wNUQVRfJD0fzWkcKASqZgaaIsR426/GNz8KC+Jk8iOgEskiGQc8N5PVDY+FQbda/yQ7wNbOaobsyAGmIj6oXlLILSpIpjCf6N2ATFS2Gcw8T2wbFqWA04dO9k7+B/eOKKd02YOkf+fMzosvkF2DXwYi1kfrvLuDefr+HbBo2M5cSzFN3r3hdTeS2mFRUoMOrao4WWf01iCFn7p7FUDCaFUEqAhgenBK1DnRSfWdNGHHBhTHanhLkoTolSlDmLJD6EvMOGtR5bSCXqxAdfeo3/BGR1QnlCYjTqzBQsmoTaZFnEXQ6UDaCKzRx0XNRD9yLBH5LIoBLzlmVsAwVdjGklUTPKP6wksffFrE/Ejxm2mtPebXOBVdoGNQQ2huXdla4apqZQ/y6Y2TbHOzC4c30fnia4KzSd6Rz/TET9NqItxXWa6D9VHCi+N8moEbeEr37O+VGItM22F4Hm+a4s+UKGpXhPosA3mN5SelOEYuHgepqqEzvjTrKU3+ziUKnGq2HMW2w+2wkTJf/+W3iQXF2QjjloQo1nmoHVDGJMM/quE/+rpnWhdu7q4W+HO76CUEzwJDmh+/IRBov4+4h2fyyK2iscagehm0xVgognnXoms3TFE3LkQ23NLHyXnRTwz65WldbzqIa+iBFyWK9io+Y6D8Yq5HBUJbwo8WkCtXjOHcyNnQUuOnO/ZKB0RI76PtUs0wTCNgw1E7Cl9Qp846KUIlyG+eD6fGecyJgyyoE4chD/tOuNIw8CpdhV3DfMhSCgjq9rxQcRNGH4FquY7Yl+Yy/5NkjctmO1WPSOq2pdmyiXXwW8a7MjZUyLPG42UEskMrhmCyj+1fVnUt7xgOTr+FyvmVZYtZeQrT2R9q+c+uf7tZ2+AyjugikpKP2KGSkNN71LXM/mlpcvlDllqCmLVJM8PXNRGTfPxI10VrBXHuXvgZ8BSgU3X6SDIIMSS0Sy3zrX1VqLpf7uAGP2AED0jjRyDoBiqKKxV5iMHAv4zWZ2JWbOO1EfyrfN/1ECA+KxUB/JFrDIwA7xI4luzD5UbtDPkUaa41ofgxWdfH9ZoW/aTaoK14iCLgmth4rGOx3xWuGSKAI2fnn7+n+aqFSG/avkjfne7T2o2eWds05FtH3YXYvSRJV+8CUxi6zsA9vdai7xRNrbzkCRqMj8QeuejZGiwLdadT9Hp8zmdIS7Guu2k7sRj+mgJoyCpZG1RTxqwiwl1dewVX6ZIfs1cLngA5d1895GV1WZc5WE+jEPfzw0boau8Qcq56HaHcWeAZf6OQu3vEo8O5Dz94mxmZfEYM5UmaVVxenZ7YvUpg58Ce5DEG8mC4mB0DT8VhbzEYRcrDDusD3prNFf1HQFj6G/8izsJf2s3HduGxai4NAD/nzLIL9+EFJv1ThSWmomsNKjudPSMZDB1bm7cG0n0DtRl33XIFtjp9Sq7LD1J1YhfJpm3nBbYSsvR5EDhuLtsHpVkimjWcfaGxlEQm5tUzCY05zRpf25LFKs3fktVRVNOhatR6ovDU/YrUcuOr9+n22VsvctsWF+hXZeQkeYCKM93w5/P/JRUKjBY7ftUlo2SfGK2tNwo4dW2J3o7V+H7zxFX+O+VHGYq7q2dY4KYf9RA4FK9oJWANsUBdHggsa+E4PZv3QA8+clE4RbgOOyxLTdU1KwlCFHXMGwNHA4/C5AKap/JooH3T7LuyDFeTSRyX9Ce/iayFIyY2aLDYoXCRkCOJ2USkv9HiBaPd6JnfWLh1Vlk6tIxzbNus8V6vgi13u5PocWcEIYFlj/5LtWt195MJELVqZGhgI5rJzjiFe0Jv40RD0Ii3NATBdxAKrPqdJtQWOlWYT5A3s9VqgIGiarbtMe4TBO7oEq52Y0m4z3NsbqfWC9hDbrieFmxBQiwcSACyEYLE+DTHYpZpF98StxUPXETJ4XdLXpwVXFhWVxPJuXWghITfrrXoC8GrM5RioANBMn1mEzJwf6Hj3YCgSAENH0ndQ6o5m9nbTB4aV9oQXk+NqrJDTrbjgjN/r693NGSfw+NvuQOzwBegshCeZoHUe5soay4XzD2nTwnkhwqvlOlvOuZaduM25Il3/LU+lS+XTnV9uNYuA3rHJ/vT4NL73va602J/0ypMqcjMUybWCE5SHdJCh000PwlFqj+DAb7zCgzCK3ZLu2nhNSuxcUVr6zH+KnfB9JVGjxvgomd/HTnS0F0onv+JHoStarnI2z6O2irIS4ZPwKFMJfaJGoqXxu0Qjedp2vTWy8IYlw/7r6RYDnPR4sKp1D+Q7jUC0jf+bH5a5KCCZsqoIVpu4AGXdN92QOYOShmTmXpPWykbwYtFcvdbdzLSHtRg/Mt3FPGaI3igoWMfise7BLHahA9zUmvD+pXJ/e2cqU/qVOES+yu0xJ019bRo4LiQgHPABt8/zETnpraT0WwGhpJxHgQL1/vTeqTlYt5uzhsnzPyakeyGnkCj1ByBca3WEoeGsHmxgUgK7Z9y9EsuQaZrPfh57MdIyQ1tRyPvRRdljCDw4cIc/DbbTepccuOn/tcYDpREv5XJjh7wPXVzU+1Kj509BNB6jeEM0VIZSgKtKo/ieH/PxG1G57Sfm+QCXssPeVGtZn9ZzVjM1CipvtqLATsSySqTM6MDbSjzoui70kui/L6XE5771THgxM8ip+VEA3XbXK+udxL+upiR1QqkvRcK4LO1x3bd9BA9NyAEV0k5XWPS1WTLWzqne8ClB3As2Tc183hhPSpZMkitm1eDwNgdqACYeZIpo2V9tCBkOhYKRx6IH1vA8eryYPvz5dOx3VNQ3ljdptfS3b82EbXk9nwLJCQPI727AIqD80Oo8886AUsxKgXlABlkm5cyrwuQEWMYUsybsFhWQLYG62w9EVvhwVE3YHy5FfghzhsGwR8EbkHsIIX14k+U+5aKi/KFi8wpCt/lMUqYuDBYi+x1Djt0ahjNndKgYgBFKMHTesdTOSvokUzNB5RSjWnyjQ8SLnjY61t/QmLG1FENj6MDLs/ucW0etoDXu5tVjaXhJe1b2R+l7Qu+qmlyMGdpTie91EpdZZOHFjWlf3MyeCSk5iFfJCx1RbYOBdVxs5Dctra+LW3fGPeehUYwbxQgNFXjWrnG6v8FNojKgY8aUL0ijmFWTc8dGwcogLIsAmk/nDdIQVfrqQue1sKTDCIKOMroeZq0rUKbVt0vX/3m+952xnaVRhUrzHrmvveD3QwDRRLmoqaFb0S3ofbjuMHtkKtKffiqgsSw+4pyZ9yjDMfvjCO2bK8WFRbE3EMVswDhuXU3HM4NklSRK2b1xkQBWFagn2HA1JiFM9cdZQeXZnbDi+gbO2lWari2ACRNM9avD0hwzAHJd+jiFbN/wVVMK8dTAhTTi3vVIze8CxQVoasjBmyOEAvSqnjMT5Yhb5uG7xwq91Os6IIqaY9EO72YTTACo6l4pJu+4pFe5xVjcaFETGhhwfPchYZB7yjfW1NmVU6IfztFPCq61TpsSg3RH+OBC14Fpmc2iZrYqcbN9xOyTn7N2Vix3lvMc6oOYPonzbFxziC2F/DQE5t2icOfetoA74w5+McwFm9gBt1poaM/6BhRH/bmXK2O0z18N/J5lZFD2A7l1+F+8YbZYapsRH9d1dJKXKe/yQuDNiW7GP5xVvpT982m59ugVYKZYgWTHieW4N4Qq7LdA9DjblLkpoeLuK93L3O0cunWpMWwXIyoh1Pd32Ghw1+FvlOI5rmYmks7bve7AwN8gxTsFqMkzWP0mirwTfK4XmScEK7uDMfg5c2/xOBqNzyjPGv9LH5fepTGMgp1Iuqmnuxq7QQDceiO3G9jJ2lphc/5HVBlCQ2XREx7pHEIacK+g5v02+qODW6WprOUIPq6JBnHZEd1LC4SD46n94CVkdccFygmmTAllBA9OVFxc6GktukU1RpSEpTvz+MKyltJBIQZxFqUeHRODAc3TiHuS7r92Bx1O7Ma7brfja/bZF9sTNA9asO0R3dyUUak0e7Z+laEecbK6kTcYf/KMJ3/cXleCp5qMg/yZeg7EMufFPgNh71d48N4FX7Hy+SqoA5EycO52KLQYmjDhDpudxuEAzubkrSSYjBY0VrINnnOtNMOneMtgoU47ZsFNG8f7Mx/vC0resUYrne6g5HaZlQjknJdrwEbyqooOVK0C8AtCMaVJJpE5bPa1W2akAbvW2iWWarJFuqA9cuUTb5kwLwRiK/6HBOQbgC/7xvagZPSmbGUAiqegyNcXC0LYapX4WCnimdS/fJgGCxAnRVzaL0BjF6vZ51m8bmKb1JO0ZRBaBuF+zGzMKR9AhGwhELNVKhczRxPHtM/xewkx9Wd+giZb60KXCO7g0/J5VI0L4/VufQ7abCNoQ7KTCi19D0FeYSHMlinrM9VM/FvF2WZ3NyHmGFzJLu2e8EGOjQ0XiIESipRR85vDqnDB2xAZoeSIB2q/l93zPytqDO1R+FN8MF71N4YMEsMkUox5MOagQmqaJDuyXNJh8/xO+LH+fao1Brno1ZyIXhBnvkU7aj761wtxWKG9fNerWw/4NLdq+FMehMgVWOvJbCZgjWyVMnAecd2sN3DDRxwLLQvQyPREQgTwIHWvHpw4qt3l+NJwLD2uuvVOSeXts6paeHbw5CJm4OkSljQ8kn5+B0FWfL8vj6WkxMOGIR+iZTa7QbUulyVkjgtpY+5MQhUCGcY90LylWFmYriOexcbw0kMLN2iHgnPupIiu/twA5OnZBLu3rMfFZRy83BOk5/EUsvaiGhhtAzLE9xm8bJ9zgab6UlNroLY8LLnoMe9M51q8b/b49DhFGMaMf17TRn0XbAItNCrn6ZYDPti5aIDqQ5A2k0dPf+WyckzoJ5mjGyN9p+Tj8KlzahZ0ZaVsifVKo+IjWjmtMwQre72iCG80s7tqCFqqqdHhv/Mnj003qPHR8n2n/b4PiTh/uJVSRM8sqY155k7CuB2RDpyqW0JqHVkqwsG7zMXYko8evXcUOuu2whf5k5ItMNGWxsw6ESF6jOc95pQ0dRohMZvLXK/HZkVsXAxEEu+TVO6rpADBj+v1sOJYpLtO2H/9bls8c9rgsw9AyOvLNejjalFCpHUaCoNq0uxqJ8nnX91Og3/TSOk/csbDTimaoO02SzDT5/22Sca/3eJ0eBlZLxkfnt7Gn1/xXKfrwZ9XGsQ8rJ5wIXSgs+hckIZzU68Vx3udFr7+xPZVsE1PJ7+SS1rdcJpDuHHTJ+HpdSoYA2eYHfjPfPTONW1KRhivg4mp6rWS2B9MnC6Kn9TrdkjCh0pzlFAv/XPJmu4whr2Z0Iapzr7uk3JxrhhVGSp+KsfbYT19SarP4hNISrqiDZZSYk5YmcIrEUIOw71jV2iQsGY9MSpR+p4BILdLQutp/lqRq+vDDwvR3Qk4eN6cWHtAFSJEvzG90vwV2B/tpsxRIYxYSv9W9EpfyTnwzMQrNR4qjW2RAuv2X/IF1sBDfu32I/0lUbrxryV+tEAbOaxMY1e5NmSB4ofZ+n/W3hc2usstceM8T19QIn6VG5h8+/vZEU9B8HMBhQmalcWZxVk5OZACSVet+OkwIL4VhvQNfBcDBK+Q/GeYRLzGcwFPWFJsCfsaeTGeIA4JvnSM6tu/bweaLU4DlZNVwd56nbWScPOX+XUqtjGXkf//vwvssYv35C9scvfhFdu1wGS81YpdblNBuwR9Wf9fhZDomhbliWC8AaOVEAUc9qqIcNZJsgPg7PQtXdTl01iGpQnXPapCF0SCX1fwmamRkFq2Inc7gOyOU2ljVpdLC6RACrxtJpHhIIWYB5zoNaSv80r++Tjs6Q6pb3XmkYZcInA35DPpPRs3yrJg6Env4nUjOLHLA91n9vlRcPIPECy+uu/CCmipPc3OoRkWkv7a1KEQRfAMO0CpKhFAhBO65gllvXLrV0xxO27jH3Mf1kZ/ipO24SM/D9yT0V8rlH91v2Y4DuZrIbiJ9ZPsICrs/XsefTPBoVDi00oKat25zJSS6yd1QAO8RaV2iUlZZG3DOzLencMwx9ijLc3lViybLXkMnRvapxcnllIp+0FdQObqLW420f1aZZGF3r4TFQo4uEz2SV/hL5PK9j6GhfQPKsiR1ATE8wGXoAmxX92ZXB/P/RJGO0judQ42d9U21Fv0ASuEUJ/QgsbtzHNllIc3g0dVNF66I6OEqaDgNl8CxUXeDwOVjbuwaX5EsR4Ewctfy5OOgB07j4emGS7GWVGstgcZKEBStXjJSBXbD9l0p8xzdJ4qZt05AWO2YgbIW8RC52lNfZlAR3nuJ2lPVTpUSFkedrXqfdEsMqaVmcmc7/Ye3fR381EHRaYn5sdd1sV+GZhcTrJ3CmMZ6Snt5+d2FKG//SrJwynZboEOVS5EWFJdNaTCeCZvd7a/Qek9FCAmym1hIS7eGYzV+O/dTRjQx4ZpZvQQsYvciQRP2Oj5bgNYQRxRrZxvwreTJNUGZFAWREn8cev2J6NLjCNqh14InMSsJSXMRig+N79PwKY8ek+SW014i1BRvYdxs+27NjSSxr2WWMQBfbRFdy7bfyq+AKuXdeJMWBx2j0AFvLrbBFz4I318ybaFvpwdu/kDRRxYVgPYuH4Vg5JyTV+zB5HucrltsOxpNdLYEXHgH4m0YdDgTRZodwqODZMrd4+fFSLapRSUKbjMMnbUpKMdyn0jRF5gIJcY+auvdnv1X6l4Q/zDXsRwqQ8SCsS1sTegsR7QpYe3aFEdcL6vZD44sQhnEIQAvYEjYb6sG05G5MXE8oH0PdEFp56zuNHH9IjD8cmmE7z5Ka85n9BGcomEKw5tdwW1Sz1936LNmGrgfprFTaBOP4w8XSJXBPsx0SjC2fgAgC6IdxegF9s/3laMxBEgHkYZF7bSe39ltv080n2Z8f/f3HjhBeFIP1yGTO8UtL7Cb5ap+8SuH6gVKvCkXScHFQfIKfdG3zQOuXU/eXsNhWjgjxeIIMRfjCu7NNrjfKxqL9qjgWEY872WqjghVPDiOmP5PD/ghX9ghqgeuW8hGSPNdi7ksLsSY5YGk1d1UcAElkgvaUhvloWtOQLGbnK8j+qLnk0+NyuTVCI/5a+uDZDn847UT+55dwE5L6sVKECtU5P5JepNBA3ASbaSvh6mjk7x3Z/nRdnYenVk8h/8wRAyuPMcmxt/aMIOxJJgYO4e2YSVBf7OsLxE2nTutrSlwnKmDBAqApg5xBOo2WapHyERnir+bNztIpkqwKqwlXnKPX4ji3U0IaeIY8g99vDZgZao2UxR1pgqlkdaX0fF0/d8duPD7fcSdKkKc/J3kJ/pAP5FyOWpEb6uTtRPaPNHcMYKi8VHvTVS+Tl6Fj++FloCudUDlKCZdDRgIovSbnCCOE2Z0aFb9Ut553EdBoERCl3R3YIFOPRaX04ufxEIzUTxQbLedqfUF0ZDtM8xmKjclBjndjmIEBjzWmdu2DKZHnuiP51Is1Isbs0XeGGA0qTXWNwDIfm8iAdO7OqJPzQImkGQBFpKqtfiWO8KMbhXuUGBcuthG1mDlTHKtA4DNsAM6N14kbxQynVwBySUsIiDdZMajDRQhPZNuq+echG97U3d46GWj3PbnxGbc5Qht6sv4M0nZF2FnpwxSkcK/Wxcl0Kb9CH/ryQPYq0RGKms8UEbd2IjrnakylzCrMJQo3T5ZejYljsz8RzrWqVeoQ6lXygFY+cSjChEzG0eCYh/zRwQLgvih8Fwhmu1IwOaQTV20XCOgr8d6BVu/9LwN3MJ55dl/+lQ2VYEF015uylB+a3ecKMG/GgCIXAe11am6bxjzP7+08J9PaQh/RqQ/zvHBijIQV+tWTGc6zjSteQXlaFo/22JTylvuIfg2Xdh+sZ2BJTn6TQSJZsYa4D22SgbP9VcjsMuguFz48ibVw6c7XnUe7k+Y9906tjLYSKh1/cuRUL8hwskeOZ6pfpKuGV6opXP0C5AMUXDOTDY5w3976EReE2ZraHMT5Kbd/91FPM8HTfBFu/LKfXDq8lfV4BeiS0+vkH2mwLITeuTR+NorePw4kYp/OXOp07YX7gwSBM4Y8KqZmGQxz6ffR2wBb7MUogtwkN298OGRok3eyZ9FI+6phzdCHO2GrL6ZO0g8B0Y5P5xrvoPj0Z2HPXUgMb1BEq85JcwtAeEzm63mNchzIfa8TQPUbOpjTrI36gsvlbGgFAl0g5CFEyru4qkmUGmIuLZ71O4nRAguT65MvYsDEc2nmOMM2jdobRoXCT0ISR3bvVwplxoyAQEAEuoMsT+VvUwJrAiXeYsKgbMqpZ1VS7W+wMSAwt4JHvVQxd42mGgHnDmhaO/E4JJ4fH3oV/wYiBJmtSel620/SIaJT5nRF0ETWtoqlwLkZMU1qvrAvQ4lxj6sFfqHsd8G/zgjh7+W7d1phVK4H4yZzaxLwS80rCjxnVouPMHfxqZE81z7KMtvK6VYfHB4WrXFH8Tk7vcVYqXbNWjM/m06SvZcqbr7apoUa+ewYmvDLRGoA1OSgp7VK7uPDdD3W1Axp4GqsyxCktXbJO+VH/aL2QYjjP3+kP5x5y0EX940JPx/QeqdioBRdqlP9plVf3StQ2hv3vLWzr0NFtupCGtq9uYezXwZukyKXZcq1vbn3MBIj6XMyo76+4dJ72Bg3NVR2Rg09lVJNGOpVAKcmErYa8vq1YB+Noni7O+mqs6VIxQLOSjEFCjLzZvFsLI3teHro8yFm5trbossVmgPASPiArfJa2J2gpuIscu9vckuJL+4n0aEzZmZEyZzV2mg2HzBVXDDhi7BdsHzcqBs+IaEoPG0K/OH5lkP+ZQO3N29DY3M9LZxVcsSlb1m+oK0adDX69hcdcoqOu5FNHCLgWADeXjPXGCfDJz5QdDtPhfzWR/JdOOWqVpKGQ5V/XNqJEQxikorGcZWrrv91dCgcI2Wkh+BsJXArWb4K4/8BJouwaAoC0OrhGQ15Sq0528fzg+evM4kqCE+HV7UFu+PELyKrl5xX+pdHklHvt5WubWn/4o0NvmJu3Oa4NuQqrDcH1jfJ58FcXZ6a0Puvr4H1pOmb8kYz3x+RQiW14lAQMmbTXF1XMRumfgxauPuccVVraKlpagKITtvuA7o0gaQ9hHUIAr7cWRHoxL1Xn3rihDtQamDWz85w4wlfKR4KVJOEyKnFpfV6rvYnsF126yoZZjohR6jSnJPhTT4rJ5wp4RbAwAYWgdtvwm8sDwMe7u6ejvpjaddQBe9WeSnfDIK1Na1Arpp7JMDFSuPgMAY1WY1fD2CMEvXWOXFjtfTo1LBKEnOGgSovVCWZatnNR7ztgApUEHC3D5RXhtTEQLHo/uFGwO7aUlGNCeqOR11hECAIoo95EeBMg9SFzu8Wn7X0uJRV3uxkKk8Cd1PR298mjTL5XGKxcOg6/h5Cd+YzbfXXCZjLLwMFMJXs6RICn9aM+Mn0nGHELNDMWEg9G9pMy3ZlBLrTDYSwLCzDU1SZX0hEmakokt6VLUFHUsMcqaLZ5yLuAfaiMlS3eLNGhBoUVg5yvQBtE9H4j3PuhSVhdWpWv233Db/DTZH0rGMP1FGXn3ppNl9+mZOPEjBveBqfN5J9AX/SgHhboI1MhqE0b05ZytH4Q3YDGZPeqFbRf2nS/3kNUwWMOMOl5vNOCnHbBDkdrOWpFQCx+8x33hH1QwLKC+NbArQpoIEwonZLYhzCeLq0GZ0f3kZN5+2fC6qW3NWyHZvNe/SzRd/nH8pVJORDIZ2TuV1b2z2cXzIhLq7zopvnQcbRM0abqGQ1t/YgkiMtxpOuG2DFhNRYqnLwfg9vBstuIwT2hEYWQVi4r1kXOSmr2aBXQTV0ICgXONUrCneAnWQSIwoONSB2J/07BWOt0sOdYX130ZlAByS1FMk6zRb4JEXWh8XBXxGj1sSM+7qgw2tD57u36NFHv8JnfeXH8rxNPzpggNJ78Wv7/WaU28bHIUqcEnbDl2al5r96qO8JhkVio4BWmjqle+rsZWH2hJnqlurTDa8VK6W8pSactg9wkDlcQdfFP0YrDKNgDkmEnnEkQqNdAhPl6Kg6uRPBQiCpkxdHU8iQ71yXe721IX+EuDGhGILK40lcwZKnDIQaAnWBk586OF52m+8EQPnZnSLZdlzc4MeuHj4Ys7gC4vYNREnKDxaD1ImpAuAtc9vMgz2MnnMZ4yRQMJJ+tBxD9XfTbsspUw2idITG5FUdbOZPgwTZO4nPBz5oVyq/OUJDaafsbSbaaADEJgSs4I7pZkFuTmD1Dn9Pj5o5CS63kShdnK/C1HE0lwhFKHqQTTyySDQsyVwa+0ZIa4E1uaEhlgf7ANqvNtzaBZ0oXEKKXRQHfnapxJ80sD0uqCicsiGobJi8ChF+SmgDpeR3SWKx76ejVYbVP5H15Mn55NdtuYt24ZfeSn6xk+1yLfuBGn1sTAJm2o4OdopeTfzUJO1wXkRv4qOqzdmTR1VjmsDAy/wTUtP+/KJEqxH8s3s68vQHeiFUvbnXW+9tG7fD1Rbii5DqnDBLWEnWXyjtX5kwB1kFFuGn6fQ+s0jLc8NImgeGES8pyXwkTSGzqNwoPlgBOZdFf5pT4MPb0ojoihM/uqR2gHDnIsMeb8/wpXc5tSG5rttjEdL9caY9k/DP0p5EeFtsTKrggK7/LFCpEyBQLuyKzFGQqm7f4Oc3micoxgKRCJBmPSDRc+GLqYEVW+Ihx2e9DKd2juL8JxiTmK6iSxIPPnpL97CQNZsiniHJS04SDtuiGvOtEOtO1NJgQFudC/eouywBnnNa65h2RFsYJlTKBUCs7qutazFD83uEQR3S/UaBEw22EMazBD6zjxH9epZaY8PTCcdWStvbsCbXH4AUf2oDAOEssKe2zH6E8hroqOKv4cQoHOHP7QSiVYtMWWLQLXieFnYyaz38Ygy/IyZlHM4zjUlYDhmx6hSHg44gwORlrZPaQ4F2WoPHJoYvMwX0BBKKFDG+LDtFSGKbI/YceCssTU3YkASZ6MCWg+bgnpDI6Z9KVt3q1Xlp/xQ89omHvkSbvlq3Z0uBXhq94HZ434FhP/7M1MI1x2p5vrm8BBEmjT+QBsCPUHl0I3eArGOp/SHD2JEv9LGTcBRvjKBUnl3iww10I4EJXsEEu6a44Arpi7z4n7raMTYIsbHu+Npw/Lo8H2xcspi/p/Q8tLes+cP05EX9NMQL3OI7sBn5Ku2mtiut/hvBvqAWavHEnuN1Y7xEt22GHSoK2fgaiVxFu7F18COuwA34jXXd2+Mj3ON/QW3HpOTr6IquPo0cVGjkTJgtwEGeocgjtfb5KQu1bIQJvnxBeLElIlamvzB99JGS+TMN38Jy5PPPIPwJPCwSrvk2+B6ZRjDbA4LPMLmii8G3kgwEk8wbTE+3YqNIZ4sDOfaPb6vCvJvis0Ox5Clwec2SsxDRxhsiH5OfpWcrLjtnMiSkdPq/XEXhnblegPUMkfK0hSBO4ZyFXGr3HBcifpdtV1+X+Sc58o9yUXR+s8n3ZukGqEgMVby1+Rwmmv7+KY5gcyCehTvkn9CU6ZiXdZR9jdnZaWbWNYuYlS2qiMKXBbfp7BHVfiPyiXeebYRHcfKpbP3ICsi2S2tOrUNdrUo61BvqyccKgVCJEfawwYv1BOA6r3+iq5VGlcoo/gimpUDt0+qP3MlyQY/NgsfbWiJew2gV8qp07aZp5Pr2He+wguCcHBx+MzPpXW4erfjTsgYQgosuTYj0P0LLdTnWG8VwxpHbyTAlcCnFJLYduSf9u4PA6ue1iEg5qg6X2XZbbDqC4kqllPnE4BKrbQiQ8A2HzoFqKEKlm18ER36ac6yrAWNzh87bBsz+3SYaCoyIA0dEGdmc3moUFtX+MmwddY2Ub4NfmAsmqtWl+tPg3YX9UcU1oUhBArjjQZStbBVArvtAnr8xQNIvaz43wQRfyxeTYrjgyiS1cgYaBDMvEee2A9EllDvj7xzc9HjDEuJ1eji3RNwe95yuwlB2E9h75cQCJmlK9wLBbsG0l7YbzYxsZOLvGXR2JFnnqqkv0QcrtAGSNet5c5UPYApeIPa4kP3Tzfx1QXTsWoeUR4OXVraom5WhhPfWxDX/g7WxzuzLJbdlvPkn9V7MXcVSKxEcz9eukG+8UeC486N8+sncZ24czS0VNKNE9jhw8ISxWGF/kgz/W6lQn7enuyRzNwDf8OGgoNksiIkzRdzc0EpqXzxayzhPN09nWfIYiNQuUwZ759dgvFWDm1UM53mE4VSWB+xsFQTVshZgzOOlvJuO82+4H+UN79u0DtXTyjr7ecJu7E7JowfX65VI7ch/2cRHzuWkLAX5mLp7YOG+D2ZAy0VYFuOClYimA1Ehn5ZM7FJj1JzaB+zP7eZMjNK+zEIqpOZG+Qg+yvwtFLMG3WZs3tB5NrTyySRdGBn7hipQUWAb6kvILNoM0I4wmKzJjExxXthR9wfoe2lwHCPzAGd2WYUzAZE7plwjKKiAatmIdIcwiBWG5VxZnub9UFduEp0D9Ef+A6NnNa6wfXSTcPpGbjUzSEdAcwDBC0GmIfdzSEyCa0nOj1t2CwNjCCeqaOTAevUr26zIpKAmjPBRK4VOBeI1o9m5zxUvfOZgQyQI0P8ang0keblBQmhplz4/r2aizbAcTVBP/RqPvnVKUSYNX+S46Brz6ysWla9racnfCftT1YbMJzpUFfGX5FRMUoJ0P8oB3+m+dZbQtcRqV/6W6d5hcQ1jzmm6jWH57MN+3oVSl1G6R1WkcbOz7aZNRP+kzxNUm+q7tIcYSNTY41FjsYuaLzB2kG/VZrsVdW+ttgzngpe080tmWy2cwumdIu0ZgR2lHJe+TO7d0JY0Kwxnx8sWggwD5G/tNWG+dHTw7gldaL5UpX3qhcdNmmcaVIsimUyY+z8WEumgh0P+qPVRtUZvHqKfDfBvZBsc9mUjMdY0mvBE9YeSL5zfavRitAwC3yaVQ9S3Wb3FS6XYYaeMklwBVsuSY4cPYWDN+iZ3QKlrrocAUaUSeYNLuzJkAS+Vc2jmap/HEMY1UmvjI/JOPyMbZ/QP7fduLRXZxeed2+mnyrE51UQzCI5CRo5ZT87za3dod72QL5ryLgaLo/j7/32+kRKFbErgP49UJ5xDbUkQoNsi9jKzi2iRBYPixhPktun3hgnY17o2tfiLOhvLqDRzGKkgERx96B46OgYkcQURt6uSkhI8mJXLALAu0tiAnIno3X5d3KItUqHJlB0a//w9GwlGySWJbIZ94ZVjELlXJDDwNi4pqqIdaPjsXCcacn8Hjs7MSbCjj6z68nMWuy+X3JexcRpe/Z0SqJjifJeOsk0437ftNEdYXdeONFgKV4JYxIYqnuGaL4aDm8+HxbKa05Y/u2YnIP4k22bx7RvWY+EJURtddGPObpKdJWE/HUKe23d5kQyC1468oNH0yH+5M5flilWd7XURoj7xNUmHauV258eQmp5MjOdXoHpogjNXvaBbZiscdhMeNT6pyhBBtAxlUMFIov1rvz//Pp7NofMDEhJUiKZG2FmV+vEKvJRVs6SuZ9debIUsDpoTh+Cadkl4baji9FJqpN9dvQssxBZ0s78QF9HtOiRay4Qn3xEDoWfF1v3dxuuaTjtUSgJcRHChTTSq0/QI3j1Rq3smdRLRPgW8aV8wAveN4wEAfCXUvBC6hz+7mjp/Y1utNsK73v7jLynw4iPE03mB4LQetIlylSKtZHIQbkEU+1zEwgzaX5yYK77p0hYuDSC1a4ur9yCwHR/vhX1VVO4V0jEmsW48xjinbkZVTW8gQ3L5gwq75XCASlkTHjWu/13boJCslIyxMk1LBACCRTqVerrYu/yXuOb/YeA7hd+VRNbq1lF3NJwWf2iO3YswTUVCHGnxFK4jp7VPXd+8nkNXX928jANFXSHWxULiYziTXO5NhgW7/PKsJj6igcgdI++ssRvBrHLyyXhix5RJd4C2dB9UXkkGQMpSZzJArIbBAQoFnWlzBRy/zvJUtUFEpO63hQoG+FP6vXyaow30NBY62ILmKrnIYt86S3wjICr/BSOatHkXjALxrs2cEQBnUNZf6xcMwZfxCzT8Q/L8HHAp07+7fRDFb3mPHi1C4HS2Iv4P7DRYVgHs7qnv7CTGaXSOoF5/dhK13ihpbNO1+YjPYrpoKb+ZAjyZVlxxiV4YpH+KXgzb418gLxssP5cd3hVMuEJccrxBxUYk8tj5e6fRzL2VzHMGbBWoClItwJO9wBdE8IQsjNQK2UW8tMEZdKQK75f2LVc42fZpXc5inf8oGZXCXw+B44ecnv66q5xavaobaxcCVEEh4Jw1mbty5htvaLmt5oqYeJja7gkSJ5VWR0U5+SQ+j4+IMvojF1MTQRbDPVsHj7LfS4FOH+hrS3ZnB4CimneGOMoaVxGJOvSrNYw2EfcyaZuX0Gn8mG9Iy0vhyVyTYBwYI2GsHX6fvXM9RBZgw4lRc9MCUAA5Gkj/n9rAatEUDUnfOX04xfs8xYcajiV/edIfkLbzSWFoRYzfWvWXzxtJuHbKkeZsVJjo6SWCAqUzIKeaa14Hs/b6sxrjgni6qTIc/HlaZpgbg4017B+Y6z3VyZFjbA+OIUQjSQI8q+HUZsTfwk6Q4gRnmdthyvGPVqThCiRdAWxltKwItkk8Z7Jjo4LeK77YTD1nuyflGZfjVH556f5aHrXrai9oCTETJljcAPdq7U4b477vfsMRsXl2MFhvZTwd+Mi4Fx1p5FnArSCp2U2/aKsKGrM3yHqImbEptC12j7rbXeAjxVi/GBGrA/Fu4li5o84ehkot/4IyseqcYWYyKBvEKgK79nt6ppkHzXm6Qs1iWbQf+DfuGc4Ir9rhCMWLYPKauzdyxwFX7zyrM3cBeu6GipfCX+PuzN9q/wYD3aYGEWvvEwFRor2kLT8Xxk6jBRwVoFp5koaLQKF6l+L/nWtqUxQVfUJVMLT7nK+dlZdpDZZ/R7KXSqraYIwsyO9f/SkkNQ0/uGvH2ItXe5FD1s3j6JIPEXgFHdEASSUXBD2FrqA5e83CeiGnYs1EPN0Kvy3255V76r/8zX3KzU6It5q4eWz48tF6fupb7tJwiNPBlKgqmOq/7R2KJ2++UqeGyV3z8loLCUD2MVNLZ42luhxeycBWvEPBXCizdHfwg/W1tMen4KimbKmV2rnI4Z22+qEGqvBbjnxVDxhvc5QG8RTWRPbSWDgl/5MjO0+shuSXhu0Xxpbt3axb8SAmPVdW6A5Zd97seY5W0WAvHTE9A+OZbTmIdWovhw0NIDBJGRu/p0/oFuqjSCOOlOchb9vyERhoxJRE/orqsBzaK8gKaKb84u5iKW3f18zcjiwmCSmpCyfcEUyFyrMcNRxcKwt5M4mJdXpPiylJiEMKM8MPL5J5P0HHw1VN8VMyEsRBBXKZt2FdKsz8w7t3rpt2pAXoP5d+D73Iv/Ust23QyXyU9H8psLPUtFyT9pv3d6qqMjJj1kfDdWWAu1zH0nKUMMOyps3wHChWRbccKCikq319h2Ep/+TRCIH7Ye1hOyy/DL+OK2Z+60Dp+dqAHv9HxEkmeAlbm03w4oy//8WvvwFIIjUCR8D9eo0BYm3J73s2HYDiJaNk7IIIl0r3mE3oAsKx1hfw6aGWSnOG53Dm01wl/2CzJYY/2MinX5nNwcfh8uiotypttJua2yNchYKWP0L/gcANmLJcnDq2SNevqPWaIHpv523POUUcw2dS+LA/XsREnjq7hChIiFzeD8Nje4mAY3Z/IpvCRi8RpS9yBFRvT04iigm2aOys9v3Uh+AvcRaVp/C7O3hBBp/tmMjLns0EJTCT3NZb8x6pDeQ0m81Nl3Tu3SCMWcLG+JRtg5Fl5oaRtdw7M8HPRX9ye4sBQSMdsJ4URhQpn8k8PfCQ/py6iJAV7FKy5WUquhamv6+Mlp7JvnoLLg4ZYRB4Bm4GT2EBb3gMhMBLJto9Mee8npbMCK5bjUTsngnyexwEi/Wia5U0h8ytLChnfYbGlEaaMEZZuHz/rIfldX2fPDibWNB9XvM3cmUIMAu1Q1Bk0awF0uIRlM2JhdYnXSGeE3CqQ0fKKyfupfkJmD1uvwyTrnlmufwE6Ag0axhb8RivXcOB8QjLmhC6yW/KY+LNXKlGRtW0SeZso7v2WErV03qf28Hrk1lcoRLbTmkpWOxOwewHFpGXNi5Jt7IF/qZ0Mw64Cnxs6Cme0jlJ2OPLlFHWHZGarHzeQ2yx4urFNV/lj6XgK7Jir1q7eI6WBMaYNghZEjdK+XeZ2tLddQ9RhXjCgsR12uNpmtufl80e96qOEDebn2pEl1jtQVYr+ltedTqOECYdHcxUnvCyVzZt1R/0dkqV5JeBRJGeEqyuPNRQFmumgSJ701Za3/Mvif1UJUhrJCjF/Rx/Rwf6neOWI3dcJvugdamZkE+iCpu9R5jXs/nF3JDeOpZfjE2q8i0jRE6IDyZ3nx54dibebLe4KkB3hn7dUGwNzJ6lMawoc3rtmoTWoCcXHQ7f6TnDR8UiwpisPRee77dQLueACiD1yHKHn/WZo/h/YoIVmZrEdSInBBm8lITlYCtz1vbaAfUb8lJJEbG2EVnbXh1Umxr+C18Big2DU8MNni5//DDLBVY1afY9mN6+oc/sDYWDyG35pmcjGjUYVx1iSnBYoAUxUft8lsd9kdDeKlMX4ThIp4TRlsFC6uPccd5KS01qqS1YJluFegLvlJ1tReAQcBgYtsuuhEem6zJsE7Z4WSAYopoh8uEruLPxN+PfX3R3oPHmK/XaCQxvL+Wj6G7RjJIFHFDZgB2u2KCBSY09d7bXeXipsEmsz2i0wuwDnlrvpwdiZDFLzBkEPGM4Zn4xwlqGc8NKjJ5Dm9WeRh3wypQvGUwQvLawQaRNplJdxZAEc0mAI3sCPasIIo8KqziCD1/FYb5fwBEcQZ4jmHe/FH7YLJ1fSEPprIgGSU7rdPeEy9LD93cvDH99+AwuIKmqW2+PaW885WB8Gb+SmyXtrMXb3GTvV7q5yFgCL6hyj71wIk9oHUCDYG7yau8ckb7zL+NRh0FH7+msFItQkquEXYKh0CNIljYpvXefM2DQzY4EUkaYPMvkk2yIDpP70v7h59A6n437bVcjwWIu4ksIWqUD7cAnCGc0paQ6ytijUhLqL0J8cUFzSOXFO9qZRcZ4Wh/xnCecy7UXXPXKHlzk5A5KW4+4I4HxIlY+sDvGejNWGzcWChZdueNP/ggjAknpWdsna3NFYU/MjN4vK4UNDI2HGRqHqIkNJMlrCwr1q4LUUJYk9HkwcZvvCLwhECLCFj1aYrsYQEPbqOY/09WtxtMs00vdppYol0Nho7Y0BuO224/ym+L8HRG8D4x/L2A2SzsqrXvhm4jGmC36sMxnp3m+YaoRZkixDe9P12AAE4G9mbTLJZFWA7bfBofWRN9W4yWRQOIeTNA85Yh3C9bydkBxCTHxD1njO5P7gMEpDODCYwG+L/iNFPo9RCFK/4TmoZISICGDSw4dCW3tJ7jqH1F4HqS1c5I4HCL2xu1F2WFbxPGY6WIk1UlEFG6W/4Rhi00QPleVBuuaiadZL3K4rx/e8h9+X4GBdgmMQJfZjP6mHZzj+bbieiTu9pZUtr1ohk58Q9+kNSwhwmVKfx/8/alEKRZGntcfNbS6jLGBGP1nLbPliZm94/Ls7k8RX/s8epyhwg0127AQ+/h/Kh2aIDIkt4o/lSe7bnggijZJ+tvAEAqzo3a560BZkoxn16TnyUK+xd4KbmHCbI70OXCWyYevk/2ZFRlm/PjuaJgWoyHODpL68TJL2xHAk57rQ2qq9NtuBcfYijRb8r10+btReZeSQ2ElGU0y2+hcl7SUGo+GUd+ERjFtMiph/o31gCpVPBdp35jA6ittfEUz4tw4AV9chtijYPf9skLhYweu+CxIfvV7AmKY0MwJODIZ4WR09WhecM/odU1JBD7XCyX1Hd43IOZo/SuNuInt/uv8CImQf27/lVklxpQeeESW+Qtv3eg5r/4JJy0f9XTzxmDITcJVYGfqQdLvh6wE3OLD+yCWbmtvLNkhAQR39abJEbhe5XYXzvX2+YW1k0RXkMwaC70z9Wu59ETwdKfz98Y/sbifKsH9NTg4fcCZOoMjV+bdK0mHwB+MEDByARm3AHRq0HhzJyNQ+BecJWui5zhDFFkC0tY2keC9AdGBRZva94wfsuZ/hyctGWCVsutoLRzSgKOdHinxOeOng10zr+/p5FaUWf53nbJDGySM5MzQZdTNi/5oWICSr9AAmd4oQFIzzNGuIwLyn/rEvfTeWKmx61Qa0k7LEeUZwpRXhQ6f1TjLER7Is6vZ4BH1ZnEPNA/TDS+w6SeH5s0CMM+UMhAcmDpi7fkfVHSSfIn73bbRnn0aEppf4Vx5xp0MPFDhLwscypsUacfkaVMLkb9Kf5STHbSoMEGUNMH2e9+83NV26dXbdwhlwiXPALZz9KBEJMhADvB51JbBxE1sEILc6uZvkxJ2iePYEiWv8NJgXu+u3qSoF00pr7WE37gKmFyQvAutp3NPe0DtVniyFHxautGRW0yK2sh5Xmj67Z3DZ2TjXIC7MgTbqGirZ0Lf9JzK+4sSM+JvZITj8h/DEpB9G6PEug2tMhyB7Hyx7/0BGRf6rmGmP852lAnSNi/721UC5YXBOL/LdgaPbVMeqHE7IVitT+G9RtQnwFnDw58kchb8eucqZPV7XFqzJpMGKqEY25UDoZ6y3coAQEpBYo756vuMKn953PdJgdwEh46l3dgLKl6xGWPN/vKbnjJQL3FSK2AbSVtiGmhSHGBwYMmS34OG6S7SxWVPn98ipKuQCEKP16FwZCEu3dS2vEDTXXbxYFlFFEVAkIe/4FsOx8+od7hhlUuWz4qt5snm7xYH5xZUr8WGfCIGgv845rBXAt+iIk/k8FCmGyCLOxFkwbHehnCRBSLNII7urMZAjZbmBRgbKKBp/99h+YLaw5C+tMw52UsreCzXZKzg0dM+KaNuRZlb81RipF1t80zI3FIU2w5KOEkIIAIEYfMV5NLsjRPUipC6WTspDAM+4jpx3ys4QSMecT9+BZHtg8fTz0fKnBUZx9hK9jV4zyz96DqtoWUBosqwI0PheIrgJYfgCA7tXv8Je25K7kGtgvyKoxzNqIWePwvPkbUVrdgCHXvp9c3hbIXROGO2SJfsaRjNTiQ6gI7xR1Jmf3qQYVih0voXlfEwJbCk8tQwxRtKqBGTOsUwmLu+TTOosRKE/0hGNGReUSzHbUkrjfUeOWHYCu1GlSe0a2OvZP4FxnKVN1d23YemBeTxGSKI66ZlkuNJHZhDM9RlGsT6AG8yqcFHNOhdVJnbq/ybrlkb4Xm+X9aE5o2cspXO43hoAseAguesqchCVTg32pZI9I7tUKzd4I69NKTD5xFBzOsDUm59XVf43kNZMCFFfG2gyCa3ga4ZjX1eH3V74bgHLnoFvEbQKDyrHAwbnTftw1rBNiRLeDlJMJPe1YnlojHB6zfvNmJ/FX1N9U6tkIwa5pVMAs3/dNSyjGZOIPkV5MB2+ht4Vzt8CWwFSB8AfsPWdx89+vPPtMMgbv53lqHTUo4kFeTKUP44YICc+z6QgzVBbp7ovnsqSpcncWssBA44H5toHUnxGDKOrYNhjwZUdhZdAN8ToCCgCdJ76RJQN+vnUeo5mndUspLJUbRAIgi5n8p35Xc3xkv9FwaNePh4VXKNk1K3VYsUgZXXgENqzNKOlkrTug+osdqNRQASO31eMv1rk8l2oZHeSsRkjXU1SziS7ibFD/pldrKut5nPp6BNc2BeoYiP0gaD3avTNtJH1L7GoMajW3q+rvKVHpcVCReK+o62VRxjSg9I1klwjP00po7nGmBICu1R3SdJi0+1TeZofH4pt3lnp8ES8v7paOH+e+0ThIcfq1HZV4touXz+vbR/51O4oV/1+FLVSdHLj1IriWu3aKvQlTp8KNbPuLSIamsxRa22r3EBnjn5oyBwtojQ4MlI5M3251Aglbj94MqVjH9GLZf3BF362wbKRMc3h7XUTM/XsBaOrEnbp5OTG3/ZUzXSHCXHMwwl3gfYnLMJz7hbXBRdDR3ge9Fiu4kNW/YQFgDGqCcey+Qz05cs7j+TonJs5QBEvirhOEQlvnlHSwlTRxkkGhfyuDzfJPWHNcRRxud4uWEdylHEGJ8fM+h4P+ff7KgKWHtyK6xeOVeBAh1NY0p/5zgnTYpZ0vdR5PvHm9rklQd/ZIKTS8wc85ZebqSbwY0un8aCL2v3i+DQOoWrXg994cupi72yoRgppWRWF4osmLE7gG1jGBSYt0k+Qzx9JcTz4wwC0X/RfY9Ru+8m7kgSfIR0aRLFJnCTzHUzIBiBrtEfowPdKItirWLejOVZIyiM6D37AF+9KXd/M7Bf7FmY5PnqdIvvZvHXwdzx4nHKP1xT4108AawHJVX74AVKzIIGVy0peNlPJToyuVAl2WG+SoIO3/rq/9RfK2xh8BuV8iVKYEBhUvBKa4aBi9M/FA9yUaK8tcdiO2c084ySN1CaZmVGXhGZcC+160dBoNelCrWUDvIwNlMzQY/d9s45ykA38hmkN4SzbEm4xqzodH7wE+hH9oY3PrRP2JhNfUADHJaVFsUNLFjUcACzS3IZxFMvq/gH8BMFUkr7Y0O/H6ItxyBUOMM7Oodj30cvqPL/jl5zdb6oQUIrX4j+4NKVamwNF4MN1xJjT+NRSURt5AqIA/ZNTa607t7WzaqYgtW/uJIPNTjcNdHuz+Xd3+59DIq0uK4qTjCBLny+nL97imOo+12A7RcyBefgIg6z6RYMJ2PvbtQ0qSX7b/58kvaMfI2Eo+NlXgnI6HJmcYyxBK5Ur9PUt62PnbTG6/I38zOMSF8ZAV9hjpq3bp7iObWlpFB9mRM+aal+0rGlD9Lhi995u+og+2nrLdXTOZz41iwthO26+1vvhxSZnYs9WDkb3VXYXdjhpoAdDpInc+cFboMR+lYgpCsuj5CdMsK6yJl+BP5vvTjDEHh/CtF1072kIMhu//V3avrUqEQ3liz6mZ9E3lAYSdNxerO0fr7PEsf+tVsLwBfURXhUwHFnGkA+/vW7H9FZdN2TA2MlfroSYYPVsKpkfLQHyBW4VWie7tzjHhFYJ/jj5QwMg+1TA9nOD+1hBzENorzU512+i16ecmDVCqCAFLOxN9eLE6zlJkVkvnHOZJewf0dNu2DtCVWO3oVK3fokYmb06KT7MS61cQ6+01zS3PzQGUbxKPXO+dJBdJTMRIhQwC8PxtOpZA1Dgzjun4kd9SykL7GsPe4iXMLQsGNIJvm+ShCwPe31TZeibICoLq9RTXURHsloarqSQ0sp1ny79naEt/URRJJ/Q0CuR5EdXhTm8KdnSUEilI5BBdjnqFq4KDOEunLsP0B7zdyLq0tyARgjp9ipMtPNDde2lOyce0Uq3TMhtWdxMDiOFyyee8a8p0wQ/IthM/rDWYH976TRxzhazYLT/4IhQZxKUA8gjev9hf34HIvJqnClzx0JDeiKqtfs7E6HvHekCTO9J5qVrQ9YvR3f9nQiw6UEbtgBEo3Ef85fZiwUb2HpeU6be9RV6OYqt3eivyTB+iCVUs/WIAD0BImTBolJDPlZDACB82UArsQiN6Wsb3yIiN7jiL2cg4rHnV0ornIOxrJcmMolWcHblqOeHX9C/LSXPfgBGsvu7QbOEPJWWxsUKwkHESO122e/9Goz0xAucuHmDele05crv9mg1AY7O3fLLoVEf2EMxG17dsrREL/mgePhIh14WTmGtx2tvyxKMc60hILfUwnO1/E7yhZ04b+ONiFRaAfzMa7RPHWdSx/pPT5D3Ww+wHRHQnzI4E5VOOtO42LvF0lO9zz5MyngyWAsUVtg6yuYDR7mZ0omBQ7Q8ihA+HOMfFZMdCR/j7z2YkfI25nUo2+BIrOeRAUaPxLgVWPOgopuaCRDAiQHVuVS0sWgj56WhGelmIiPgC+Gq7xdcvoB8uo9zl/lt5mpeBn9/iK4CH6u7pY/JI7/b9Mqbx99gTPomOYkZ/xWAjM075fc8w5PBwVWB1R7fhwZt6BJN8kJDscsHAk9IJ+88PJ6no/yoGf7MG1awTX20HbiuKggREwHPYB7cus9/ONe5fc0gY4gcRB8fiA/YGlmDP6F5V29Mi0xTa6yPzbdG0zYARjsgA3vDsobW+gENJQgF+ch0+4snpKn0aNIc2oxi0XwNCzp1lwseC5zcymC4BvlqHlrKvXtFlog7TtDdaryCiWBmuuDQjfg+uqyI2gaq6ykvqKn/iOez1o1Teh/PUGtaBSYlvjnHEa9jrC5NDDThapuXAeWKijFb8LmpeopmH4g0bGPcqkf7W/b9fKKFe+oQfMz/rW87AmuAsMSBnCJq3e40XSfMyp0KE3XaEXMNsKofPw34D9mG6fU+wPPoWVq7EIn4e5OTczKVLxoB2jrjoDfzpn2ajHNDswX8Wk7aAveGKhxyCoKBKbojPM5iy8+kpO34bDBopdJgdcs/9PiSEaDM8bx8Yq7Y4wGXGIVv6APfMaGntbsNmgM/MbrZ6DTxpwR5RVb+zOEfDMF9CC+Boe8Zx7D4vyOIZP3hZbcid4Cl7nAmY5hB8jNKY5KEXnPoBgQLng1vzvCpxMzxVW3EnhKVI10MiqoP+HDXRlyjEJjDYLqPe4PleBXi+x50gpd2ZuD8acN5nhChLThiyJkBmTszgKNVqxAUT0mQGmsLWIwIkV+ozWHB+FztRHtrfzPYkmiyDusKsUUVeuynOzmjYDHHww9x2WSMSvus3PNrZ9qucwz+e8bQVEbLp28sHsoGRSD+MkakSR0MREx0K5mKQU8MD/Di4de540RO6+Vp/6x0pBpdjUIqmwY/Nm6/S6FDWwghDFy4WGLDsO1R4wlbKfL/eLfwAj6DX96yezIrJ7zUuDFyYE3azVRnYZXVBOT7VY3fqSEfciOYNC6LF1SnfAxXV21//yDIg0ixXBU1JV8oX9nb0nZt4TmlTojHAW6cuWAOIR9Vsa6KF57zP6+4N9DZ70+Ua+ZuFCR9Wn2fSJjbyZiebZd9c+cIMunVIzTr+QcV2aKLelONM5ushiuzJRE8W1tL0QyxwtaIuloQR96DFt5PMkYjRuu2s3d/10Vq2eFwmuREh7pP0B9HFmBJWgS/aq5R3pzpNaUi/E6t5kYqiL3RN6ow4nRkXcYDYg/vMo/yWf82w3LxBDUjDWNnwrKdTOc0wcQcItWZpeF30TmCtPHZN0UoZUYVSlNM/TLkIp4z44iMFYt0oIiQPndVErvHaSl+I5uQBsN3PcJaIcpVLbN7E0BRjFjKNUiew2PwQrirSZLPZmOJz9KKmgOZUxMFGLLj6bvOLu40bd0b5J8kvOky76RtWlrNikzu5cjbh71/PSWqTZC8EonRzhLxJTEwJRS6lH7z+Bf3y1cPeHoFphuAOWs8qFFRMliH3E3XlkEJPEh0kg77Me72G+isPnFsm2XiVgBtjYKkoLK0dWETibZC8Qb79jChGmuhEtVKoS63LRPh8cp1F6SHoS8Mtx0qne+MN3wgPEINE940axeVP9vuZdThIaCKG+HyiH8DwYw+lgWRw0IXMc/6JoWQazOYPU8PHp2HJBAGAg1XRSR2BKS3TfFcIZotnT2njZzuQr/bZ34223lB43SVJQ2B2+1qzfMA8yiwV9qkTZiWGeh4lqBsHBnDxULxRdlxpLtXeM1Dr175iMs6SlyIbygVksyBbjN++tckysrksVOdL3Oob8gw/EILALStMI+msWbLToqC+zzJFKxE7J0u/NI9inflojz+gIjGIeM3xlYnsN/yfyDAHWldxgFBeK6DTtmQnEZNllgJnEP8YY0NK2vCObtNUec21ooEHKiclDRMVulC7pM/dNx6wWw3M+MtBKF+U7RfmPqWE9JrbGx+fPu70jBid9oYSw7d9w2gjbj0a6c0CbvWzz6STACJbCr+bZdkPkkddQkQ4+OC2JfFs0Koe/E++CUg7LFZWziD5b595OwgrdTiPPTR83g/ubiwoMc3sCAgK+lIEFMzsjVKA+iLeD9AocDXrGCa9uMRAMy4ioAEoGzReWEsrtR49T+fxc/6gWhHt9BcqHqyvEUTXSimg81i46DVIuCZ98tJWHQlwrktRNq+BfubdfmmE7dzN02coXHwn7I0FtspJHRJc0Gj1uigRedp5HCgfKf0qtzGt/QMQflws9T/mO8T51vI3Vfq28jLOi+PivK0Qx17H0wSo4QSwDLGEGyntZr7lsEjhj2LPxGUpWb5dQQnIM6kE1VRa9hS/hBw+l4YSFpry7sNFXlFZM3pLCTCP59E6yK6FK4YsOj34Z0abDcGcFl4DkG5uwlfB+AogLoaXJTqu2RTnFVYQUbE6V9z2MUMqk7c2dsUey+Omh7lJ0SaoR8Y/NExjdlzAGXCXbMRgPxGgtz+Kx5q6svdL+Kb0Rkv4i0oBQhOK4rIWNhilxrYOn1YTz/g7+/48WLp2r9IHSNT2lhuUBvM4VOLm/OfW0VQ1V1o6C36KXIAQ2INmSasVi0P5DGxm2VZOwWoyl6EidCc8AFTE+qdsgL4wxfLdudP81EDtivx4K/tFV2hB6CybUM4MvDUWF5x1ES+AhqdBjypbcldxj2uecN9UYkFvYX2HCIJ+TJXLeqfk0z2SZBSGc84e2Pun+dXfJVcSjf4iKE04VtmPMm1pCWuoVNxZMJfTQFv3288F7eEQFr9bbuRFf/juCtTy1reCOLyEsfc7Z8hmiJvEo8JJ9tNsXFQE2ZdpAuy9+GBGB3OBsUaerNE0g9hwkHzhq+vWyVN1O3vwmjllbzKPgheL5pTYDucBMUG+lwq4rcssiDfOmHqpLAYG36rS1Vj0eLiM4qPfgwXt+xCC1HiNlmmhdcy67DyyHQqSghQpCGHEVGhMDcRt1kz39IFPQfmfjyfLAsTia+P2upAIxD21IpTy6/AhgaE58L3kP0rg8400TjSW09hzoGejeAVrgpiHfYCgS/51W9qQQMKyAUNT5hFUQwFhnS0XSHpVEJmPEbCgCzgP8ZrcdHAifAr5CsbnsSzUkK47PbWHhzOY9dAh+z13y7oK7X3RFHENtW/c6CPoz1DHIPhtGJLXFEsejbz2OvRK6HFH6J1a7jl9avAZwzHIv6G/uO7SEel8nW/rWvmiZ/vrBwn9vfG77flfAU2/mb1fp2to6vwBS0OFyZiUflR3hRtIuzU/74U1xHYH31sB8PUky7YbFUbmnd+wAdAKg1XX0oS2Je+XBEfxfpdrnhHMPRDmiK0ZzMVGAU/6vULgcTK92etNZLQ9rHm/cjHqysjUZOzsQAYR7ktY6UD5LUakwSYrQP9ea8/URlhsSHHrCtAlY8D1k0YZvDyUZHuBk/oEzOULxlio7Cb/2/GxHlewyFahs7wgHNL41wrQE0gL6bAOd6R0BElbM2GT+q9HSSUQDMtgWAgBs2nxo+1oTdbYVQ/OnbNblNZo+F4k/EtCzuS+gpb85aZ2TFzg4h6tRxvY12EfhBIv3EHHKrdEyOk6X5yN+4OE7lQ0F8fvbkCPLOfHKhVU3soCpMRqLIzkZ1Ui+v9nYLHg1dPWfxv6653DKuyjeiM6Z2ol9CXiR0iAb4C1kh2u8ufcx/0PhciYdrXzh77VvQrqPfds1YUXMzMu7aSyREIsvx1IqbXJQs4Ac1GDCHbaFBnuWR8uM5PjZjsUQSMMBeje6rVECJF93HCiWHGNgYhhFCKBtpYdcPG+YZjDt4VHwaXYSoUDDTocjhqTgItFm5qZBpJNjyB60Arhn2ZUxPQdfvHaJfeF8vXCPAvIzSMZW1udpBb66VXU5k9DW4VmqQrNzzxR+uFgM/bP2/WRblt9rGwBzci1inPnmTmT/XNBWnULV/r+h0CBp+FOAmE36oFyI6VvtmdpxMfnEhHC7N7SgVFTlNPol9n8NYVWsgOGhHkXGvSAaL2JHXluEXr2uBGIVTfYaVkDcvPWq1voOcEPRmG3sFz/ntPxunsuaGZmEAI+TdNtNWOt4pBU3gWBVy0td6259oDriw7XpGTo763kUCvWSdekVidThqK7GmFFzsTulY9asy5cjSgAxNJVSI2PIJaCNjyUSvGG+WiM1ytXPkVKGA0YMk5F/0R5PpthX9TG77wVuZ8eLwTJYdXMnwZlDqBltbnTs941U+XN907mEaX3svt0jmSclpGMjASB2GlbM7rxKQMRQabvSxIjhI3naI8JVhdeME8QZ/I/4Xnd0nMG0nsxMY/J1MqPQCFrRUVDTrmWqfKEoDZF8pwku8L4B4W4ZCsIVV4VqGvt1wcK5JbW3l0to/4agtBxaJklJutoZLSHb5cc9LU3sscXFxkSUyDLpLsBvwo220++hAAPXld1KtTeYHDcep6VNmkr0hUPFESKsGJ4Tq6r9mQ05WRjXcBAuf7wsB8CHyt8yJ3sMz97Z5YZfPoihJE0YLobbIeVeRu7Ek9ZhuvSQ+dqIFMC+8kpOxtjf+zDbuVzbp3fV+ZlJj+UVE6tyYK26NEWMF0VlZTkzn8IDas4d6VNfi9O7o6Ub9JvKCgSKutEJE3E679qO5qn9A9k6ON8wuwk2w/vIzTXTjwUMNkiWMdQ20RLw6y35/Ct47KhU2Qmu1eXsslFPeXMjCKN5wsEn8GXhhHS9Bz/hADPzWdHRDCGETenezj0ceybZEoOCQOBVM5pFs/UlCVCb0K+bBEi3hANMoH4jXa6k/hrGU8tupAXH39Pq0+KCEDa6w/fWmJWiDlQ27STuGnFYyrcfq6bwsvHU1h1xlpqaowKpgLaJa9wMWr3AQBF4HBqWSPEH3lwSPzRPy8OTWW5fy6hZBiZur8BnaX2/7OW+2i9s+/MnqfUdpvweh2fxk9WPbjUJ4YJcfP3uuLEmDxK1cQ1Lkl3si/cSOivPnNfy+1NDyddmmlrWjfw0v5mChKCNUadTEVNPp79C70wfpL4Pom88FpC5rlnMrKX9XphrmeHSMQvBzMhFc9HBEBskfv6ygVrX/GoZ6suwy1VKfU/zcZu78ilTGIEXIN27eOW8Gnups1CYJFTiOVH6lWLuQd+K3vfmOMyST1NMrbxZSR3mzgYnR/1n93g1s10D/hK16VnhZwo7Qja0TI1LLl6ViJu8dX0i5M82vr2FSvXA4jUpm0td+DcfI5oPYaG6+cyIn1z87v4p6agDjDKOKnq3wzOSDq9lv6Lk5Fh9uyWxdD8RcN8Nr8kMi/yb/vFeL/oCyFJ6Flz7uzuunsqm0Cf3trj2esWGpD2nlUgJF6XTYn8DeTcbvELGtJ9yc83DcSW+PP4/Gc1d4y5Db5a4OPYzx/Cv2VccwIMRV1GfZpassoC4+8wqkcTE5UJnjCqUsGqnrbEP2NTrkN9/IKV9aYmNDjE/h3V3THr4iobaIN60EYCY8lRNjpy2Rdv3O6z8KaFstW4Z6tcAo6J/zHsOeFOgY2jjgbYLILh3mgsPrYUfjpEP8F1otOXLQ7RDtFyiD0VOhG6vrmOJtDZviG1RDV7kPRv2B8yhGoX0tWy+0K6d52etmHIK7BMGrimpMUmEFhjgaukpGQxKWFAdR+O1h/AdUH+pfpVSBEiVgL6FZubHWb4ns+SbXISs95+WCpu89+cff8N9CyDz6/oJgORnECiDlpcjiIySbL3EG+B25srY08M6h1mO6OviEYNPRndtPzKADtQBBt8vJXhWFf0loCSCnY3VyYBSeu/ntrZknXkQvaZH2i2umDSjEv8EkGfFcYFktG4tcoe9pVzXpq3ghPAR6szphn4AnP1yn0+XskYbfDiatb3EkHP6apoNxlu2Vu3UWt3HoWf3qCWLl9b9r7TqkLP4y+dz5M7INStCN18yrpS6dJT6qxvzr6UeKn+A2Xz+wfkmq4NbAK0186mhA5d25Bsi/JtRAI9NFRJ3rNzaqFYNokA+Y2v5Y8i9SllK1NJesmJqRoIPRy3k5PRzcBwXvAHXOzE7sAQ41iXzYrlhERCBIvpL+8skiY8s6m++a917ZYTCW6VbpP4wd6gilCqTZx9wuBqfalcbUIFriuezLbDeo8PksG+HP3kL2Fcyby/++/qf32Huye44A9woQ/QSa+Kj24EtOa9wyEzv3k8YSSogxQdu6HrK+6taqKWGud9TbQQqrx9a3zc7qelChFWsHhj+q8agPLJUdpGWqHLRr8V1wNYkaf9IV5/WTXZZcYIH2DBwcWJQncmIByZ+fCIog6PkT/re4st1I8Xsjsrgf2plRuA+XcWkaa/M186Za5SM+CHlz0BjtbYif418T/+nPljNIjTPjVIfpUCh/aYxVik5nPYAreSpH9TRr8D/2ANoc7PaeerukObj7QCuRNF2k0Hq9O/wfxTMABHmxJpBkOZZ63VXRWOlYvxY1IjHG8utbQQvRUU082FGLeBuqRX5ojM1qkRaVVv5jD7Pi1XENgeFVyP4FsXrD8+5Z29wzlmnp7SaAQAtVq4xXg27Dh4qiFRXd42JY0t6RQ2goMiXKfG/rsa76D1ZEOsnBL9PnkKBbyu1JTjJa4t/y+J+7DqYWwTbfUOdRO8IBS0BCRC6OzvTsW0+uxiSmxswilfxRO+Ts3hKuLc+aTXygFfkl/1k4DkZhrTirq++LGWGMeJrEmx1BZpu9PF9H9g8rek7fjUG2I+B5GMGQHa2y8Jbh89V1WFuld6KCXf/6my2xu+laa0d4nucooWvvar0m3ijado2/AAbvJ6mE/yKmm/pdwVoAdnjAGUuIM9dS5iw1lz23RrKinnJypEsSj2H6EhEmix3vT0zJVfHaICRU5lnVcbP6Pj1RoK1YK5HYZZBH3xQ+OseNuEqqxKy2OYcnKTo/HVTM/PhvKOCqz7BX8qKM0RwL8SE66op3jLz4glG3u9+d8R0i4c5YBVyeZSf3qoEZ7AsMMEucBTgmZ4VIaMr3QbOrS2FTHn1fEuQMUWZhJtx2Njji2agFjt185qxdX+vqAkUbzkNg5zK//we1O37w10kggsqwj5RRrHQU5RgtGnCP8+qINzuFayOBWxpLhpIWNvk82CMKhPZTYBKJwkj5S1XNXXt//VVm8Jkoa3qMqJHDmwRscNO/XNOzMiAkenB92byB2DKiq2kLpr6gutRyhRS+/YufnGSMzzYQ6sCbWJzholMpXkSQI8/5diZFK5+29hDZBR4bpHcXCU44f7Oefdf/WqESa1B5BcRQm87fr2pUpbseFej6D9GuEKcb1pzCU2HR/RIZZ572f6o4vOumngrZsnbsBt1vCX5Ovcac7ZgA3fer4iC/HpjqgK/1aRqJy8Bl5GJkS4DN6dnlj/Je4xjyXQiegE7k6MrBqs6+l+PDTeNrrNaeWn7Sgqylky3daQGnVzpy+fhIWPdqYWuexdfLL1m0LYMqXNfh98+8bbY/8gVDFZnGdmHxnaNOu7XMSk0DG7twJhgY/noT5j5hmvqRrIl7SsdTB5PjtC0GHYQZhN63eUIa2tAjPri6O9Zn3w4IlzZlEqVdMmrDpHmyiwHh9hAHZLAKx35JATrb936yaqX6M12dDbzvmzS1/099vbr/m97x+WbS2Ysf3lHyFwidXbBc18PxjuryjHKaG9XmUSVTVwPPIb+wT1WPW31300+prAu6R11AfHFli47zaET5tpBHX/W+sVqYmeIQJx/MdYZ6VAKpPgronYZUpzFVrZmX6KvXtfe+cXH7ppBMfPGEfymhmHmUwIETdYr+81hIgYQMwpWM7XzXv8nr541HiLZokD5b6tY4iR43Zv48YQkHOXf1PFrevRELXYtmkQofDzRNQDRTEE3iaKEU2e2w9YD80jOTQdBQLPqZFghKiesa4PTvQVTiGi/f877JL44GpAcMYVRam8vy/EGy3dDXGQAHqOM1Ulr4esyuzKDqCjY/90VdDsrqgrkuxFYM53ajxmpYbiJfN4++38Vo4+vOJbBqGF99bEljb0eTm+8WOx86s7bnzwX5wF6CENQ4DXmGhSoC8WF65Kds1eF4ixAtDZ0vzvj02uzZIPpqG9PV5YU0BGOER8F6ZY62WvLkv8ThMRMtuaXKF5gK0AtNZNbNJoGFgqwrp3BQop5qRAuwY40Goi9VtRXIO8MhHM+TZF74WToU29FuZnOjHHenzR1gD3tC9N6KgIuTQoqVC/WLjR8JGtoN9djYusC2wphys0izcPcQB1aNmzu9nnN3DCUqLLT7WguvCo3TXLPdW2CFugxzz+76DZ8GRxNXHxvbrvfKpSti2kvb4siWUVpjgXHaOhHQz+onNfBJgC/u/1lYnlihuyGlSCQFxbaY/OsoWixmLUWauMcFIaTqlpkdm5cN57Xy/wHV56CXZX/dzZlvBK0IbNx/DNPnGE1GgD2+BkVPTMT33VFGHSzygWtmmKJ7MrZidLirnzPEaKnpHQe0WOm6GgUuCySoeNKG4DrzGzcskHAM1LcZMc7kxwvdn1k66gr+tJyybnnOeF2tD/62lvbB4QdA+0RQnSgtr73paQd0k3nlzfLRsNCs+CIOvKGvK4VABVIjdNc0k/6JwLhseFhg4yHCzQTmu5w2G9Hv5JeUMplDTEGAelZ3apQNXuezWWtNE8XLVReRlK3kaqlrxJ9G/I967vxlskOn+qhj8jGR4eTh6bzn/qaf1VF4NgVckMpIuUMWhoYmeC+DeKb63RgscLAo+yb+skRVeM801CVLkklTSRQcm6xmP+p8udT9YhZORw2esJ0+o6kKZnaacvdi7vlPzMvTDyo45A/hTIl0wYMNIqyIc40hiTDDsxxmTctNSEYmfILUMfonyiMYBqbjqZU8PMvZyFdQWt7MQoR05J+IfOrxgPUt+jlKnHo+FjNsTrgVrv0/jVPNF9ac28qFzgQb3e9PhBeclfydRehps0iOlOrGPLd5WjX4dc2g63vHX8eAlg3tNrBT1t5iRVP9ZR4135+hceB3EysFKdQR6c8V4tfN037DTTjnkptNq9lHKkUVY8WA91CDq1uUqhf2ffqpm1fdirPpjqVxkz78Qj7ro4487FY0Dd9MgBdPjZ8Ol1I43ZmzS/S9/7giid7cFq9fz9uO23GXv9eofMKivbkXXdcmSgYxrzqZFRhmWZU0Be2KxxHDFHy47xblgaEV2pbUL/K0ipPJb7+3GZj5J1TXwqkBRjdjerG/2AtfYck5bJNKl31TEbvZRFKiSfVryXmYjwhnJxdfMR8sC7191o1/fNpjKk/2moZagtwRiKSzPRa23NzFA89CE03mmvbNcLVFJoYUjnhxJDgGgWPHGyEPPPzaxc7s28PTe3Vcfv4eIBu55wOB1lowVRunV+KX4oSuH8A/FOIuCZVLhSHpplREWNdfLIn/N64kVT80+TocX09mTB0HDQhCF8QAoCCzWPkPJeZuC/wwWBpBSLurTJdnkv3IyGPH6JimQQtodWMjLl+uYiWxV03uVl1pSHKJjYbUwMx3hwxI/EZMF4xyImymkQaG6YJbSVjJV9d6fcktJTHl2av977sGvcHLfcc5w88wm7iPXBuJ7US997gBDSJSiRjVEchV63MI0SR9kYZ9MlVa+6GBO2HazXgVbtUeHqjAYQ9qIk1o1XVpZpfEnPtvy/ilC6yxAmCoXCXEaSYqXTAJtNiGrlRSKuro4T/pDUsqJNMWVob7VljSo7UIxu86dEoCotG/FwTsoEN9K/koRzj3B1UWSIQKsT/TH7EIOSt2clR66xhLAwzW9yZSzitekAuTT5bCJ+B2x/vTLBzr8BFUFsq2bN+Q8YBl3VMoJoAPdyRDJaAeuHsNN+vZcNyWik2uPAov0jEdbiefqNQRCw4goaaEjPoSf4t7zpmmXJsnUc+29JyW8E+4VrqqU4/EIajX3OoX9O0eOjiOIy/y9v7oib42GXmYOF8E+RTWKOdJ4MOG/9PLMJONDibbhCmo/PeTtsXg3d1E+SFlRVDIwazcNdVroiBx4TGAlmVnCjoTTluharsjbIMS1JtJE2/acxPE+pVd/OdzqxiWxSfIHszWufvDyJZzPwNMt0iLWAO3hCaMHwA0qfcCgUeryFMATGnPTfJzrzzRIc3pZo+AiwSrS3EcCH74tfhcUBcoDXi7jH7ppYcsOMtpvBKJE8LB+Xl0Idodv5I42TvxJKN9X+cGxwBU3NiBvtrq+kAsXIJuOmcwys5RLC286KlE2U7Sc0Saop783a45RkAKI0fPHaXqEKXxtVsyjR3inBtiDi5Fhb3srn/sohLU7S4JDiVubTmKNyiYxxjSEYB77ZK+0tFkDJgULDGux69LrqpMh4laLNhnAKnwSwdzceNuhcwWskiRfnJYMrU7lKt4htpQvgvTosXYO75fRg3JVPaWmjXo7fUfrIRQ3H82aMDyUwQZHCuet6iCj9IfAEd1SgDWrOnHnDEFilYQq8a1MTRlimI/qm1vw0rhFwGBxZsSfwmdYqivuLBeAMEfLUBDFyPQHH3LY+ffNvdZIkZyA489r6IFbrnkqr4wutxn/3hbsjXQT7iku3NzkwjaZWsfbDWzdQDVOsqfYNljPN1mySjOuWbccQduOzDecOlzeKaYSQCH+dMwD6D3TemM5p8ra31SudoxnojYbY2bBbe9AfLa1om+17ozQdpm3NDpY4ADUojq1/seQ4+GqASf/sl9QiBSfVBOscDGerfrpIn+Hceu2TnFiXjaGy0En+FRzAMSfJh/x6jQUdgvnQcpouDeO1vppAvDJ3JmzBDURaWG6UvViiBd6azYaLb9y6DJyJfJj04gAQFV5k264qnTGXdMwXqdCRUFyaoduOAJ9aymwHBjF0XFx0piVjkVgbdVrkFvNEkmpnTtzmTObzMEdH+lgfF7gsUwkoMczsApdNV+siAMgl3x8X0+Pqw8P/R9M3Zo6dqvDssnHFIfLMVDIp7eLt7+5ExA13yL4Uss6Vi2w6wnnXpy4H0gfplj6Tqyl1XPzvA8k02+YdFJKsOq0kTFYcZmUFIC+StAbIah8BXLmwOVhDOJeNPndltSgdI6vxyBGIWg1/we1heNiniGAC90dJ8zIw31W7un+QQi0oOXuHJRW4/xomVi2kkiB04kMstb/D3XWMn/Hr7SccYfSoOFCkFNQqzXQyCkmJaHrh1OljkenSd46KB3DI2Npv16TmATi9UFi908SkiqRGDTBWVNben7x14j8BMOfZirWSLkJJSp8bMpeLYnHTmGGRHQJpH+cUQ3O3SLEfrVSyFzMB+62Bxn7fB7XyeHI0ubzfOeCeV6Qt7Dlfk3VxEt3vJ6+MDpi/HDigwfs+Noiksxw3cosbz9XULJvkvAFimFtfZVJxc6jheBU/6JP4OjSF0tdkZgbSnVeaRQTJn6QxHAuFVcSeifKHoRN89eOOT7eHQQA2b1jpAE1GSlgLkezAPUWhibyCBP4nj9dc2gBfcwTw1g8YYXHHVsViYU0zuouY6Ru/FKHO6+mSsdP/JyJczhUv1umWBoSnjUo55hqPhmJ0yEf8zYYcjrmX0YQg80O2gYuSmcGBYkxGB5FJ0sHx/0SjrnyGMTYsm5fqCNWExpkVRrMk2dt8vO4Iybaie8OSPKpREVIYELQZ1Ir2m+6qPWc18XkyqXLkmqoY8gbmPBbyPLQaoOEZA32E3qTSFst0kAqFT336WA7MTxdkHot3xL/HkR1a5NsuirQnudd7qzOWxNLVqTsPdcUvVPWl9kWFWkmwsu8IBal4UblO3zAKbnAYcl3lRY6L9eCaR6S6/g2/0DipVrppEicq/OOIO1oUDxM3Vgh0iBRniOVMNDDNaXEz552UWt8K3wY4v4s+SQncGNIQEm4rRXM1iMPTu3bXweSfgI6wS2+xdc9TQxPDjx8x6WdVtg/HFNkvgT+0nNtV9kzzhPl98NevVdKu6m/U3OiX3l23PdsFHoTXnwfh98BR4Q9kjd8Eq+3gC5OPHnD3QUDsx6f83cQ/Flzj1+HGmca8f5KXST6YZH5vjRs27u8mU3Pd9YLOYr5qkDFf6vtTk60rOgBU1hFGMqrmNaimktoMfQFbqJycfs7B6c3xjbLbKAOjOPOy50zRO3JwTRaOb7qQhTVENWLsAiLEWe9GNgyE1EXJe1fmWF+3Bvx+uVgFu6jDrHonPLYi6dRu2PLsJxrJcHsmi1P8LYQ8t+m8css2pi8vVXhBMOKwWy9+vMahu/FdvgX++1td3z3GYo30pCpQTiD8INofbbyxKyCQyfeiq44BWMInztGEZVmjYbc1NfmfjHjNkUna8AMeUdz4QnArNwYm2iTa9hkKwzaim49L2vfFnqbdgCQZLMtLyyJgEMXOdhC8VSSLxRP09/EzzUPoiYSRymwSSTY8p0LlUArVfMtKAgqRGjdS03IFi017Ykeomq7g+nmHSGZ9dyXxzCSUmEwZ8uiuJYkFidLuzViBgvi5veF+Ef47X6kpgmDEPM5E6suewfDc6H2y0hHiE+mvswdnhnGXZQtcDShIDKdpy2BlxzyeDYHqGpSHa9ZaNExa5FYn1YIQD1+WmrKOnO9u+/12IahxJ3bKB+lEmaxzqXDMdCW2s8uhBQocG49tpIUVyEpQ1r+rzP4U3vBBmbcjn0gshZNl9mL3bDQw+RL56rxWlzKTM+HBo3q9WWp30Zp55VOy7AcX0gbdbaHDHnZf+/KdlGU6R+kRgZf5WzSyD3Cso1OhvTXvGWyQQ/PU6bTzJTqbHePjRbcIEklJ6tluNsf7Yr8880cgS+DUHYJ20IUburQAoew8AC2JdVCygwM5QqyGIRbmcPXryBTp6Ea2woMHMjJzjiVZ8K/Lyv8d8qT/087Qq5u5XnflnuHaf9pMBVHGZtKAPnRdhZiqpUo/v/rcBXZVBprhRxRtdivULsL8x/cFYEXt3RJsKSroleouPHpIE/H4oFkUcQh1AmL3dEQshqEtjZ8Usugg9hOqwIJ/16SEZq0QCtZ/hss/eT9VaNRnkRjodk41anmtfZC241mt2m3k925C8N2kd7CZD7a+8K79m1r+wDwvzRbur89p0S8rnH1Kjp3uwYpgvsLlrHkdkx4gMdLv6D0y+H3lNVBDT8uyO9VdvUEZy7NPPHoLEmubVz6b7ySE+s1+FLgSlsut3u6SaKaFc1t5aQDEJgRhgFxbaAP7Z3jGE/Q2Hgkmbj81BaIVKqND7sUEnFa6jovzcI1rYXfH+Zo4LLvgMNlm0NoXZEDJb6ZfTDbfqEZThRcT6cDPAeT3gnkojMOz7X4l/JXZPFeJDkCEFvKoQikxGZFy/JppKNt+XBQt6kTti1+TTu4XLaxrvX6SZoAGrjB7JHM9F2bBjKHh4H/QuDX6YRifzj6F/phNvOA9v+nXLaOqp+9N2M4th7th4XY9r9O8jGVij0vdURDBvE8hM7aE41uZ/qxta+2PAbU18pRCMc+V+HpOwnMMbkXFbXKw9HFANKENi/fx45E8tQQRKoYf8btlECm0Io1sYLqhzgjvRh98lkQRR2aNX5sLGL+X2LKJ6uMyzGk/lTj/W4sUeYPBRE5EDLk7ajfGn5qlrN524fuH7RdOWvO0m/eQ46J/nb7Q6OrbLVslIdqHr0ojn9qiNqKx6XUb9zrWT27eSzPQb8TToMNC9p2l2v94a5MVKkWubhD8frJwZv+SbzbScfagD2o9ohltBAolXAXwd/NspPnB5eUIRfPcRcjfxtAzXszpHGpBGWxTtIqeAn2PFtQPpmhXMs1DFnKZYw/6to59yAZOkJ7CduXZjNisEwoVpftzboJu12p9xLnDTfOoN1XPPDBp1OuH1TkWcy00a1TKokuaWTHeP9E3sQihbkHHmTHfVczRq8TPshmAwnT7tAaiPnnlu/fDTi3eTbv4V1JKTquiQIsZAgHh+HD6VIexGlVDIZnSmdIWRh2jyxiMk6VAaLsOKUnQ/VcBitJOj/0bhbHkYII371lylEMvKzRXwy4iAwhmTp6/ry/Tij2Z8pQk6hjpa1yNsyFujpB2brPlIaxyPE4PBQL9VD5nSn9xD3f0zRhCU+RGIdSZkajSaRiI1/9o0+Xxny/FOd4omPy5B/7MnyCZIvfkSKfakE+2TuwHaWGvynK49Ieu7sh75OcndlNIO5DfZv91wK6Kw/zq8vpeyYy1pdBu+4BgYGzJyJ2t8etanmHhleOTGNk0qDsMOoQmSrAcJWKiAhZDF00yIsWoBfWliU+r1QwWCGuFEPzEXgGqtXIP7qykLMEuPiSaSg11KqOOcchzNY8KJothTiFDFV8Yw+EuyalXXeu192yAcEU2BPurc0gdbLdsDzuIRmSHOu89QkUm/18VHc7FnK2eQScff/9FgOi6/a1DTQ2TbgwhLq6tpvFijkGeofLeR1grQAEgN/troiwrtNH20WCGl0Me1nBVdI0DjVVrrNRMKxnUetSfZFUyKbohll9BuWHV0l/uy6AaprKuZkZBTQE0ea6dSCSWywWmQAdmMy2yUQy4XEa0YPhcjPfs3I5YT0AJYSOkaIVCXpM6D8YaXw/kKy3cEOQ7AhPhlotKINd/p7GMhIyshlWNdnJdaRw3KrvkvQsBXQ29/3Xb3RSxKL7C95QAAzRnlUF9B+N4ohCkS0xoEu+zP8hljLdqc2QLLN2oVL6nphApilJpzvD5ZZhCY4TeoIbrDLZvS/1R4P0sE2SsPRwkG5BMbFhs+IqDNDeEIji05SfijqA0th1P00Su9r0NZQWtHwKD2GXlmVV3gS1u8Je9txJdVQC0T0cQhs8JCOT2s9ERBSuIQxaAPEgzxufzCCLm7+TnI4YO+Aka1wV2BIlZ86Cd+s4iWHMrTdL3kxo7H5sCbJU8jSGx/RcuYE6wBNzsjAxtKmj3FgcAwJcyVJnX+rJgG0jqoIHZTGXeJNKrZLrO6iw+5TIbbeybPfo7SEK45fjqp0uBsp9ZDmqGpPLGZuQQei5behpy4z8gY/Ex8hgyBMNsbldyS9yJBA/IDbeCDePDiBQemzxRoHJ2jpEopigIAybheBWp6geziu/YNEPzytIUVdHAZnXc4F7wSP9G2R0lIr7eB5U5kmkv0pMmIIF0BCSSICE5a++LFadEridGUOegGjfi2f8z+z/fja2kvn4JXnqalcq5ofiVZ2TvID8KYaBO4qYSFqbdrFlEG71oM84M1pM5VorltbK6lWOkWd0RRGeGkHMqkTiCNjAf75Qyt3nlH6089JkVNmZ8lDwVYYcKpEp5+Bl6XNuzhaMWZ2A9Hv6JOl2LOpd79RUKQrouqhpVUWm9fW7jv1N9xa9n1kIUkGcYVvZ4l/REvRelDKI5+NjEovKmCcxpoIxM0I4cyIubDW5cN70gdmwWzbM0vtRVm+QW8WX6GbzNb6bIj653UYzacIdHaQscY8MJeAM4dGLUQHMFfw3i/Qd91kZ5+2uh0/wydFMihI77vksg7mTezmTaOGaVNb/sN022Hr9QJRV9290Nh+xSHjUgzM3/GoW+WRCicRU2NpUoRSSoAIThHUuzbTKSz8oh3ERgBX2/4skPcRKJZccd9vHKgod1E7QJ5f8n9e7nopzcDu6WelNHyM3VriDdjxENvPS6cV2gg4nhPHu9SmksCTcZCseIiZXZ3qbnvmGpMQLJcUJkWA4LvZaQqq59BeuIlLk6OzwxpYdTH41BAjwg+8O3/LUVOxvtQc/wGHnlbnbBkd/iEK5pQNyHwMnaruZi+MD1jAnMPEoD8vWHWIpeLn2VMTH9OCxqmfW4Aa3xvzPdhSoDAqbrJoIcWRhmAqt5JOOoJYpmGk16qMCMw6SMvzOx6SVgG4r86t+zTLvvpp/zx1KnD7DScbtLOFGC9hGKJAJL6vOv8ZVaKI/kBXN0ABNH6hsw0SaW3S2PrVVSn+0sez68BKwV2cqBNt8nVlxaDQYmWw8Ws+lvRSx/g5MZf+FTx0dCl6++XANaDYV3GTf84+9Do8wqTO/fibVrPtx/oVefMbljx2LG4mLPqtHuAv8TUuL6mWSAqBe6k41mPCObZVA1lJe0JHlvMURr42ooXY02tXTnFyicrIkYS9srTISnS8d4vpz03ZMJxeZpkhwzw64m9TPx8MUf8r0JHnUFPVzg95zbyd4kY8MgupxCSS5bq1jfrVUvjUDcjCqlSjvbwGe+7w+/Q81sDMlcHSUJ0wWJDypBDrDj1d7MubCUbWa+ctL2Jw5uCFhKlqrvu5t9Q/uF7zjo8Cr4YUY5w20hEevCZh/8QZN26eB9cJnfdeo3QVS6kRprR1ykNxukmjalz2QeKEK4DJqZgtsIV5KdxlfRjscVbp4tmwPvssOX4BFVpuvdGUhsQG/ik3l22U8Jj1JrtNOa+0BJ8e3O+RbZDOxtm1TvSsAwP01Wv4fmDbZm+LC6CHkLEEpJMbXtzHnarrQqrTOOgkDHvE1Eq34MnUvTS2OjDntPsYsuaezU9pB92LIZzMyuEVQ3ncGmN4ENFsNTftj1ACnFqpqV1FKFdrtohoFBNHYdu47gR3iwhCYVkQKu70dkfUO1danqpyFBuUPA3qjPAf1hR1N0DZEbP/JefGEPrvzvnM+S/WhrzfRSJwVRHRphMyTD1p2sMoBtKLIis89+mVxwXsxAfdmy1wg5x6Emp6huPiRTWFflQefVK7gji+CNj41W5DEevQ6Q1R7CVEf3/kNV6EDJo9VU5E/LlwmP9rLTLvGocyxk6DgJcRziNagMXdbFf5X9M9FPMG5AB01CdSgFOMpm38TO/OZnBcqIB34c2nRpDQfrS+qz3b+Z2GDBklOexl7PO9noP5/dgCaHHYbO9E761l9Ig8DREGL4xrq7YvnSJNbXHvHjh/na6MAL+jdhpYfv8yH0Q9RF21SDzJ7lGDapoyjCdbgOdZ2QBwsmyDczJuD9PlZg96QzDnqJZD6thTVh9E4+TfFih+ZRdjAvjBj32Jf0h9ScpNgkVVyXH3Mk6CNYjMk7tJiSKHX2B4W2VJ5EQP8wHCqujAZfd/weqEpNllR7mKWaKXE+95oQPH6XKIoHoH918fRlWgODUhaoYnGQbVZnRqdxqgT+CeBqEfYo8kAzADrn5XXlPxgMZddY/Gvq16ETVa76CgQaJlocdXrAfP2FT/zjZTCOr3cez96iV6CZ2hPs1ayFm1DI0W3Xmplvx1g57pNwRLUfHjFGkB8l6iF2OQ7GmdQZ/DZmBphSZ6t/n5HDz5ZLWU4/EHk14fREm4l5MnVejpqXTYof8t6B3Vjd1lWh1JLjwBjR7k/7Qk8Bq1mKz8LFYznrV14KXBpEeIiZqsyEN1wkJ0RtBIIzBItyBFGmCW/+kCrPjHeMO4qD0psvMxP8AOa+Bv2wm2/rxet+lTCWGCYhUL2Q0RALegQiSHa+40LqbE85s4OUTX9/ZwHud3smdPXdnwlX75hA4QtkqFNflWN7FxkXHuXt/wqvEgr1NMGqJsYcNE9lzFbqTEsciklLRncWp4u2ySVrDmJgxyWYoK8oyCwll0rhjuXAJ7Efc7p11adu9ZXChTKEvVE2t8nBuChIc69KQdMrIrlw5vBp4amh5fU0Ptb0E65tuWPoVbluuQk3UuDew3j3OGApOLoNFwcZECQIhszYf3ok+VBg1rB7a4rMJlyqvh2zOD5sjk3IAAJcyYUaOSRkN3XqnKpzOcf4esOKQOG5pCp0Wihtt/+2e9NPt5hn52bOOGxePBvuf6ehhhtEG901MlgxSkfu5/bLPy4l4zhJVcLU1h/uxjRD1ztli57gPgEIs09P5tlfz8+Wp8S+yjMoVlLdLC+o2jhVbU06bvF1HrPG9d43lg7pLasAPI9DJWkr9zLhOr6bft7Czso3uMtmv8DPzgFVaLyvH4A4f+W8szD/kNwMiDGzIqIHyVk7WyeyIvyHXLejA1oIk3MBVlNlQJ4ZQ2C/5pmJC5PEyGM2yJS4aozw+xamOVfQATw33pIqHDDlOt57POk259GoCm7IRVgUTW+W6zrPAqk8dfCN4tTmg8FBQWS6v+NTRR0GD0X8LxytyS5pgeXOnT7B+lufmU1/8U5yDQdZO7CFMIxC2CUXqpnTbYoq4NrWCbh42vkq2juaaRVvoydHYK/8ADPRiQlNXdnfUAhH7HKvnCOKvIQ778uycd3MUfJEBmk8VRBt9+CW1XqeHZ0QeCSuPS9SDxuUhzXHn0QFG3/5XY/TjAzLrcWp9fmbEh+XnnOGyMaVolX2wdcEuyZmPYcatv/k9e6tfcwAhkuKZS3hIaNAO07jG1ChKT+JeXroyy675StSEumfz+vtaHOYxrzo/5FlbWubL+SV4vZdm39/Gc36Q7ZX1vy2iRYbwJFn+YF0XkDObLdRZK8ylWqud0W4ytGHtbHPLqAFesjQn+yZjs3dvts3xQ1okmUU8+OFR7rmXka5yQXc3zM44yQgsp4OneKLS+QsZwHKB1zXfQhWJGq92lVFM38WwZS739VCK/BwtaZ8FdzCCkZYg0JttnoKIO1zNal++pC7lWrcTNB0rO6i6n/sUFOFcNIbZfaRfiVEqQ3YAMfmowULeHwiteXzY1cz9VAs7DaRPBz7vOXvxgujeA6kLNh9OCFQuSVrlem31K+u2CjyGc/oj0PMbNhjKLV0kH3JwMZNiQJSlehgSyS8GkbVU82AbLW5/Va5ZsTncuc3QB7E91+TiEocv+3HoZ2NvvjlNFe0NElwNDSN3oh5uREswHaJHu48Er1g3nr6BNVAP7X0aYFRw3vgkiPvPITNvAmpUrCVz8fIe3zo8XFNygUSHASt0xL3En6QEttadw2gGxhDpjClE8D++tIgYwvhsxOJlnBIL6gtEg1p/EmJ/pmKhI662SF9E2iVbnzroCHus04a2Ur1cdkYwznaBH3It9mi84/QzQH0qvws73yxZABteYIuje015ZnbTsVPfGYSC8N9SfKPBAq7UtnjjEc2MFCFnxShlzjlOzyEYghXJN5ypAZKI6hfVf7mTW3nqu/+CuwNo9X2noujLac1wg0+rGSJ0xiZD3WW1Ab7Ir9+kwrvntXYdEV7FRxAZuUpM2GzCAvqV60X2AoMKLaZ2ZpqnD6mUdtH1Mo438hjEPUbpite7dxd30cGE85t+RPy2OKFVjSw4stlYCtJFgjiUlk1oEaKp0ldf0OJquy1mrkC5fiJxgJ7lS6wVFxOgu7ocogEkKINCO3YTaLuu2nyCadnTtXHiBy9qCw3l7QYGAUPYXr0X6bRPrx60Sy/AhicWhyvBgXL6Uy1NE205Fr9mIZT8QMDHjAHUnvOwPFGywDjvwmw10MZyc3L2CUO+AEZbb9/3yvHiI+7RPtM8FhBD7mBsXZ9nPL8+nTa3N5aJMO0hOH/RECYmfxowADhe6+DJu/j2SnyC2hz6FNXA1VEm+Ib4hzDk6jHp+9+Jj5WoX73Z+LWQHNrjD/5EWbAS65xxRz8BnemJtfTZuGD9z6HjSHDaft4PT/osV8+AY/URoKLU0Wdbbw5mrEXLJi8fyTALGSFRE8lfFZvW5bqMMqOPSz8vHL/tNV6UAGKx0qwYYoiE6qTb043q0GqCwZK52ATX93TVCE5FzKATocGU3HoZJOzJDzTgYjyk/aYYT2te1NiDNHyTkBhp1Re/vrTDG073ybAshQt1F356D53iwoLbjhA32YCyZRIT7HB2rv+dQ4I0qZjHxd/aRTG5Tfg32UtveK6enIH7KEaqfOHXVetUWylkLQboXIoP09XWHF/+SD5yb5hAwd83TInwjq93TqiSma/GSkM3NnH1Bm+NUH2naLGl+1OWxqyfK95cd+EBt6h3Usy0m4zyrZc910EjFi3YygS4pdF+oh0GHGgn2wFyRpPgXCm4zVoJpA9O/kA7zJ2ivwsOKkMCvKJ1nji2pS5H/09W9DrDPAkPQlb1x8yxVIbiuyfFCUV1+X2evklTOv4D0nzcC+DvhMr50ENuXuCg72t2ZNpJAMavOn2e0Zl+zID3dx72/6KGL0Ud9nJrAGcfailCaGybqMXiHqz1dCx58tfTGFEg+q2hGTMRTsr33uht/FKFsAsrJibcWdEuYZ2/WaV5CqBCWEO+QVUX3rltsdNGLAkuMQ346ZhcPRmIiR+dRcsksL+vLoIlWvlTo2yPY+SjOVmvgU7d0HvgAMp5krMWLBcgTlyB14XRNQjWRw+GPNr/Qfqw5sKTPMRvaRSxGgWwrXAjaXwq7wPeioDXBKFWohA+U+iDNyRXUjyELzwvcfPp+JEPl3bmh1sE/ybd4y8slc5+sPfuTlD9R0QjG6e5p2BLrXaAtp3wkP+Cd/J3+9d7GegeZJfu9TqPqdwze4o8o3Mzl9SFweK9dJ4rQjeYe5OX7mceepycrMPfaChgvSknoBDUdOHdfyxaVf3kzzCsDFgDzDxwRZs3wix+DXrWud19WQhRwfKGL8xKpKJWaiKbUGPwH4WpT5MU0yv78fl0gR+/k/VDR/yG/0a+GuTzVL0tO/psYTvrjrMUMy+pgfPnjzVhNqocTGI10vlBYGtsHr+AOcVA5F27TubmeHWp4zohKkAqN5zXA18HpUKABw3kIjYPH1vf8CpCEkEYRTlbVeHAz693sWVSVMyZRMu5vKp/kSaqxtBQlcYyErPA2m0M3PrcUn9d/4HfVJ59zdXpa1runYdMlNglGD9T9jk3MLjlnOXbI63W2m18t08PzjWi8aAt2jCRVzqK7a195a0kXlq03yAbEx0khu5S/Igp64SOQeL1wDWbJsqQ7LwHsNj+mT6aHJkbYz2Ivfad017mQ98OEwK+xJRlLuOlvnL7CrsxI3jFiSnaYBjARrbiN2HHYqrERlns/PaEE7J/yyY4cfE+LkW28+IIdnJfqQ1TBoOr/7j8yZr+8fj4sA2wpxzs66l/lE+CAOkqQagpxK0QqpMFez13f4KRkm8sYn2maM5uo/dPQapOFjy70eIQso1wPCXiE6ETiQsAM+jt9skEWfoUMPzD1seaOKdbvVzaErB3lXP/G1nsNz8nbRBItvCOXlIDblGtFuiJIAWowOc/npUJQkF8Bvj+AGox4hB7ObaG73rHEtA++i1YQczrYi5t0pncUla2YFKm4Ov8ypJwg4VlL381DtEyvzUrnUiP5RK89TzOlpTZJRkjlag/7InUv73GsKS6cpyTh9SB5YMXgfYDAWsFR8hxxCnRTBQaDXe0jGHzpSmx2Dq8a56kdWoVAfydCQ+//l7ncXuvGFerZ08IXCqSTslzN1GbDHte1rzqG6RWHb5s75oWO1ieVjN1WNTMo/GwhlymDnLDjJ5bKu0u4DvAVZcgWyundMt5A2vR/l+kFJAkKz+nukbhTEzZs3m0c0v7gE1GlARkwPRo1L/w2d9ucPXlbjtQbnzqFxhOH+7Wlm/5vMq0HLmQnGCKNEP1K3kUv7gjHTiVk0ppCdnn34L8O+qFiI0mR7mAVi+9xxqLVGbCjeVDqBlH3AMHEf7JxBYMAUgaYvvirWKaHgJLSWbgSAeAzCoDq3G42xCZXhG4lPZML/zaTOfSL3DZXk8B/roZqE1lBpI4cHeSS54cOuFECOVfFcfqV3kPhZoVpM87M8o0Rxgf2tdt80vBR1Z40Z+fC0FLU7jPcHyX83ZR8D0wARlwHMAMaB8OrgdMcvm6YZbcp33EGcfa2+iffHDYcnG5Cj72fJvKyzThOWQEck5AcYx9YTd48fu2OUPzyTxg+YK3z0Nslu3KlcH4og+lTCYqpVwUjlalP8lgyOf3Keq2KXiWsFslah9dVFTPQyrX98frc/QrtiXDmHy+jyZQMHNUHV8iVqnFSsQKPMKS/wl6YYNV4aBc8YLRp4VYH3Y1HVegeXsfhHAXS9psWbD6L3DslS5yJSWeB7W9KNAnCfOS+KfL+vf4gfEdyJjbr4fz6GY/JwTqycYb+hBQvAgVFwTkAfDjM60YFSQe8pgXU+C9k+sJn2CyNor/alNrWuMVf6IsCq8OeUZ6kQj77tVYUA+NrslrWmp3Mb0ZPPEHCyQqTF00unXoxKJP4nrssFUUSX+s2ipsIuBA+yp9Sm4049gF8oOz/wqmc8xuewqp4MRy7jMoA49qxyPrAKDzuHCu/pVBeFUL2Yh2uIrOwi1byJ4feVDOyhy4qQeQOW08T54j+QUL3TgyloeDXweqdN7QJP+qbiw1QPA88CdRB+BYZJXJnu0m1c0B+CxcuD/hL1eFg4MuTVhJZ9kPD203XA+4bStPACZ/b1wpyV0zEtWerJtVXOY1Efy5TXqYFj1258AbWhpPquIVITiC8/2T3e7hsFryCA965Mcz2586vPFJKPVhNrmfyasRm79kNepJVJqT9c967fD8FgANYHchlos4x124v9NPSvnZke3GN60fE7y2IWlMcVyY5tfRo3KEVGddGjyGBeB4MzI/cMd1XlhqZJ1qymV2goV+JsREBCZw7LSr9/OuONQIPjmyXZOFZvtNrhYL8Chz8M4H2A8o5bWUIUUVq1HRSXnqGFOO59WwCodjCuJMK0HrwK1O6ILUlTuXZloVOu8cG5ZcVsZ24hmOKQhkhnrLVhyTLAoqkSUx1rfkfdgyOusuHwV/rNP1ufJH/6CUK9AF4EZYGRVXwMEBHeyiWYQFdYMgsOd3ErKe7it71/JF/zYwxUz13CT3q0crVdnGZG1ncc5yRVt+70vUYafo1XBucPSr18r/+KuUs/qSIFXvYGDAgSs4qBuCdDXYW6Lg6xFIyFie3jhkOzqzBqIl7I4mdp2mahjos6A7Jf8ncQ0xHNilyEwJ9cNvX3UJ4Eye95zuq3DaVVqBBISs9QB76qj3P9dYa+0dp5vTYXik5z8A4f07rteDucg2h0HIiAqoNAc/7KVz2fl/AwA3aYKa5Ekg/HhVzZlMwj/ZH1heskdijwyUFSMFII5Sj2504RfFrxVumq12Qtx28nIQwwL3Nn8cHGl/VnXHWZUhqB1dm8l7Nw1hyn6i6hAEBFcuWdYQN5G3uwJGBqtuLs6GEKnnvv5+ACP2XSNJo3pOFYwCBZFc24/1GY9ZgGyyWgY/xmLHIu0jyqH0ZcuTrerC9jRcBCk+TcnU4U/erEjDx1xoDeD9vj2NtCMRP32hTYhpcaL2MBUOdVKyG4DlfgN5LuPBjtY1Oyqdk07qEWlgws1tlSJcOseVPaKvlKrjLcJ8sb3GPkjf/Pxa0umSsJUETvce5zGb8J/jxww64XKRJhB4MtO7/8mlBN5Gr3yeTsdZz/ouZLTwbQ7YcheDF0awOTfYEnuyBkPVK3ubwaMvrQQBHNHv9Vq8jmgIKKv9ISrXjN9L0spX1NATGjNUVuriYPtWVO9eSCht+Xg0RPwsfOPm/IiZzvMoVVsFjMSo18GTQF6rKqPQ8paL3du3NmoAF6/wg21oWPUcuj8VBNmX/ysinX7w93jjGk/VXKgCvCJCzpalRj82txRmZB9G/xbdO+6NcGOXjCghnL0Mbu8o0OsJh/45NEEkO0BSg6e33Nep1DHW8Nw8PqeHNSsjb/SyP2y8k7T7ncSAJqkDcKM4eOg+b3FaUca1aq5Tq0Ed+amRdISBU0COfZ2dIb2rqve1kL4r1uszIgryWp1heZ1j/dSTh6hLSOOq0x1Xn3QuYfO31hIhxLI4y1Dj9Xs2Lm3gdCckSVi4rP/SIFHtFlhEyptRoNT+pc7mpo7V6dhp9jhKwCuSp5wFOhVwbprA1pqyR/Cg0LEzamOlGBDc0kd0CaDIuWVpodHDiK0FlAiLRHNn95pSJXoXGAp2fB6Yoh6tymNl1FA3jxiVB0efbUGBntx3Ry0DeLzcCwHPxuWBWmFKW3HXiyzxn8vklg5eJcMTWYld9MtylJzmnm3Z7zJBIHLQgXbx/oiHJKkwtbCU+OlFNfLsRUjBZtnyYz972Nobcfs1f8tZhtnW7cMK9dzHtARVlg7jHn4+rOlUwlflVhIXCZNtQ7fjiASGb+8xalu5d1QlhUNKoJTA4wSbTt1QZnz0X7vE3vEwGud/80B9Al3wIa5QCz55TWfo9DBl9jLZYNJAyU9cGeumcCiCAdZfiQEaTaQvk6U/KXy9NXh/Lpb8RoT5ahbdwh+6tYcVkEpACJ6pn1AfhNACjp4EmnyQg7Ub/5eiMY1YFyyk+McIuvNZS12If7mhzCBDqdJDX/4CbCTetDhs1nxXCvOQpqxxYIaABiXCznUpCfRDtbZ7DFiZgm0Mo7oR4K3gfFdJE66QKfs+V1V35bdeAcEzy+eB6VHkSr2Edxpe1DBB4d25bA+ir/TmFLLy3mWXuae07HhrHMZddI/6pQAqYYm4oa7AtpsfzGo2S7nQrzlunsYNb+SoI8WRwHjQMALPgS1e9SE6QuC85ZqKg9VG+akO0cOjpoZO+DUyBxcWf9sQVLR4sJFbPeZwGIr7XuDyO/A37wbO4QkUh5Jb7QaJqe5Ua+686B4LkBvikpzTFBfCZjvl/2DJoXhQwDUpKr0I5lbFkpa+ryHX01Y8Txse8czAKH2ONPznkXAe5azHPP2MNdTEFt9JAqXhTnQA0AnaQp9WPi3N273lVMhV5QnTPJ6et8zUKr38NNz/mvkIPAJyThqPQbwrTDVmKRJnifIoqPmE8p8syrR5vWRwIbsMejW7+qvQow3z6jrjyicgBzAFD4GRcQJvvMRI/SRguImr5jdAr9Ciio74G1eaC513RMUizlUV8Zav+GY/51A9bt1MqGTiYyp5fsz2NreWdPXruh1CK93zjnvzY7QUK+6efVpS9owPKix0zZ140fjUO9y+bNJtmTpdyRuH9iIeZNDWBAK3ujFdvOQh2neTTiTtOhjc/VCH2enO0txVB+387PVy1fu4DoFnj6BQRa0mGQlnwCfeOOu+uhQ/7AAdv3A2QR8Qp65OLaOsaFkIAo6941RLfJhbx8p8+AhOe8GjvofZlPaDKCQXYFFjIGeyB2O+FKhVoohJRnNS5PzKiqMzc/TrdWgfRFGHvboSC0OaPvD6TB3g44iD35vHy0CkbeypnZiGsTm9kWLtL+ZmwlQuo16gCe4a6verBjagFNOG5/3olPHBGEQNPHls6Y15vG3lgophsnKdZ52/4ERlvSt+X5//g3Gm7X+/6elCdgjayXHxBITmpU/lWAXuJ32FfZbGOa6O4nfygI9KZDoEML8wFGx675ErOOglQ0dE4Ko0aDYcizqxXBO9oh/wz2Bk4P6xXMEX2Ynn+7MymA2nIN9G1NZx+VNtw/XMPVmkPb8MNKz6z2VbJWsu/RAgRdcsvij+zOD3+zCJkJ02UyhFb/acKjRqx9H4P0uufHIYODMJUvW9HOIu1kAdE8CQx7HSgo+10vuv13GvMcva0xiXwNYENcMuAlhqeniBUt4ZW8R7LT01BGwQKa745yz3ShisngGh6nKv1KLOA+b2g2kLi6EPi9xXDHAjfoYBd1ky+fFhqugE7NkJ3tmnVuR9IJjikfNDeNyCxjW2MuTS3Muqet+1f6LGYfiNl8kUj9CJbDTs66B7/lYF7brP4VGJEBzCjgYXnHaK5xJjgoPPOMAnLdni7IVXD2dWUzkPY/6+uSCvg1Le0t0tueajaPV3IqmIw98rq9WsDASEbkco7yW01uhbAGyg8fwzv8USCuuzKwFU7lJfRtS2QLHM6K9/d+TEFEJLthsz5vVBGLwrvNpTjOhTOWH/ibF7fD8sUdf8okqdC96wl/ZVyjOjU7wq3kbGKN+bXlfzOSNANqP7m/72eEHmfAF/7Fo3d5bFgLOsB4v402SdUJB/ng02glJlT7uioMAdAQnkDzomyagjn88/WUFKcbWtrHHOns0CpNyOdvVJ9QeerurD/7XrCGMUu29CR1sZHIkDFrGRNUz+mKB7TMRSR/puzUW6hHwLvVI5NfEwquD89nTfFY/Jei9Cjd3CrrKH22L2Y6MTr3slBBv5kTBg5t45+RfQSSBm9eK3SFZ4/ZD/q9hy8iC5BZ/qDKSgmCxK5XxXjJFv4PneyF6o8k3enR6W0L5tBIqMjHU6+5p5HXNK5eQTN+7BLqX4LA4ulE5shzYIv2YE+LNDrV7gRuWIksszoTBRyJErvKyJbKKvFFmYFaOlH9EGUFgrwy3eQPyiFL5V0j3NXe9coZC33DtA9FiPfgZoNdapHsWJEjd0RGc5IxqIu6cSPCtve/0T2t+VMjHA4a/+pyzKrTGZ4mlB12iyBfMgMoEfQddiUaUQ2+MY4Z61ts0aNYI4T3Uc+RyQXSS+iHFdeERCXc3cnWyzWLaGWB+FLROodX1v8thhTwGOKwdzMXPtqCyBrp8BZT5nAWCO3dJkye2g5nh1C9lv51wmRHAR5pW0SngW/xLcuLprZnHnhpUE2iUJLdLr27dUzPPl07jcUt6CDra7k70192FnIkhpJx8pOch29mDm2qy+XBDwHTiyGu2cUsFvFMNPdZYoluaTeYNev9Ih+P8PORR2Q+fvdkfNDs3tfzwC6WoSi8+KFROaSyQAm+uS89fXEG5TTtCOygVaLx6hm1Z8fHOONzmUrg2jZElrht9HztKw9dc3reeWenEPZb+f6TTyXRcuTDM4sPEXW0dVsvZiN71KDqgPz0vXMgDIJBhdJa9av6yFEGEb2M2cmGKCh6tL+Uuw6X0P3pRSKuxRJuwrBnWCDDGxZvPjly3kBME1+G/kBYxekaukqGka35yNY0jZSeZLKrTDUEk3QH9T44jiHTO5e/BStnh8eSMrtgSAU5B43BeUzNVVCoxsg05FcZM4m7u7QTP2Db9qC3sUI+5ZuF1oJfrgkZhLIKU/PsMSWZBWi7vb9H3vXC6sEuAap957m8YpUUGOi1EM0EUOFtAxAwPOXmOHEV5OO+oyVof1i9wixgYWeT3/nLl2vAzGMUciUKEuyNv9PQ9PG+mrXp4IO0vEvzuV1tDyto9nVQfBEDHULv1J/AHqaTWYwahFs/Hpef6LQRtnIVaroAwdjVn8cLd5fizk3sj//LJfLTmQkPEWPg2WJ0hofpKo5Au12ATQ+0JaXzaY1WGQMqhZ3xhQOXRG1f2crR9WOsI9s0R5AVrnQ/xGlbQAt+fUxTA1uP8x6GxoQesIE8WBs87wv8EWX+Xh4W/BQ9/lBqYlzHDtlwBM9G+tPOLYAvKAemgTM6oAaXw7P2mVnVR06L8zKSX9PwY1o2qpoMBo5CDjqW+RY+ozUaAvzIwjXGKH0AW4WlTMBLVFkJqCzrv5OHbL6ebP7zVy/UzAax4LSpC3KAIx48ce+M4o9Y7RUqET8inFLw27erHJOF4O2fDUhms3zlIsyUiLQNE4im/vYMbIqTB9lTO0wzSX+NKXKmoP3AAJxKL76i3k+paPgM9rpVWhDqkN83amaCDv1AmddY3D2PnePzYQmWvp371nPl3ku94KhAppqvKgTx1EQb+HPlkN5KW4BZTNR4UNEhI0Zkabg+PjUZad+YIoymDq65KqbgemT4wxgH/ndGz+WlMfhwzWORTN6RAmNNLqRTFZ9gVME699ZC6dZYgpbQjXRk2b/mpxXghsSpJp1rmb2c4O14WVwaj27gGKCs4tRs21ig5HLQzrJB0h3Zl37voqyWy7jm+UfB9ECQ3i42qmMY3OZ+n0/7ixYVIGo/HHjVN7BEFYM3C+xSX7jVuSkmyo/K7MiHPBISp0m50mkCh7gXHR1eOv8jIcSFlnT2lc6ZUX0yfQ0cgg90IMViXVazC+qOzDBgAr5wawpep3A75g5Qn0hM9nJVbR+zchAoI4YXFtd2etpGZDJUaBXY34WYOrgNA3utkaEb7fWMskbC7BmhrGTRKn7O61fIl1DMiKMPOt4LTVcP9h5GkE/EaTfzkh1dKhBu6a8djQTM+39DgCqtRbB238pDtcjhsaQsXDT0K/46dHaQ5hpK1yK6QK8ruoTBvLi7heVmKFPHJEYQYs+zBaMy4hUGr39M/ciqk8kJQxElZD5Syz6uFlARdar+4PEiexSvwuA9wXVs/pogR9jaXfwcXp3QplOdlvEIXXErrn45urNsqgg6IGI/V88L+N8iMWRwAJ0Tq3XFruvu/V2FEKWDfennc+zmLJojfmnQaZQCxND+eB2XOmOu+tcyNfzHrBI056xpZOszkHrnJ2cfHo1MYRBMWX2WccMd7ub4LkonFbHdwOPcUhsTheIvShc0+UftuyuKNYqv7nsmwyrfTxLc/pREv8q69iaLVjbh4XbKDqt3bPz78f4uVgqjP+MwranYIljMDImE+sY//4ApRF4i/2Ldl4YGDz0Rx3Xr40XIMWlFQxYgxCUl/M6zL6gPSIFR51FQZJPe6Qo5oxLh/earG9eSOeAmK9E4pqJFNOTb0vTc1dePiQ4ygtdGfF26MvCx6+eYDSYtPJsBwkqf8nQb1V2Uk1dWUoCIQ3iXRL7Z7ahlFcPKiyc+VToJBSvpeUL757hkDmjPNj+x5XX23wXT1KLw6JS1l4+H8T2+dQUkJPSqKa37CnIz/ub7hfj3g4m/RbAJWgirjyZbhAQKOZQ7BJfNRWQj5hWL1dxv9L5rkKUdUJcLfCkQS1BxDG7TpROdpsa2Eg1NolnzPuSNz+J1/jBW/oqShJWTXYo+IKs62Tt0zN8EuqQwBenBNsCkK/IBeeCcPumA6IYofUNFiEziiE30ZpPBe1xA40/mZvyKm9+VbcxlSo680d2h8WZeyqYBUQIVXFs8KVDwyMzQXUdjF/qeC1eoFPUSF3tg1+1NsCUodjF/+LdJo+HcWp96wledgLxFYtOx8N6lmAzTUCI3Y4K3bYwiG6mLcrTuEDTCAKZlIFAxFbljbcFktI/o676TpP+23T7uDx7ZiJ71qq0Zg9x5i9Iq57D6c6FAt57x2AND6jPoG8Cmdph0taCxnGuMrgEblktNQlYK4GdNiIXZFaoomkc5NSTYWgHATxvGJHlAM/U2emOPQsGQtmVXha/PzdEbEa3X9jim5JU9wMtiCpkHdFj+2+9WKP1JUQsOKI/Q5KYGZX5KpfjUlUxV2WdDX3SaaPVpL91QlAbZhVwxq+8rIaKAFQlmi2jSor2jPFLrowUDBl79b/TMChYnsaBog2V2+as5vdkGIQu0Tpo+ezFTbc3Akc/2rg9bV7VKUE70HmcsBzajKCmUoQ78ILkS5F0Kdilk9WXrbF6kQ9cKwoek4Rtpr4vj/Em3g8h4wLl6uN5dr+zBAboH1CO+pNLPO3yJRf+DFA/WojWzONCj/mKhQiWA+ocHpjy+Q8SZx0u8Ppfvua1huI3Uj9xaX4F74UJoI7ZtpfzvK/2ucXgvjEfWBL8d8YA6BSK4MFGswpgpi7bMqDfOArsWFZ3O4zyDO5VcI5twyuyWYgWMIPouI4mxgOvTwVj5GLo2xHuF0l5eonQ+llZ0Df5zQAPUeVVS1jVzmGPoNeURtW2evqjQh5Z1fkrMe44QA4etXjgr8m4FW3KsjJXV5OGC5HNI9avKeNYgaI+9ofDJdFbLx37a4oqGJo7f7r2jcfkz+4ICB8s3BPa2zGppYSWnLU6Idlm0pxw21HUd63CY8qNa454mZQIHw7Yh++nfErQaAJS56zJRDDyCI9je9hzKV1c5Sm1ywqzxGdNKAdVC/Se4Y/X9/WMY6qRQ4wyw6n7u1whG3K30RCw7X8IuN3RLjOWzXwSACoSi23+5MgN28BUEGal6VbVSbn7CgttMq3UniI50c6defGpLhq9ll/+zxD7MX9GNIn6fsJOdd5dfhcjcFs3SfJKDxV6/X0100EOtJfaz38NCBt+sOzryv23wF3L+zb610ZJGV6E1iHkS2Zlwgp+Nihz1qxwrwruEaJgnML8haSmV2DcjRZapeLhF5ror/pZ/yA5hiuuIGG2w6b7ao5+Y+UVjDMfT0eU3tGiOKyMVobRCl1caWnzx2okgTAUMpXPJMSuv2MtzUv/l01bO5TX8ylZvj3AQwdYhH/N3eiuCihKiE31/8n0yLhr9uxCJhOG2grvKJ7Lq93mgYv+gV03AfT7sLPx2Vfj8oDvFvsJaX5dDSACfc/cRLkyUTj+TYLZSk1VNdwqvwQWfQnguh8dDUbsoG4ObAPUlMeLsx+RIkO05DK7yWKOhjWyka/CoOJOJ2BYydkSa9qHMGwMqcSj/7yXe3sNUpos5ueaSeCWjbW4m6f38bgIdaWe6N5e5mnxSDI7gtlJ3wRlqhysnHcA7/SVRS9DZ1DMecXexBoMRdnQc1AXXlvDwUb1VuXdFyYQWlLG3qM+2eaTh9S1JIaw6BnA9Da6D8rgvZu56MFDx89xJbbOVBoIwaOJjor+2jCyj3krw3pgJgAYH8rtRWdfhR1FdQG9gfzVUiPIfyXyngGeHBl23hoHh5zQKWV01Rc8FII7cbjFmF6gTA/AM7ROlAhodsf04LHg3rhC1+u74U7IqOO7gzSvVthGezwzdQedf9wyrtT/nKBB3IiD8lS3lTR2ngczPSSx8UZyOXZg9RZ/3bO1eHFl9f3/LJm4Z7B7Q6YOUS83Zaz2Rf+hVEeAgvve1e+fiuio6X+RwykEd+A9mo3i1XVOUuLhnhaWcDxMVAxkOh7tXV9jhcNxcxhdb+V6QoeqLs/CyAYHcSowc49lWg+Yjs1QDnZpNL0Rd/OlLbuKNbLaLnq+hB1r+SsTz7vxwaiujHlqefHxsWukbTwGTYUHuubxl+Tl31VBkS7Y0tYjHPq7vPoEZht2mQ6h99Ssw6psdg3f30T4UicpDnMqUT9iTssVQIkhSI+cwdM7SAaPxK/fHW9pEyMhAk9RNtPWcE5fHb8uHqTRhF+vlGXDaM9kDHaw8dnfgG435CwmctUyDjY7E1maGFuYKWz6RuduuVN9i7C5WuUfJF+UAE82PkKTt08MCjTf0HK0Svob7w20q5BSQqFy6G1zwWvrLYfcQ1qmY6YXPHvLlXPy/uQvKZ94N2E3qDurYjCX37PWEP7dMkawkvDEP0gmLTG7LUY/Hp899+LpbWdz8+yDLbmwYTj0n3EtbFhYJo+8uk7WTbKjF09BZvw6F14LQR/JUtCK7qybYetLCqso9pQDU1kxBwNb6xuVvWmEp0fZau1eVKWIK35dpLdE3ClwYAj5zKUr08TtV4lYWZ5aAYIZGjBJAUQfjE/AiA/v5IkzN1tRe9C8QxxKWpbbYx8bW2yTE6lmQEy46lJbXQMeAgbBWONn9xGxTiGLanTBOVT2wa7xkYvVtEBeqUfSICy9uAPoeQMJ4rxZxwMvZGAm0SRB2QUO4wOm5v84mtHcv60yfLe/PJoaslUKg/TA7LK4xtrc6nyu0T5Hmrrdg+s2UeXBUq3Rlp8ZMf6lfcOH8pLbaEr9klCI/rmdlrO1rrHEsb1Sy5n8659JB4dfI+ppF7DH/OAf24iwg4gy2pJ8o5Ii5a0NIrmE6F1biCVi7Z27uatiflNe2DEHEL1CARdmTx3btabTvQX2bctAYh2+omq0+rJJr2/+PapqtPm3YEQlO2BkIcsK7FbSGyCcDYJKaDQu6dEd4MyxF2aDdW4o0ZW9jyl9Nom7HhtqVv2AsGJSRPC9zizoL91uLBnTSK7ysRFJJIH3YvXi3/fFP/WzQOXQ4Q1YmnZMimCSU9f8KoP/kGRwjcOetMx3A8SZ+2Vebvu+CX1AlxJPKhXkGalVT7M3Mi6D4sTXL/qWLd3DfLldatL++03Uv6tBs8B+3u33WwFc+mFyAN5u6BgoNKYjcSb5ubbpDim/EQOG//RlzzIuLaVfVCgPSGsnDJIH+19XI55EV4MCxbKfJTuDYc/sO3C2OOOn2iOvgTwn06KXsWXDAdiTXv0JWVQSMPGyfvUJCF4m3beb6Mye/MZqMbnxzUSt8wQXpX+Ksyw68q8KeNSGtn4GvgpBDxzYy+lyoWur51cL7XsRWVWMPprLafaJogxZ6U8Xeqd3fSRpv5OVN9cFvgWWHU/eeHDbHGE0tD5RZUhlItZz3+WtQZ7Ifo8Nj0h08C+WfZcP20s7+3AOPu+gxRoRhCfVrRLG3/aRe1cQ7TIrOGcjdDlWUNaW+Rq7NrEw9SntYvuKjq3RyUMExKmzRMz9erM9rp/t8pmz9ZIAryOtdP2DTK/3mQdALWz9n2/gWB0YnZR2+zWwb9vwQc9Jf3SahxWRodWFX2ZGRw1bxNfUld7VM3EZ0u+OX9Zx6yhc+SzgnkqWChrXe7SwfO4hzN0j3CvXywiBCY8x0+JzPi1uFWqSS67z/AVaL1Pn9LYSl+ZUIajpTesNMD09gQu+7Y9SQkCq2MyNU44zU+Vv5noDZX+d7UCJ0GPXwa45gvQIQEqAE8X4HIqjygOVrqQH0ZBSuE0p7b30FiZFBGZ4UOkMxcjT6nEqGcNjUaxJu0iiXaK6RWki1alCfQ3KA90F4iUHGMF1R2O1rTCk+Au52xaJDBdhLtx2OYG1+xyRYtQmI56VCb7rEKiGV4Lvj8/+GYZqwuSsZx8maPYhJWKquLfZd5mNWdquxr4wXI/rnGY63F7d/QvLQ1yzFQr8nmpA756Lhu6A86GCT3SDs/X+OYf23+/YpMIF/dZgxs06UgAFUno+dr56AvPay6PxVewM+jVmIccfiWKFA8CYgTleiWQmP1BsHNZSsZabQotjmT0xe7T9/EAS4HIA/bTdTb3Sf07GjQLii+9xYGSeSFJFvPysyU1ytJo6UHPtBoYd7A6rJjBZrzQqTx5IZYgLECy9bu1IvYzVm3Ld5RgR9cIpq7UkcKhVwbxVxj2YcSSUTbyK24FGkUMOEYU/rfVYND6JxmJyVf6t2nTZqZ0YaGuFMbQXY0Nc4nVHSoZ99XW92oyvfTZ8PvHFsKhYCOO5mqZj54mhnpbsbwaNQXXFzpENbV8KM+q1WWxSdsoTn0ze+0uJWcD9Kd0TXzoJVlHBwP2T9tlv4iwRlq5tPURSGGWpLXcqnaA52XDhrMlzkcqmkvF4I0R4MxJ706rFC6ZJD1XCvb4O6LNr4zotSMoS2r5LbuA2TxIPB5RHLUxCue2zNJ8mLPaO/Gm1smix2cdcSjxERiZoByaROUrw1zaFBEbNVJ57Oc1JMF4l2LJTs/CQkr5/OXN4kF1XBtx0HUZRpuAGLRugrRwtO2JhOZRMdKOACJok4dh+b6+GnURWaoeST8EZf20jS3apAxVer63kWT5+cZDx7hm0mJdjT6zEjmOHDlaoMtb9QxBFNkg+uZDZv397iBoLL76B3EEPQPLLks1EqPwdAiOymW0mk01/KyjbJcvSEM7lcC0HFUDBmtrHkQXDmJuyB+UPni+eiduWEyDnl2pcevKjlAT+gUOlS1IvNnmyaGi2wP//0vcqViAkCOy24eDM+T4WNZ2Tp/VlQYw0xOyExjzNudxzdN4p51y114GeeSCopFXS0UCXf8f8vRrV9Vy0e96kyRpFnxDy2N5FZ8AkECHvFAgz/28mwkO50md60TpwgswdtFjdRjWGRzhIkE49eKi7kmSYAJbEQPVxvuvrLBPWqmJZe5qPDVrJS01yK0kpTSw9ocQpJIiFEBGazcJDNdr+DaGc9sLCS7MA2bGOlWozVOTu5JC8b/VObD1temEau3IJFwIitv7qmfAbPaqbiC3T1KS4OyupopWpIazxwMr+beZ5cBRbJ0BsLpaL0p4SQUQeaIlG/sglP1aQbLrJZ/szjCUH3VxcoVTP4HQT3Z5Arimr+7hCDZv1CxRFIYrV1R+ZgTxlEsqcQBBaSkjl+O2lOTqdKTWuZ8lyCsUVPtapBszBkaZS7XCLbN1uM6mpZe95zcSiDuWj2SlyN0XL3RzJdsQ7+aqOUwKouDM6aD0JaP3wf4pxDVB+hfM1kV7g8hiNm1FcOQdwctnBJ6NfN92/E1HN+wckNh9sS45DdFme1fzVJbyXz+BIAgpCT2+Wg450/z3JO3jepCPPT90U9Zzqjief7l+97QV03lAQGOjp5ZJBNRw9Qg2j84cW3iEtZLiVLa3lorqfErWeAGZORsb9RWJ5dW7TeBBwjmdevIqsSI67FR0wDqril8qWtzqcK3QDXoMRjCW1gYAcf8QthpuyHIFBSN4EhXNB6oWMxqIRE8MVSYpFhhYT1/ogtvDlwnqDgILu3740L+URKiESLU5AMRWmGJRhYzBER8qUfhIV79Mk3aKzFNo5ks+ymZ7ZAYH2s4B+LCPXAG14LwAjWYNYjnvE5DigwlHlvhYq46gnSkWNeFGpA9iLBI+++4zdliyf2X3GP7wlCPioO52QlrqWdwfwfWX37J1jSE/nevq+TsMbp4X4tKgklpo/kLRzOKdv38Hmvs/RF/WpcvoFnX1gl2kv4/R7bikWC+AwRvdjHBhmDt8FP9QxVV0jQtHpl+6rAlQcFx/DrG9+rheu1PadEJ+4DB9I4yrK73FcA9Kf7OZNji2wRGBwt4/PvInVOo0pkJyJAWEOW1o9LZPqQKPyIoLDJhGxvXR1t1X5zV2yvK4RUKPeHLE53GQplmauh/00KAvsLux3wRk+oN9n5jtWTalVIkPgz7cnsxyLRZ3b+S9ABnP6qbSExvzmsKsTW/k6A1hRIW4CbeZa8dgxFPA6pygzuze4HkJg+k1fpaw9Dg7U+jKucpvNJaERaMRB9rKQBjMRG3MtC6rQZEAJILcBZ7C2aCrmrtjMMWH/tR4MuWuJYuRt1pyUGOdTA1VT9g5BXcb77Uy1sFRHD0H7sBUjZwnC9k2fq15PbJgPg95vu4tcCKxc9CQJ9jUyEkpMEhI2tCcdW4GGQrHPc6HzSNwqKy2AJ1Yv+qj8GWBgzZ6BevzOmmEEYQfLfPiUB4Y4Nl/rLHrKFaNFGapAlit7XTPYsyCI62J5nTg7TUxEDsbGR66GfBvtxmdPgNmSm62j0SvvkLV2uvJUl18S+lBDTkN/1EG/05I3aBH5rlf72BPtUqUytk9WLfELTFy4jPX6ejjzQy1U8IFwRS/GUiq6ouoZsfdLn4zSXBWmPyj5QtjrDaB3uOJzx5UC2A1hO/4x2tgBTOO982JkDXOjXLZ/xSlAxHTJGhLlQQrFmogOTAEaNA7X7OiuWOjOc29o7VasYHJ4pe8qZ1+Xwm+SAk5Nfoc0pIUaJQile54z6mJcAt9wMGui2YNpOMqz9Kv3bx2CeRnXgVSUNCBHkpZ99lygwmi+q2trGjDVwYSuRB+N7MvVQAeOq1fwKIgcSkmWGlzpDPG8My4C7k+NAQgWoJ7FkfDKJMvci6AL6K7YLagoeiqrIr6muDnIEf5n0XhlVteRun0YZtGyqUSS3fT9Z2s71qHXL9z/6wtneaFqMg4rIlRSmvJJfvh8IdqdeWNaz8pFgG6+486rLacIAf19OxLulCp0HBmbjX49YBex5WN5mXCBQmxdgZy7bbruU8vU3bBch70UFCitpwKpNxk+fYNFtDVeAUgNSuy1LCNSkTI8NwhzUIDlKFl9EOY3fn+W96KhHduI+LR+T+QSJeAhUZp66AiX/Dfh3I21G3qvUOQVuCfXQEZQcyLM2dsyZMMU7nlRVDFM2iC1LQhpu+yrhQHWJ8zL1KhMxqA7XWbDDUPHSLuzHNDO700CQ5i8FREM8gt1nTeYsxHnFVpNaOm0czCzEgj2UDEG0logKSllVa06/vcLs9dKj3OtbgGa7J9CeRr2vfB8e30qa9NZhE1NhKWf89BlvkbsaicI3HiTwd3c+J+/A4b1BaxLzUvtGY3ZkshR+rFknRcfgl5z47ahrJTguYZkfpEkg6gwPfMLb2RDwtPVqyJxVxtPdgmq9JsjYl4BjuzHzczOEk3RkljIqX6thf8MimoQobskP7/NtEXsF+hmvLdaL1B2rbyLj1w64yLvVNd1IHzBu2c9Rsu3Q2Qc7GCjLv0SzO/zawfAN4ahC1hbA81rwL+TMitWj1B1acHK9Dth48hgm2MrgzdO+xjNYj7pxWVKW99LtBkAqjDxvgbbdrUsh5ujl14d2v1Se/ZdOH7ICgyYPKSlYryeRv90fKhyCUtbdWOBp/y1bhyMhrrzl2CSegPEqk5PQsihRKDmjbVbRBEoZpvFyQJEU7uGAWC6cwGAvvkXizHuropWbKVsldE1pwKs7E0rg9p7+CKnh49guB4lPaEM/t05wbnS6O3GfZfA3uP7SwkD+4Bv3wxhir4RmoBXnV76wjtdnJxRXUAmMNncDHeKm8mIB3OXTqdfN7kkCRMBQEBU5U7lleNsecGA/9TvAwebdn3K8c1XxAe1WSc939kLY4bJ3EydFI2+j7LmGvBx0iKNbGGUEY/g+KTePqq2xxgckxmMqS6Qn/b3Wi42DtO3ynW5+/YADap9wX/09N4sfnuLr1FRMYTN+Gfr1DrFctTBI8kuaA8qewmsc0SLkg/gi5m0O2W0yYmW4SvzCqFftaPH5pTerggCOvGXV/OuP2l7ec1P1ddPyiNqEnI7bea0lWS/ZXhy9rU9/kstk12tu3LZ73rPpZJSSeGi9zdJQzUIwK0YOJiWTcFuGRvP70wrUnDQyCF6sY1JXmDkYQX15Bs/cIwzQZ37qjz2opp7z8PILoLcH4iv/dy7N8lOfF0FvY4O5wKTItrcNps4lbwyTb6mm+mMSQTbhdj888aHZDRxtN73aBX4G9e+47yUP0dldQ0AOFnO0gfvHmZCpp+PP4jmWcq0hAJSixxB+GWK5+6S45NsU+pvf/M2fEEN6+RuyU1EJw8YkIvTCSQYtxM4ssPnAuKTiafXL+OtGX8lhd3FRDHjlJADjlAospgC6bo9vTpCGQ1lRdjSc47iK80qxB6wL0zoXwdi+j5Ba8FIsYBzbX+moVX0X0BcM+ZYhRn+dj0uXbLpbqkJ1gZN3douJLoyCSaX7QlCYkAhWFEynLnb50Ruc5h4vmfr6We/ehYWgh0o5DnGMxYP0l25YUyzNpiRedHI25SDPeoMA+QAnz+J+KBf8a9vCtrbCV2g3FOhGQlxrqFZeR5w3Curi29jXvQmD6F+OvX6tZsucTXM6yO7mrlUheDrw/Q5xZkhygcjGDAtJkYdoWQiYw7mNl/edGaByAWQe93j2KfisGpXrGvMR5DGINxdRj6KYAly3ev1N/AZYQYwyKEP2MZ+qZbPiMq7q6mAbuQs6KtBpRr8FFCifuJIU2pzzGfjGOJ9uw89+ZRih6x8wUip/VMpFwGZoR4gzgjEAr/bbP0B8VEOfALa0Bqkhfx4TkQbO+drgCTWU4X7oEWH5v5pX6EPC3TMCEF2X4OjmbYf8YysXolBC1L8JZhaqZgwCO9VxZuDoz/iiiaNnhxOLZzE5+pCwnQL8yhI2PbU8GvatNoj8iPNFby4jTbMFccjSCCxmsu3O86MOREivcwvj2MQM7nEeCiLA0vt6+w9PlnSl2DpJYs0yZGgbWeP1dYZQbiLxtnnmPGPdQ7gctBkdmnuN0dKsqy9sw5RBt4dGC21NeSpeHiTHw5MfA0QumvdWGRrZZGq9OXid7XL7z3vNuexDeLxj+9/ui+plbsOUITKF53xova+W/5MqSRkeNL3HEWctuZjFr+FMRpRjt201W8nulKl7oebNp3u+z0+kS13JkIhOtuIM8YRPerXcameR+Uqm+9uSwu506Gtv1D+91aBXOmUs9Cwbg4a+55J/1PzOuk0OmILZUHbtNXWm5ZtfCQ5fJ41ExyK44oVACEpAwAjyFwjt1GvnZ4Wc+KAyQbedzC+uw/qBFL7p/yvrJboAeaYL0JqVkX9Irn0Woam8mSJYZJ9KUjy/w5RRAnGEhQj9NwF0kVZYnexHZXQObZar15kNx165vsVOX29Bszd5cgw5GrPEpmvJoFd9Xy/kpz0p9o6WygkG6zKVwxyFiB4aLB5F2rm8fIAd+QipAwb5JLSlyay2UZQFmjZSx0pXbDf4Us63fYzTdzKrxbsEumd518I+Q/tBUeuS19m1zQGzjI/SmK4B7XYtlrfnLX36/pTnpXrPU/2/WU9RvR68nEmmkJxFk2bhIE6ollQRm07aS1JgzkjmbD1nXqu37vT7/sKJu46JtOoWZqk8QhPVk2IuMxKtr0KfrYTKoG6fgwz0DP7+oLMH/3auFW++qphD7Bt2ju9aFgQ9tbKPproCA3Ujvz0z2W0HdI6YH/wqIhFmUgj94UuAZLi+itjk8R+sHVMeIKE5HbOAp2KkohoFWm4uR+eX2Uv5akMNJV2oMwLZFxZzUzXV97thgORp0N9Qo4NaoAq6Vs3gzKjYBGuY6F/riCIHLziPfFw4zw3OVhV9/j0b8I0eiz2MT+OonVkyWlpWlFtu8AZ5S8/wtVi4ONjX7GkWalB9+wDRV8aXlVmM1W+dUZARjhfDcaVusIFzfouNSWSqJgLoKzlcaVVis5lqGL1SkydJuBdKlys0FIO4GlSNDczvzY7yyU7LhgUPhEa5KnpKplZAw+pp4kx97CQjfbV0obHBSZiEqqGoyzZyVqA69dBQHJPJDdIjJy7aje56AcXBrKmTpwcir9M5TYne7GC3VTEwcEC9U6buLJTeZgRcyYjxYo8BijeGKZBfaUy+Ugk8mbjW3h1PMEcBnq4y0yRBiM9wGq4WyrgdFpNfU2yHxr+QQHP69x5RX/KXeaRt3t3uSpApupRje+hdbo08ONkOTnvQiR9al0m/DXzrdAp7FDjZ4qPOhcjIK1Zt1VCCzt5m4Yt8uffOQyJNeuK6soRcRy6M6f2L5J7xd2pRp5qy2pulEI7X27eItRZ3HuTIaxJEPMW1EpvCy1s+uzz6mlyQ6+iO5WKwAxLxWLc16cKqv6tHYxBVZvy6+D0J6OpDCTXTJ6kHcJaN4tpxdvTstmwjI1rjVpr9HBBYXN+Oqn/8FasbrA79d0HqRa6OJWc6fqnMxckJVG+DEjip2aUkKgeqxszxVY2vguwmGLI3k+ECeOFIfq31qqbYKAaOIdoRZnCaItYLFCzL/xQY0GGpro2asNzrzDAZBAYqUeqhsT4dqdxVfaZku2wOpEaMXZsbI8DQKvx0TtS5qgfT32vG0jXbAvflVrHt706edRLPqQRT1Rb2UcaYlrx/MyNqTRuHgfrmPlnFRnk1GSbD5RXCYwVcC5YCVvtMpWVJ9trbeEC82HXe3Rvvd9CTczkWFQaPvd4/dom4oj6QTafwT5ZpLkGF6RWr6G26tdKuWhCG/mN+TIt7pSe+zu/oSbLxRZJj0LZzRLrI/lcn0YigYt64eqyJOP+7VfV0aC2saTdzxTMBUhDe2eYkMk+9IrmHcUdpYgqu1LgvdWBQBF02/UQl0oDET6P9rSa+FKEN16sNBxnu+m8g//uslrs0WWdFGGiPQ8tCtbseSwjo/q26HDsVCs+/zrJbBSpOhbmi8HDDJToOjhLRGAyT/JGcH012jQMRaS6S9SM1yIViuR6992rKL+lLNzVjSgsuDKgZYQEP19n9GJoKnYtjnI3I6MLT7s2rz4cFDftWdvfcgXMI61p+mMpm2mQ9zGhLb3BHNlBsUZcGw0r6DWb9o3DhWWOSH8u+Pu/Jv8v5rK8EmUnEgNk5SMsU6458YZ5TFeGP+4OUvPFxpjZJeu3WiBXF+XT+iIup0UdCxZVqVkvgCWh3lYKebS9TUzMBOPRchNt24CUkBuljFfEoFrdOXxX4zKl3O5yjWiastdxZIfCQvNYfR01CGDHzeyHpmAJ+wBEFhchfk0/gc/UyLYUhcx4nmFwrELotzmdlv1/dYEQbhPStvgo/F/npQzdgqumIZt+4Ef76HDjf1Y0hOEwrZMSIKcHdjDNSU7K+WcqvwFj+/vgOlQma2qr+Y5KvE2hySVmLCvelMsQFyqrPRoeA0cm0MHQfAbEKrfCgQ+Z9YfwZv8U/Uuikfc71dH9tgk8307rTq9+WTVO9pwuSOxpaOcDvvg83a/gVsSYLmnxXUz17TNc3RJZ1fY0tZVsbjdWZ/9Bt2zngaeYxw9KkX3fnwl1HFqtZ8FkEBbQyNDLQjtPoW9SWE9E+Qz6gyJS2UFRCCvGyXsecO6+2/Gf67sGXG5GPqqoMIe3HwUfKqrbTmCfYHNB0Iv48xrLjeX7s8lRJRuLt/AWr7ahgSYGQfEC7/UqW30uVYdD42VUP/ycobx4VIW+8by58WwGCk3EZjeowhitdernYGpQhc3rs5HzZ0FFDBit4KFBjrmTc1UQqN4PlUZ9EvFpU4dv4DZgOjezq8wy+tTnHKWP6IinutySbw5Xf/DNTHLqX5wzl1+L28dFmm20gtFD6d/ZgIYXZbAeFWSx0gFnr45u9zWVT2I5l+ewgItuuUmS6VGWnZxL7yigjL43gAieMAz+6CPfEVJbLedDr6oIQsuLvnh6VCuWisTLEplo1Y0mqCcoFL15JzvD2McVIQhAKzHlS9dvnWvk5NHdeuba/FRw7othgykb1aDBzr3UCKVJfrG+Twnq9fL0xamCbLvnFN/aeGVQFFhwCq6acpqDrQek1GWPSQ1dDNkMgNX9LySDqycaqxUDSe1mm2HR1+tVErVkgrsGuA271h5gpba2YYnD+gQ04v8ovGgNkFqAwRvpYMjj9DCQGrtLlbZEONmXeLWRg7umWgh8xEeVfgxC/42NI/RtP4FW3sZrtkwkFLw42NN1sg6f7HIwMr7kN+QfWMUO7vdkVWEKclatUVzRdc1l/WzBB1OVhdIhBmtaaemQLFogvXMp/jQ9XNi1HZwKQDunYMLyNbIqDLaK2TygRbAbKSQEF2CcQbFFtvLNHiDHQrvS73rZzRGfmu1qkqS66KxfB6/gt76u9+1ZyrlsRXoMuX7fma5lpT0NVU/n+gIs8ZDsNYAQVciGNC69eb+GoTiBPaBAiRsUN88b/WMbhjFbil4KPnDIAffHQ18KWR4Jx2cRlDoFjKgiU7OlidEcYMYlefhLgPBwVbC5ZxEO8HSEpQQyswdGsAAc+XVC0WvT4Pe/A9mqrPuCnwyPdDGhk35CAY3izvnRpUChAq0tuvb69CCY5yYZT8u4IN5dizrLpTahnHF0wixq03vBg7PXodrmb5qqSvoARdWna3oOevrFCEWZBY36VTpeOtauo/TwTz/8/QYwexKJ9q7aZ6Sqg0JuUDXuIlhVU76F5pqVEjRmis4MaobzVFH5Q+JunwZ10IA8wTMeA6E2CAI41HDPr0/ednpuTIKdc2CokQeI4Qvgc8r/JYZdU2+Hd/qhMZZ4PGEywFVNRfY640ys1x0f6FJ3FlHpM4al1LdwQoFYNBVw8zVtaedpRyPQtvWGD+YTlMxH4S6F+ZI/gvlQSh5ewfvuy/9gZ6zH5hL+8BAL/zh7fcC2hUJOeuoHY6cRqBPa88vZ520+yP6Gi0EkyYYxasBvTfXNtF7lKMgtf9Sb0ygQsXYWlO5ZrE2sF0Dgbsskd8G75kMWK1Ha0Q794QW7d5CavDYBgo2FmobZlaTP3kapxzUaTDdAuFicpczd8/GeFlHaLulqWL4b9SrsL3qLoJvCBnjiNX/aLY9tsGxa+ev8Uy1X3pPhbqoJAHOU23F3jncvcn+TbQ1IxP6y4TwKph5NS6iplVQLMZw7HkKmrs6/zQMFwk/pmglcA7DxJVg2tPD0kOftbdlIvHQzdDC3R/grTzQZVYeAkfaP0o1Yc7rhFwHMiAZZBwbsZIHk1+LarW5pgOaI0K0H64jURDjm3wFX9fEpb0uiJDeh/YCUH602HxAD8pM7kpAvieJttjIuyNSKg2uRjqgO8SCEDtTs9x75tnIcinQTUFCvYk5zmwZbjPmst/6idtLogCbfZ2fY1sFnSMsdMAzf4VRWvyCPBvpBlnHTlbrwKoe+s2V70IisKfsXEdnP2jlBf5F8BL08/wA/px68PFEER+saq2Z2dvgkwB9IXXTnWY+ghq0ED2ssmGDmQLuGM69qBUCq//AZm03LQH2KWjUQpD+KYkvySyIjOFdZXVxqDqAKH/j3DOhA8o9zk9x0fb55+mDsf+nvGDupWzd1yQYpjEiqqVabQrpLcXNFY0J7/k3V+lL1NLTV8jeQvWhRvu0kf5P1LAG1szHTxTnq8H/7W/IDhNVdVe3H8pufP/EkRL09jQWjTCNWnVJwL9BgQ6AgFa3Qeuwz3esf1EgfGnFwvvRllOWXz+j2qU9a6iwo3JO0Op8Qdl4kVhE60wBJ+N+lYI6khd1VshTvcQ8Q76TsJHOVT/fxdnsWcYXGnu3/Hxwc+MADlNLmH3cw2OKUTkG5fk1rB5vPIo6jBCFMQ+IWN4dQUunt/K1273ApO2hUrhL3Ikv5WREm9WtT8mHzYgyxIewKLaMwe+033S1CzsiBHLtaTh4W9+Orh5kY/k4C/OMrblmW+HJ37wjhvAvXLSIwitgs5XUi65DkMvLQ2eWyVW7Y7lS74UBLqi8rYXLzPFJCFn/P0dK0l7WcFwNyrxSDMoHrOHm+ZEULwWSGcEa37O7EtYoSwKUCGzPOY+CuQVEIekJ1I+nyhXCV5Eik4PwVrDXcXQnBu90rzwonEUqOryquNjSTwV6B7UT0oRRAAiRxUVlB8LbcvuMqdhK0fYoVt7EhPeFNgGlmL5c325wRJtcldgTY80n3axOk5SXr+ceyJRPPNai17nI4gdw1mFB+aUKKc+/9pKSrgWyTQIM+dL3ZwVs6S+NSsfQRYoOcGDWzQRi+N9JzslVYODKQOqSEven3RIP0cy35yOXgRBuEiang2F/XJIQwwneH70DP6d1ES69O9Ec1sRBgR/06U6h1AJDMDug+yp/MHGZGICVfKWPz1nv7Wbpdc8jyYdpy887r1A9P2AOYUEYMep7CVfRSJL6cGLDexlnO5oh0N90F8SKVUzOqDjQINaFCSaEWrxWqzMp15a3YsgDLrnv/JD+mMFniWmAefHmYaSKMTRTLevwLFitHBJTFvMS53+qNqPDV+MXcrXyqq7s8zvINUnW8YwYWScv7/mxEoR87Qtc/QipJS50Thpui37d7ewZKkxqCKBMrVvXz6XUWcD5js+bmtT0cnQ9uItLgbAeUvaARsTWY5H5tHKdoZq4G2FQByhmJ0BJnZl5xqeWPFuNXUzylef9OY8seeXNnItB3s8vqF3azRBR/7QGzzT9FFfaBvmTafvlapLt6VMWFRH3v38rf5xJmosPfBSFTJbuL1NnaTH5+K5/swhsyqDX+BVz+z9z7hvjKlqcTF9Sc48jlhh2qq+PqFu3QJg25VL6LGzVsHMS7HeAEKvmn8xd5FSlFZdaFlLjYeuhvv3kOTnqyz3flxQNfSJL2r5qXkFAeDdUhA1PxinWSnhBTqvvYW6LYI1HI3rum/I4olQvT1ArzJDjoSGTvPCZEZN0eZe+yhI8ItWeeu27E1p5fsYp/Si0RzAZoYMfojB9x03t6jpFk+DjgqGRTHvbht6mPnFiZLzxDqxJOVDLr3cZO8Nq03P9J+EtdcXvxbn7xbxzG60vWC2/n9FPSq6dYwcfV8rwHzU+OpZ/za9W6sNVm+5CZbeUl5POvstbPoYW89tYtsdwccrBhXQ8YNPi1ssb9sXCcaeV5k0eNMu6m7I7rjiNyQ/8v1euPMgrEEt14CcIwINabgbOtGX3Gr9+Ja6BdpA340kFNtC/djo3kLA7RyDH0PtukTSbDwtSEl4xIBQanyzGTX7/0lNQPdeezsBpr6ZHlZJskogKBSstt+PCuYyji1rQpYIzPDMsOJZaQUwxtcVPzRrszxO4RfKnzIZ3FZRj+X2eYsoTWu2VbzkFWgVTfqTw80l3HoV4W+u40h4fuO/J/yjyKwQZFJ7VQBLo8a1VdFd2BYCCu6em4CU8uZ2c15Ax+xhzA1Wi8WQkn6xVNaP+E7B+oKVnIlV0OOWU6hbZunHB7gCfDka1kmM9R0LJMudAcURO3iduQApzLW6JBB7T835Pz0Rqt1QhFm90v/69JhKBbK+5wo5GyxYs7p5P2azYAGPGmW1QQ9qthReuv3454iINHMDR7VeSuF2BZpr9p5MX2TCVRt3Y5BwNpsln4/sq1Wj87g/v5/mEAg/2xzzRriSdN4DwzaY3+L5LAihUSsirwJ3qMVjwLq9aEDcxqjjbwWvMx2DGzNv1BqtDZ51QrNxpMuJxnp7ns+U1chyxas55r1wzaqJPyTNVFUWDS6YXW3OQobDaSbyFhJFQ7dZqIHdnUwaYdyfeIm/6Asrh6YFQ5GntG3YTlLAI8fLxIY7k8R8Im7IJuLNZT7Ca5IuYRB0pWwWPVwWS+hC+4SygJ2BM+2sA2IJ/MEto9l+sGnB58OXOJ4jpQCOQW2ACHc+N2HBXV2ckcUffAar1b/JTPPghvARVPy26+bBONgDdYnZ7gwNuEb9fxhJJd+xkFWCdqOK0MYbGkktQJyU2VWP7VKvyu/qcnuCl3n5ALjkAWf6Ix2KaZdcH8wHnwBg1K6IA0tjcCZCps9hNQw9IbiddAXPGgiIdgHlGoxfZJPS1BAqw9U8WpGnoISzWsl0fscrwqavttxmCMTZ8kPU3SzkPrjXxAkgH4NqZGRbW6y58uqIZuW7ioNbMZf/vvVlCMtobdiRYeqyG1IVvD+UZO42IOLTcRV8LsIYpcsSP6rgtwGZREhjA7zp48fsNap19+SmPkbK7aa7Nn1dEGo1M5wYWLNhTSX+Ea9RG0gcxfgQkJVwDLWY6Of36z1NV/qoOiV1lM5HF44hjO8v5X++2dvYzxuYdX36w0GODrPTfH/HDDXklILzwmBfPaACdGhAXjU0YxHUkVE2Lk+NHMmHppLzm8Du6zz1iJDELv3Gvk0UPCjBstxHi3r/goLNxHGOj0aFP6yVXf68f47sz1l92VObTuzPnq3siP6pFMVe0LwxIbs5y6EGf33Hl8fahuG2Z5h2sBBTan5rbVT1q8sRLiY5OWIqKFE/7MWl1tu2odTmJzevgYhx93ef4jyZOM/+rMDdABMfW8WadD+EYEp074II1lFUVyci7oUy8v81pAHKdBJBACULj0VpFAKbvqLMJ08FKz1LzGXAv4X2bG+h78KV9ha7Fgg2oT8U9DW5jvmsCBO5Nca1lzuK7kAQvQDr4T9QYFsq9CXy/xwQAdg7OSlO/Uuu2vmlJ92WT4PgmzEzj5pjg5OAJi6wTfIg80UcmfWRcaYyLtiv4EnPXnrZBWTnVzZs76E1i/gwuihLHR7EZ6GZjDpea/53o2MnTDPc9q6ozWXoJmRmuw7DqPkMwCIFXjQvSi0vhkOPP/qURg/A82Qo2wG5MwosqFfLbpWPnJpF+e5TsupGld4fZKan33WsUXgG1IMUBKWcaBTALOi58+e2FlA9pptC8RSI8t2GfGNUWJAnxn5BjczqTiE+lQLJoXk8/gHcxVTJ0NvVgw5s3p8D7cz3CYLpquZw2Rre6pD+EljmwsAfSBQxnGvZovIf8l5gNBnc8dvHsPiQIy3BsEdZzQttaLWTVJZCN591iCwb40bEnI6x1G+Ovgi09ZPH9jx3mIIGmW/uC+83hQNI1NBHQfAlizRUBSzw7aAodi1fJyQQ9Ab9Gb/NTsRwHGyfOMxD6xTPi1lKTdlsusHEFmpXuCLAMhmIK96r4edLjin5MlUrBjySjz5yEFWW1R/yzUpIOBt6MJoKmV6iGiaTOLnCmh/F8wuDH+7Ced+0wVWB2r6I+IXYw4KJZLTJlA/e8D9l80Hy1809qM1JX3fS2p+7heW97rrBJKoH9zEc8bXX4legRYttVLygekuhFTcB332RJq091qch1KXIiImeUVKUT/xPAqqAG9AOZyUYHD87VbGJ73SCsuJhFim82s2crYIXZnav8HCPQlpyfILPd6lByMlY6ngSedvP44yUjhYynVOEO6y2AMcfcKLAZQgZzrGKIrO/WQeAptZdRZ+/X3R88bjCCPmzLsyLoQOzLV783XOxS0PRbyh+17IZw7OjE+Jb7PdhAfNHuz3TwMVtg9+TvRZaLxxGkeAm0EAPrm6nbIKHcAE/ePS2rsrepm/IjGt5xU3kBkdmXRRYNMfrWYLxhvDPPyarCB1IiCUztq5Z3NrNTl7mCEG7LkBOwgyFmIa5gqYO8KdY+KH/Bw5ixYKGunK2oYrvNMX/P7dtQ+eIZgt365Y289Apdih/usgwZ1DzTTcnVAneP2qrXsbjt0HMt7T+vhNYKAJ1lZmEI7FtYIpekIs6G2Ujxkppmldut3fKdikBRo0bkZYBbOIlFbWvYU0dCtXmz9XRVg1/NIVk9GjwvSzXWhZTUtCjbq3ftxJbHuccPYCc2ESMJLJqyhs47cGgHOAFwXBaqgajGuxZomyys80UcpsgSaStKk2HaKqxLK2cHqPltpUOFKxdrxjHsPkXNYe0JoK92EzYwOrRT3vcPHVDyIcq5AwHSvp/jnOrk6+YKQrmk6v5pZccCCGYq/Gucm+NydNdd5zzsNS4/alHX7BQwMcnASezxsVFP5WAQEw4RyjNdiIwWDVahDdUkxy8Dmp1jd+I1xZDIqO4z4OqSR1oD6dpTsgfR5KJWKaigBn7Sf5cLh7Bs5RadNISrCwdxmUqKuYA6TUAbJ08ODX5rz1cCcPPs59RWdqQos+GWP1NbmBqmjhVqeDMzBT5n9uZ8IaZLNnDctU2MHdmhbceHVfnNb0HG1XodcwyCPFUlxSh3N+YLjK9HHOKy04YpKV8QUWi2Wrhj2MA0yKMHWlkvTutxK3O2yUiqSHmdfkSoCrf9vtslVigJv5o7qZ1tyjN9Xdv/WBS8zShcvQBEoyMmg5y8XVelMQRLVMTl8WoBoiHVRgjISr3zR+KCKAqTQkpa3xUxK4VWvWjK3a3tBSjuHOpemZFWQQlznmxGs6lXR3YDZ850JLK0PRwhZEbI+zO7prAKCyotrxGR7Lx7/egCQZfrtOfd//OZvWr8zmRHDa4g23mEnzaikuzOxzUpPuVQxWc9QrYJH+VwqLK7yTiQy6ZV3qSphi5/HENV1pZC7n/ikc2FdBRZ8E2A3tlA/HuzIITmitCIRIlY2mzzNFQtPR1S0bUMy8lDkVjm6cNUrpsVaXuA9tYfHherGokuV7CbMtCDAa15fk1lhm9S++NdMTLW2Li8nV/KLrm1eGmyBtwma18T8fuLmHJsjg0LKgoYdIkYpq1iYhmDAC/0115z6NoCUOYQXdIlPNqJCxGIOhGH32snNcxH3zAxwlai7YoyFCBbPbV7+fWBqK71+okm8EFB71+kvDp5yi0l+RZURwpnofYu4tS3OQC5Z8yJjJVnDdBfrKfIZia4V6D6Mg49UW2np4OTOgAKr8YYYqiLntcV1aL/8xqAT0dy6COarw/MBdXz75fU43IIPDoOmd21KiTkL96LjyKi57IWUmlr1cq6pNuFZbaGmBvACxqLbNBLEKKlJ1NUArrG4J3cApj9xk27oSv6HG7Ilwqc0fsJk0j2MT4NfKBuClENWEZWv4X30qe7EkupStH+iMhMWKUtfMvfZxU7k6qzhqQqVgWGr0fVPH8H1usw4Tm0ffMGv5680OMEHdY/ENpR+64Nix+zxcOYsUHbUkxRjh1o4IrogqMab06XvYUSgCErahxh7GByxcEeun+//nTxk5mgU+NHcBWTuEm21KpXocWH9JMk0RLZ/2ZtXFYW2eAt/OawwMdyfrpC81YLy9fx8jB6VLcuTdHd0KyTB/Elj1LMjDAgbwJGJWxWNk4/UcucDKUDF34nJJq7t73WYy8NFHVvjTPfqlI7vgvcLq2BXaH/U7jGtXJAJXbQAGnBtXbqRGVaJy7nJZ8TuMFp8MJsejqbm5WfH2MJwvpqAVFqgFiyGl1M3nC8WF/UkLOXG+MKxn7fInmX1H+DEsabXFE5fVmHEzIFfvaTA1Pm4ElfETNRZH7zaUkl93rpblwYiU1YskoJpASZ8q89LBFCavpFZ9Jhli9OpSl910J6EMy4ModkOQ+qKvtMVqd6oGXQX+bQJRpwWItNAdrP+hlrjXJG87bQWiyt8cEI9Vzd0lSmSmsMIzg4cYpmEcY3mCi4JtwOJl7I2LQsecSRilH1BUUwfqFiJGFSfD7vGNIhB6zkwoGVSj8yiYikyOtsAIEKrzuhPaEoO57DWTgM0WqakGvnrPLHaxGX0VcLqVHRlCnDbCtFIE3ruka1Q8Ori7mkr5igmpnhPWq08ml+YA7Sc23+vnFoimJ/rHahtWGiMVEA+AgWObWU9dP76zA2kdBTG2z2+fKfLLDTcJWyx/MAgI0/DVXQcAeomoi0Xzha0F7TiWhsuO1EVX4chl525DtbKzUuawDqCijPhxUz0cSVcEvJcSZWvoAj7aRw2YRwybzrPq8vRYgCEuY8kIx07e12Sjttw+VU/LrCR2W6+Yayz5/0aR+JUf26OOgq6DUrrpCp/+ApBL34xI2XtOXvHmxRw3wY73/Vm7/VmUdqqb49mJaMgA2561CAjAAlFEwYJ8MIMFUbELwfwT0ZCM00cRVBnn0FE2AW1C9+Bt2tqn5/E6Th28su1sAlYRt+72kVArdKhbQrLH3dbFgGybO5qzRuRgQmbYT/X6G/EJCMKq00RA2lRCZqzpycka9bErJOuNfWPpj2Zw4EDVgRzGMSs8bIXWW9gwaGCmCqn8DqVhUgmvLv4cpNOuqXk3sR7warAc/VkEitZ/zt7tRSJnn6BKqZPLV312DsG0kjzVENH9M0ve1cu5+HVJZacQx5Si9GNzJ8vdIeoW3aAkWNIpub2+Mo/tIbgWzYFIiukYU5jA0zmTtQ6RVaBKUJRih9cGWvBt4YBBMI7FnPDBYg7hr+n1uzPsU5hFgsdfEdmeJmd3flFso+NVxsurLGJRfZp76XANyXbuUhcrDodHo6AMCx34Ntp3hLYFfLJxQPlVlmKQQdaMzKL8lQj2k74ndYokNqA5jNbA2dPIJH+ZdUrWhQaVx0KGqWZoMX/XTiNmopU4cIcogmBeHzfI2uSaCAgx6kwcwAigpfbbd6vFKnYb7CkwYSYJ4S9+dzRE+G2u5Fa4hQDpRIJOh/RYVj6TYVoWCvYNhvW8qY298dq3JXRhqBVpKUTT9c0Uc8aNy+rYqRcX/r+t56X4xFTYJVO/6wVBZNjtdPoUdul9XGn7aHpYUJOixr/6kn5oFgfPoyLKShG+Eq1rdD2qT1B2a8LFwSk/UZ3VMba/xSb6cDKFXjRkcljxR3M01taAj98tAuFG8kI4ZmOGPwl8NtdenZYDIuB0wfNOMRgQdHTPgx70Li4f9Bc1LkKepVDiikZaiMLDcXwjTraWdeBNMvZQ7P7gjhd6r6Oc6sHE/kIGAu0qfphBaSMGFInAge0abpFrSmHoE8qQT+4EvlZWYxMyMPsnTt4xuP7G1CCKXljme6j0eRoRwuIceh6y3aMw0XFOwQQjx5+b8YUkTxGsyER+z5ga/tlcYn4DKUim0Be27KVhjUCbWyVsdsDjFBDDzxPaEmXdUYirbtAmDu0PKKMGSSCfPxggQMTMuiEDETlK3JQeuovBLyQ+bUlyGmSYB7lrDpjVJP1DX2GxfsJk0K0OmXjIMy91xWKr9xIISk+LitLkk5LEYXE0Mf73VyL8OinwZgSdGY7PxjWnNwoWVkjLkNOgJrZyk9GcOdmeagK+KXNig2G760KEMMtZwkapiV7p7dHtyLDVNs8rjXe1JSxSJsYQB0LIv/3aOchEwC+qjFXCS6HYAf40gSTnZfDKnRy3MLe2kvoKsKhplceF8vbzmqbshrm8yPHyO5kDhJF52PZBeFQlYRASmfe+iCymYp+yIPHIBY11Jrf6hJtmyyuKXPPq1NhnebRz/w2x51xX7ehnGqzQ4jI1fjN4ha7CWBfseB53aA/fab+8njWWJzvnwsqKIBuh0kx0dslAEP2+7zHDNOseaMMTkadvFnGxHbQ7od0F7GvXoXsrNz/iROdJU+IXhcwGcJg0GlMOtjhz30jF9vN3OHuiZCnfR6gML6w9ekiWnqF3K5cVEm4heKJSKXgAAeapOlUDYPK/hVaWbnPkK+FGcHmVGpbj53aYhSHm9idhMNS5DwF1dpvugKme7gOfHCkyBDspY7a0h+s5AFD1OCEHRSaxa3JsVCrFTsNQoY20FplK3WF8iCQtxvw7QFwCE6YqP1abnAYHhDLSlLky7psPzSgJkO6OUCh2HYNLsCzxc3F5JurIpultsovIDy6DlWsDdsVr7yk+51YubOBbr7LWC8F+Ard0CukNZ7hRt9UhV/XdUmLnw4hO8f4sa30ejQYfBANie7M37No/XPNvv0C3O3427PMyVls+AiHJuvNr/ERK2+/S2hm1kdSWZAWEyTwLI9X/ujAqpr4jWXYGPX6aRiV0IbZmXvOe7J6H35jNBcI/zeOBIPwbAXsWc3s1B7Xz+QhExzPwxS1WVU4PZVxvn6yv2J576lNJEDujPmK+h7QlZ+zQVEMo+hClKYzw0v64d4sjw7DvaFCtVIMufLl6skrH45Hz9Xb5I45imTHILIwpxDL7TLNAohFRWP/pmuLS8Pu0sWjz+c+IiuO8OLS0iWLwo42RTptGvXE0Fn+tyUBAZ7vhD4VXzPd3cz616i0luaa7rPUqg7lXYkW8qlzJ4KqYDphQEyJiNrGvxk7aEf8Y1mzs9XR72xxDlHnLO872G/Of+CvzD6Hy1akC8WYiM/Zag4w4D5VS8o0jiuQEujxZ+4zUya9kNlpCf8cLhzmbwt1JpWLZmXS8GgDjn02Ds1ilzBBRbmvpO8VL8Y0L/8MginOoTVDYNGgyJmDTecYO3rXe1v6ex73vibBTRMR7nboLVAvKrjpXV0q6hazZ5eGih/cAhzIWUkpSa3XopUKNhgD49ga7zAZL50E2GCj7n3HND1+LdcmrrqcoV2C2tJcUc+CUxMCAXd9T9gipli9Vh20GyLFT6aESo+AGhrH7Mc7Dnzg1bNpBoW+Xs8i5ZJuQMhNpLBXxnveDgv/fPiMLd9vsqocJEgzhQI65hGLTqQVgVilSoLylYjYUG9Yui9/70nsGSRrWTKhg4h3lW4biNdqgqFp3Oo8nOauv/aMWTXguPs9sGnq5SBCmB5s+jni6ltkSn1dREjsRvspAoma4R2F0EuE/X0jGUqmt5c0Y1wah9aSY4pyDZuWa/I6LvedGUjpsPGYVVa9CTLNe3auLcAyygFyzMtaZwTQg7CqBG7fG4dQSFnf4/PoOagG1NcLBTC3OYjN98y/zzlKwGydbNuMtX57k0xQBfn96HFcbYPD2OLass/HFSoO+Kd2TfHhsgemiC45oJXIwIEaDogEYLTa/oyq/amck/m6c2CgzJVJfZ6rSnHdKmhc8E2wMq9/a0wAeJ6tVtqk37sx+UQWuOsig3jT471KffsVrL+wLUKabOXVYcY04vHZcqRBdpdKtAtmtymWRaKPJurPsZ7fidBdAQ1iv8DQ2KPv7ayG0T0XQmkvY27tN5J4GSPWZY1rBP0fIW9aBMLHLAvnS6mQsO2kHnGAe6z4V5Bx9xVajaRHDn2hFe0pcI8I7G92gJWJ2109VjgcIdaM0EdTZprI8UpGPO0OjbvrF2obCsuRinbxI3VVcLLI+Lte4CDMEVgL5EY7+cXgYfRvwWjpoOicHzTA9saSudPU08KBmamtQsmlBG8Mg554k302keL1ZXc1MRT2sFJI4UFzPhzTPTJDe+GSAscU3tepmFxrO8mFErjmsFhRIuNmhSRa2Yq+0ksFA1fVVk3EJEx94RXfp8ukNRUScesZuO1CBglTSCcUzsDf+YouCfRc3sznJZx2kfCeKfSzX33WAoABZecmmgJsDxt8GSaqvESqZzxV6RboDUhy/d7KweMj9pZ5V8yqwIFzY5hkOCsw9jGQFkPIMdYRKVXEPEULTYq++IjMzEbFFXBnZ96qcy1sWmHeZI4S8fGt2FQUYMRxYsD1So8BLVrEGXWGFFY+QM0i8erj1ny3ZxzUeQhwlH8cprAamHq95ENyNC2U5O/uydQmCDBT+1OXOzpJt11niEdefn40lxL62yGtvMKnLtmMB/YU4XYLkjln4LjT5Eoeku+GE3I0zM/dC6JntatAXWzVFX6xORXMTeqcla58GQf+GJy/vPM0va6tWS955c34BSvtMuFc5/9bPgJPRhovIGBF2i3cRkVImQk67a63xGQg2+bayaAXXqaPJpgBEYEC2ahXWs/KqIQVgWpj7fYIN2teTcVuT2X93EGOIl7TTmM+MZihN41LW911CZeq4M7uEKxaYVFclbJ+vj4M3JovlovNk1qYp6Md64KhBBEQFaAwCeofE2vWXCj8FwIjOO2wEcjPBkjOcSkU5u7wPbBv/thsfD7RvnctIez0YkJiNT8IXRrWoOBj73WuIaiQ+znW3ualqGIHnkJ0GdJ6hlj/U6/B60AfT5Mtn6znpqRH7qtWQIN3gpGVehD5JROsz7ohOFpA6RDTGxnoUPtOaIuMVwFFTN3716of92WYZ3PKxmiRB/8z4QBHkA6kOen6Sl54erFHv/MgUVpMBGKoq39ejRPaiPOkAOym/+KdqSmnEGJhLzJo6/6Tzj95GUFqQUG3VlAenKs1XXsuKFmAqTExCBEdTff09zPZkj/gAiKrd+ZaZJohVP7yJXHWMc+KYb6+C6Ycd6QhKQQQafUKeagI+maTnHA22AyZocN8QHFVfLwcMhOMMg/rYTA1TA1EHdOBp7XzJvSJTKJMCNpfRkcUs60BngFagmrOZazVOnx7SN7LsA9ngdj+ebps+4mISbcq+dPuIWFfSCEQG5YS7EsDTMDBJDBVL+fo0KBv94nuWIve1r6HHbzhB+znjozrX2HLpYyxFwR6MRIykVbyHOq01Dteyg5ndDi3lN9w8l3COam2QiGLQ1L1i00BkNh8SuX7UCYQq4Y2R/SvEOA7T0AcL9BGOlvysbfucouu6Z4Y8engvxPgG4Ds0k0NZr4SQtFPbcDGB61I3acehQMPp+JDMUdMH742O1y+QoVngv0KEskBjmhOFTMFi6Bzl4hKMAPnGA/k8HhBAK6RTkfbJz3ddEG1YyIxzxai3JXwxCwfy9eLq2nFNxh+9d6OeEkwL4W3Wvw0XWWljRxVjoaVoVP1DZV7JfKt2vdhRv86cyy6SWgymPJf7dWx7fHwKZBt8M4DV0NZXcy6lf+s9gmoZJeqLdafvrBVxHYzm0X28FPQq3urM2HJJ8gipbzvarPKHcf8Kbef+buufgZmV+RwKCYHHF6qwNUabQwvcQK5ctAmEAQbGBotLbKaI8Nx6HFkSjNGwK9HJUrzNb1+fFYV/RecZAPum5VOLAJotopciQlf66JQPuzXUcqcL6xHaALbtjMRrogoFeoPOkiVRDWp5fvUQCgyCTPikXpW1yMZYpOKpu9bV5HL399KJtRD4XT2tvbhp/4BlH22Fz+wu81H4j4hxRyu00Jy9ZjYKzGVJKI5I6fmGdiesZJty+wE3yt7f2vvXRLbFcb9xRlfvgBomMNXTX23xF3Bo8sBIiIRXaoeR/y5E1xEmgfRAQN0VBJXVcTs9bI1Dshn4U0yicyljDEDicXxpy/Bn4LbIcJyZhAMIqAwZ9ZW9UF1PEvSQianV6fkCVskq+9cVRC02hdRvlGHYbVEeaVm6ji4OQdTI9E2DbT79p8gxXlZLdfMtsoFadXjkLZfcgpgELTEKcbk9UCWb27Gumi5k1Dsmrx/dCn2c2x+YRbCg0RdwIKm70TP6L0pSrMjtf3PHyTEz6cPblHClT3jUSvrzCc2C9O7bUvZzK5J7QjOfgFd8zMWizbuycsQCTzjdRG0HGwVgQEooaTHcnMKQvYr1Jwhl1DmLqzQVE51E5Heywk+1XESVlxXv7RWxXvm7EtBijVSaG91/GNczbXMs+bqSZjEB4mMRbOd6PuK3YtzwI0VG0E1kHITVDdF3xX4PY8LZj2IDTdF408L6aFx0YLO3eIM/Nk2NvU/3CYwUpA7MW3X2PseiOzjmUgFDZCohvWxPtycfrFPQfx/0cboC7raCfmpa/xBLGmq1jXmeD7iIrP9WDxmOlG/0uL+HaZCt92LyRwxgmVt3dDELADwFLnxdAyzf2aruUg+uJGUiFJnCH+gvBaWW2syRlyNlPuuJYOr4Ql2gGilWi0RdP/RldO4keOdjRg2B8lc4IeOlBA+QPjeOM/X+lGTCtIFU3mUoUBHp8LxusOm43+v9DX4r+prLTVmN60yylu8/bttm8B0Jvc/kXfUlkDcWXYPAI3hGhS6lyof7JllAnla59Zy8Ti2N5jsMIsTKmgh45JX0Ym5vp0e2oepzCABrBCoz3+ziG0HGaED8qgJbpq5BN4SpipWZPXz8tHjASwF+0q/TzDhz3GLar6Mof735OseFicewjfjZaDabxr06xbCDQAeneFq5dmPK3V6xWEC1tmKenixuAqQYGxaKcd0niWHWLsg3qup7LQhCsdQUhVsDfqa4AjYMpul1/85lcBXNPSI9H+RhyQdOXiVjwfpmC8zFrQhyKt689Aai5kycp8v/KhIwx7IUe8V1bQf3rYcI0bXnMhwA6+/g7lHXkW4qDTTHAk+R7xP7VRUPnYRm6cY+zdSZP9QXLeGXJARmrkdXDz1VPpmtYZQoNf6aftybjQjOkBQ76lH7XPMi3Q+iYYm2tuBAGYg8nHPqsFTy9cDrPBgv1jDo13agVHnvu88AR0Io2CuExpXJJsR7FvedD5SvRdOLHWjvIyHHGkKOgbuc50ojGAebpiqkoaTGSiqJyWVwHCxqRyXii8Ug9fdDIB6oRT0Bx/sse+cBzUXQrQ0DqSeCF+cOH+eXvy9ZNtUzmDLzfAboejxfQh6O53TM/WBQTpmkrvP39SZq38uC/wmhqk7FAChM+0Qp4GuGXzz1QgRZC2ISCdkW+h8HE0DejAHdtXX7RtNPM3BUuEoviwZaxejAFKBAFIBDAAwMiG46tZB3cTWKYI0A9cABY+IpSFPPb0EdkRdCrk5BEIIGzHmQCGUhZt0pdWd3Dg5wt+ZBhzm7ov01vKr9J1Owl1TPPGOzclhZVA/yyUzcwAFe4Auvusxf7ZPouIwP8sWFtQKZ6gBRoRdPs+i50vRrJfCfyKspjsm5kpPG/Cm3JvsJ5FTUb0ehFceZSuUR2df4t+tABFpAWnsoeNU72aKvDJkNTrku6/Z1SvyFTEQxyYGAVvtRrR13pk1hg9JLua+E63y7ckRbrgh2llZ1PrJfOhEI+eIlFbsTCJJYPxjYcc5Fcl2vssEBpk1SHJKmDpASuEPgTKpWORTFOP/Yuwc2elYybXvBjHSAK/Jmz87e1Sho8BkUCOSjaUwW8mvHJy0AujuMptm0DgOEcgWCpR65bIuq603z49KhrfCwWurdUDR6iUZ8MoDLjIzQFdjsao6JOaZMpdkU+eDRLvpxOKpfd5JD136V+B2R3gvdVH0hYfYveJhUWlkAwgs1wqnVH8TAyvzmzRkQ4dtuhj5CqQH90fKIJKvopo4f4PKzeAtH4e6b6T5RYHkdVx80baNZ1MgygpC9YaFkGZ8s887Fk96SvfhqpMQowinTmakty3ej9EavscRa3kZuI5PHfz2/r4K6RYzb0NSGjT0OudYUb75zdZs8FHKTlsPvpNpeoY+/dDbgD8XfTI0uBMyS09HRNAGoNa7EKGCO7nPHYL/f84fg01SvK9TGcBvzQxQUU5hO3VOHBUNuWYTCxaODFcE0MfxbWKyPdHWSYwShqG6pU+o1LO397TtNQaYeJ06X5Yw5AMkSSGZdCum18Gq66ATofIIwT239WPRzFbtuwPNlkxqtcpRjvNp+nGONe0LbpTEqIRdMUxtKYpU7gEU5xFubCWD/Teaa25YGQNB/R7jwqzDpTZXx7IhdJm6YT8Q05Ybioim64jEZs0iMyL799hJOQsIjcGsCeNadD1jhwv/FewO7jfpARUSTePUhsUQhNEPCJQWmfNzhwtl/FkYk0XDSuWTJ9hGV/zb18KbGb2MEzwnx+Mer8g66+utgGWRzpRIh+PLQDCFTt4NVVBr1WJBuEw0Rbu4Qo5pPXHE3S055AgP1FXZQ70w3VxbpUmLSIz/Di2CMNb/j537zWrX3BQeOOxGKnheRjYwrCQaFal6q7nAKi1uL1q3pMtS89UxoO6Rpd0v56bJE182erJ4n5+zk+KIYasWM491zFhaUGl5ipRwrYxe5R2JEz85DIEeOhWLFFZwvrvFLq1CVtNDE8xvGqP91aZIswVJxfAy94rvkwrt3pmTxSJZPb4fv8SRDHAKpKYV+z41AAcN0JUtE3EUERiTGbsgZeMyuCkeX2XHl0XO33UG7WhHz1V5dhJaajGubx+G5rhCnjaSHWGCUb2Bsq75YBuX/cRRvtBvbzjBQ3mNOf0ZLz/WffDQGNUbvkBDAruJBqdLlV/UpiN4b2QQHFovXj+fydFomhZ/hg/S9EfpQhC24t7eQENR9w2BzCUlXpMfwEdlzWKWo/Jin5L/P/T8wbwXkEEWXdlHHosMXxTM88gB4jlBlPwmyHIqYyypw/QjUmGisza9X8M8xMCQaDbxzZY3dTeQhYy3K1XnS5BxNKstkRCQ4/gFKKEaLJ7SOIUMnhXDPdVOLwNqiZ3he1q5Oj0gViviGkAZ0vFH2oo/QFSERztC1GcG+Hl24U2ENMmLw42h9BcLAlbE9nDlZ1XUo0dhfPdmMXlpxd6ucqKqc2qwRFqyYtwy/berPftpOib7q1eBENBqHBcYY28Or89k4A+F0QDWumlkflvPX4JmrcjRT5jd3ngE65hrXDJj5BMG4vtU1utL1EvX0UAyCmtLCVb+XXCu9As++p4VPOdSk6eCO4Fukb64m8RFL+jcUO5lMRNSDP1KxUcQ/1hoNQ07ZpNBd5Cw+gDZfWJRyOTiS0/fTnjz+epXlAMrqhmtxDwcP1PGkwEknI/GroBgzMl9K1cZ0YLmMuodJvnz6itClLOTsz0lhOld+7hSnx6VQtda8oj28vrkY3vqxg//27P+vp74JkD8p2/pKx1JAXQuL2Ac6VwWil0S1kdUnaGupCNTTYZyrF5hpnkxn8d7wbaMUT8eiEznvIjdcBght12VCaxdAN7ibok8rKQF2gAHPuNjO9Ncw7QpKWQkw5YhZwuh9kvzcrvHoZNKi+a5GoQpC7Gn7LAf6sa/mGvR700oxqU8jUn7OO51qcHG2jzefReddWrsLO8udGEgUYqWnUhBWtXY8Dal1TZHWDgGWsDnlpHmKza2AHMhCY5HcJSxsIpMQIfuH0i45AuT73Ms7uqaZ1k0M0uw4257qDensd6fV1Qn4xEgz0KG2F7yfRhyxJDnkoFfL8+62h8C+cfk9DGEj3rI0QzZInHW9qSwfAUbpNR0MEZnsmrCyRDAedRuoylgkYrTqopMYDSyWYQCUfiGbZBwRvC379q5hO7opOlG5ZMtL0nuw3cNh8uE7SMZhberVVFyiMaGevCjEYG9ItCq0Aig4Vwm1Xv7a8wCXU0G+yVbZtSZV53P0e9Za7pa0WpSXeUKporGWnbm+6g4u6indnfTsqQPN5vFwVpfXctpocARlxCcP/C+L/YufPf34yMhNqC2Tq7HtThkt4+xZ5sRjwKUm3ObfQAAAA==;imageBackground=default;" vertex="1" parent="juqxSS0tAxhvBvfeZQ4b-20">
          <mxGeometry y="60" width="200" height="100" as="geometry" />
        </mxCell>
      </root>
    </mxGraphModel>
  </diagram>
</mxfile>
